<svg width="72" height="72" viewBox="0 0 72 72" fill="none" xmlns="http://www.w3.org/2000/svg">
<path d="M52.3636 9.81818L18 26.1818C18 26.1818 18 41.148 18 45.8182C18 45.9425 18.0278 46.0604 18.072 46.1749C18.2389 46.9015 18.8591 47.4545 19.6364 47.4545L26.6776 50.2593C26.9722 50.5473 27.3747 50.7273 27.8182 50.7273C28.7231 50.7273 29.4545 49.9958 29.4545 49.0909C29.4545 48.7636 29.4545 32.7273 29.4545 32.7273L63.8182 14.7273L52.3636 9.81818Z" fill="#070C3A" fill-opacity="0.5"/>
<path d="M71.0624 16.5338L71.0673 16.5224L36.7036 0.158727C36.7036 0.158727 36.5122 0 36 0C35.4878 0 35.2964 0.158727 35.2964 0.158727L0.932727 16.5224L0.936 16.5305C0.806727 16.5862 0 17.0247 0 18V54C0 54.6496 0.386182 55.2027 0.937636 55.4662L0.932727 55.476L35.2964 71.8396L35.3013 71.8298C35.5156 71.9329 35.748 72 36 72C36.252 72 36.4844 71.9329 36.6987 71.8298L36.7036 71.8396L71.0673 55.476L71.0624 55.4662C71.6138 55.2027 72 54.6496 72 54V18C72 17.6416 71.7905 16.8807 71.0624 16.5338ZM54.0393 12.0387L21.2727 27.3224V43.4013L16.3636 41.4376V24.5455L48.6589 9.47618L54.0393 12.0387ZM36 3.44782L44.7938 7.63691L14.2364 22.1875L5.44255 18L36 3.44782ZM34.3636 67.7716L3.27273 52.9658V20.592L13.0909 25.2671V42.5455C13.0909 43.2344 13.5196 43.8169 14.1218 44.0591L14.1202 44.0656L22.2709 47.3253C21.9076 47.1715 22.5082 47.4545 22.9091 47.4545C23.814 47.4545 24.5455 46.7231 24.5455 45.8182V30.7211L34.3636 35.3962V67.7716ZM36 32.5522L27.0409 28.2862L57.87 13.8649L66.5575 18L36 32.5522ZM68.7273 52.9658L37.6364 67.7716V35.3978L68.7273 20.592V52.9658Z" fill="#070C3A"/>
</svg>
