<svg width="60" height="60" viewBox="0 0 60 60" fill="none" xmlns="http://www.w3.org/2000/svg">
<path d="M44.9998 19.7749C44.9248 19.7749 44.8748 19.7749 44.7998 19.7749H44.6748C39.9498 19.6249 36.4248 15.9749 36.4248 11.4749C36.4248 6.87491 40.1748 3.1499 44.7498 3.1499C49.3248 3.1499 53.0748 6.89991 53.0748 11.4749C53.0498 15.9999 49.5248 19.6499 45.0248 19.7999C45.0248 19.7749 45.0248 19.7749 44.9998 19.7749ZM44.7498 6.87492C42.2248 6.87492 40.1748 8.92492 40.1748 11.4499C40.1748 13.9249 42.0998 15.9249 44.5748 16.0249C44.5998 15.9999 44.7998 15.9999 45.0248 16.0249C47.4498 15.8999 49.3248 13.8999 49.3498 11.4499C49.3498 8.92492 47.2998 6.87492 44.7498 6.87492Z" fill="white"/>
<path d="M45.0252 38.2001C44.0502 38.2001 43.0752 38.1251 42.1002 37.9501C41.0752 37.7751 40.4002 36.8001 40.5752 35.7751C40.7502 34.7501 41.7252 34.0751 42.7502 34.2501C45.8252 34.7751 49.0752 34.2001 51.2502 32.7501C52.4252 31.9751 53.0503 31.0001 53.0503 30.0251C53.0503 29.0501 52.4002 28.1001 51.2502 27.3251C49.0752 25.8751 45.7752 25.3001 42.6752 25.8501C41.6502 26.0501 40.6753 25.3501 40.5003 24.3251C40.3253 23.3001 41.0003 22.3251 42.0253 22.1501C46.1003 21.4251 50.3253 22.2001 53.3253 24.2001C55.5253 25.6751 56.8003 27.7751 56.8003 30.0251C56.8003 32.2501 55.5503 34.3751 53.3253 35.8751C51.0503 37.3751 48.1002 38.2001 45.0252 38.2001Z" fill="white"/>
<path d="M14.9252 19.775C14.9002 19.775 14.8752 19.775 14.8752 19.775C10.3752 19.625 6.8502 15.975 6.8252 11.475C6.8252 6.87499 10.5752 3.125 15.1502 3.125C19.7252 3.125 23.4752 6.875 23.4752 11.45C23.4752 15.975 19.9502 19.625 15.4502 19.775L14.9252 17.9L15.1002 19.775C15.0502 19.775 14.9752 19.775 14.9252 19.775ZM15.1752 16.025C15.3252 16.025 15.4502 16.025 15.6002 16.05C17.8252 15.95 19.7752 13.95 19.7752 11.475C19.7752 8.94999 17.7252 6.89999 15.2002 6.89999C12.6752 6.89999 10.6252 8.94999 10.6252 11.475C10.6252 13.925 12.5252 15.9 14.9502 16.05C14.9752 16.025 15.0752 16.025 15.1752 16.025Z" fill="white"/>
<path d="M14.9 38.2001C11.825 38.2001 8.875 37.3751 6.6 35.8751C4.4 34.4001 3.125 32.2751 3.125 30.0251C3.125 27.8001 4.4 25.6751 6.6 24.2001C9.6 22.2001 13.825 21.4251 17.9 22.1501C18.925 22.3251 19.6 23.3001 19.425 24.3251C19.25 25.3501 18.275 26.0501 17.25 25.8501C14.15 25.3001 10.875 25.8751 8.675 27.3251C7.5 28.1001 6.875 29.0501 6.875 30.0251C6.875 31.0001 7.525 31.9751 8.675 32.7501C10.85 34.2001 14.1 34.7751 17.175 34.2501C18.2 34.0751 19.175 34.7751 19.35 35.7751C19.525 36.8001 18.85 37.7751 17.825 37.9501C16.85 38.1251 15.875 38.2001 14.9 38.2001Z" fill="white"/>
<path d="M29.9998 38.45C29.9248 38.45 29.8748 38.45 29.7998 38.45H29.6748C24.9498 38.3 21.4248 34.65 21.4248 30.15C21.4248 25.55 25.1748 21.825 29.7498 21.825C34.3248 21.825 38.0748 25.575 38.0748 30.15C38.0498 34.675 34.5248 38.325 30.0248 38.475C30.0248 38.45 30.0248 38.45 29.9998 38.45ZM29.7498 25.55C27.2248 25.55 25.1748 27.6 25.1748 30.125C25.1748 32.6 27.0998 34.6 29.5748 34.7C29.5998 34.675 29.7998 34.675 30.0248 34.7C32.4498 34.575 34.3248 32.575 34.3498 30.125C34.3498 27.625 32.2998 25.55 29.7498 25.55Z" fill="white"/>
<path d="M29.9992 56.8998C26.9992 56.8998 23.9992 56.1248 21.6742 54.5498C19.4742 53.0748 18.1992 50.9748 18.1992 48.7248C18.1992 46.4998 19.4492 44.3498 21.6742 42.8748C26.3492 39.7748 33.6742 39.7748 38.3242 42.8748C40.5242 44.3498 41.7992 46.4498 41.7992 48.6998C41.7992 50.9248 40.5492 53.0748 38.3242 54.5498C35.9992 56.0998 32.9992 56.8998 29.9992 56.8998ZM23.7492 46.0248C22.5742 46.7998 21.9492 47.7748 21.9492 48.7498C21.9492 49.7248 22.5992 50.6748 23.7492 51.4498C27.1242 53.7248 32.8492 53.7248 36.2242 51.4498C37.3992 50.6748 38.0242 49.6998 38.0242 48.7248C38.0242 47.7498 37.3742 46.7998 36.2242 46.0248C32.8742 43.7498 27.1492 43.7748 23.7492 46.0248Z" fill="white"/>
</svg>
