<svg width="60" height="60" viewBox="0 0 60 60" fill="none" xmlns="http://www.w3.org/2000/svg">
<path d="M21.4506 56.3753C20.9006 56.3753 20.3256 56.2753 19.8006 56.0503C18.6256 55.5503 17.7256 54.5753 17.3256 53.3503L16.2256 50.0503C15.7256 48.5503 16.1756 46.6753 17.2756 45.5503L22.9506 39.8503C23.0256 39.7753 23.1256 39.5003 23.1256 39.3753V33.2003L11.7256 38.1253C10.2006 38.7753 8.65059 38.7003 7.47559 37.9253C6.30059 37.1503 5.60059 35.7503 5.60059 34.1253V30.9003C5.60059 28.4503 7.35059 25.8253 9.57559 24.9503L23.1006 19.1003V12.0003C23.1006 8.97529 25.2256 5.50029 27.9256 4.10029C29.2256 3.45029 30.7256 3.45029 32.0006 4.10029C34.7256 5.50029 36.8506 8.95029 36.8506 11.9753V19.0753L50.4506 24.9253C52.6756 25.8753 54.3756 28.4253 54.3756 30.9003V34.1253C54.3756 35.7753 53.7006 37.1503 52.5006 37.9253C51.3006 38.7003 49.7756 38.7753 48.2506 38.1503L36.8506 33.2253V39.4003C36.8506 39.5003 36.9506 39.7503 37.0256 39.8253L42.7256 45.5503C43.8256 46.6503 44.2756 48.5753 43.7756 50.0503L42.6756 53.3503C42.2506 54.5753 41.3506 55.5503 40.1506 56.0253C38.9756 56.5003 37.6756 56.4503 36.5506 55.9003C36.4256 55.8253 36.3006 55.7503 36.1756 55.6503L30.3506 50.7503C30.1506 50.5753 29.7506 50.6003 29.5756 50.7503L23.7506 55.6503C23.6506 55.7503 23.5256 55.8253 23.4006 55.8753C22.8006 56.2253 22.1256 56.3753 21.4506 56.3753ZM23.9006 29.1003C24.4756 29.1003 25.0256 29.2503 25.5006 29.5753C26.3756 30.1503 26.8756 31.1253 26.8756 32.2753V39.4003C26.8756 40.4753 26.3506 41.7503 25.6006 42.5003L19.9256 48.2003C19.8256 48.3253 19.7256 48.7003 19.7756 48.8503L20.8756 52.1753C20.9506 52.4253 21.1256 52.5253 21.2256 52.5753C21.3006 52.6003 21.4256 52.6503 21.5756 52.6003L27.1756 47.8753C28.7506 46.5253 31.2256 46.5253 32.8006 47.8753L38.3756 52.5753C38.5506 52.6003 38.6756 52.5753 38.7506 52.5503C38.8506 52.5003 39.0506 52.4003 39.1256 52.1503L40.2256 48.8503C40.2756 48.6753 40.1756 48.3003 40.0756 48.2003L34.4006 42.5003C33.6506 41.8003 33.1006 40.5003 33.1006 39.4003V32.2753C33.1006 31.1503 33.5756 30.1753 34.4256 29.6003C35.2756 29.0253 36.3756 28.9503 37.4256 29.4003L49.7256 34.7003C50.1006 34.8503 50.3506 34.8503 50.4256 34.8003C50.5006 34.7503 50.6006 34.5253 50.6006 34.1253V30.9003C50.6006 29.9503 49.8006 28.7253 48.9506 28.3753L35.0006 22.3503C33.9006 21.8753 33.1256 20.6753 33.1256 19.4753V11.9753C33.1256 10.3253 31.8256 8.20029 30.3256 7.45029C30.1256 7.35029 29.8756 7.35029 29.6506 7.45029C28.2006 8.20029 26.8756 10.3753 26.8756 12.0003V19.5003C26.8756 20.6753 26.1006 21.9003 25.0006 22.3753L11.0506 28.4003C10.1756 28.7503 9.37559 29.9753 9.37559 30.9003V34.1253C9.37559 34.5253 9.47559 34.7503 9.55059 34.8003C9.62559 34.8503 9.87559 34.8503 10.2506 34.7003L22.5256 29.4003C22.9756 29.2003 23.4506 29.1003 23.9006 29.1003Z" fill="white"/>
</svg>
