<svg width="60" height="60" viewBox="0 0 60 60" fill="none" xmlns="http://www.w3.org/2000/svg">
<path d="M30 55.2C29.25 55.2 28.5 55.025 27.875 54.675C23.2 52.125 14.975 49.425 9.825 48.75L9.1 48.65C5.825 48.25 3.125 45.175 3.125 41.85V11.65C3.125 9.67502 3.9 7.87502 5.325 6.57502C6.75 5.27502 8.6 4.65002 10.55 4.82502C16.05 5.25002 24.35 8.00002 29.05 10.95L29.65 11.3C29.825 11.4 30.2 11.4 30.35 11.325L30.75 11.075C35.45 8.12502 43.75 5.32502 49.275 4.85002C49.325 4.85002 49.525 4.85002 49.575 4.85002C51.4 4.67502 53.275 5.32502 54.675 6.62502C56.1 7.92502 56.875 9.72502 56.875 11.7V41.875C56.875 45.225 54.175 48.275 50.875 48.675L50.05 48.775C44.9 49.45 36.65 52.175 32.075 54.7C31.475 55.05 30.75 55.2 30 55.2ZM9.95 8.55002C9.15 8.55002 8.425 8.82502 7.85 9.35002C7.225 9.92502 6.875 10.75 6.875 11.65V41.85C6.875 43.325 8.15 44.75 9.575 44.95L10.325 45.05C15.95 45.8 24.575 48.625 29.575 51.35C29.8 51.45 30.125 51.475 30.25 51.425C35.25 48.65 43.925 45.8 49.575 45.05L50.425 44.95C51.85 44.775 53.125 43.325 53.125 41.85V11.675C53.125 10.75 52.775 9.95002 52.15 9.35002C51.5 8.77502 50.675 8.50002 49.75 8.55002C49.7 8.55002 49.5 8.55002 49.45 8.55002C44.675 8.97502 36.975 11.55 32.775 14.175L32.375 14.45C31 15.3 29.05 15.3 27.725 14.475L27.125 14.125C22.85 11.5 15.15 8.95002 10.25 8.55002C10.15 8.55002 10.05 8.55002 9.95 8.55002Z" fill="white"/>
<path d="M30 53.1001C28.975 53.1001 28.125 52.2501 28.125 51.2251V13.7251C28.125 12.7001 28.975 11.8501 30 11.8501C31.025 11.8501 31.875 12.7001 31.875 13.7251V51.2251C31.875 52.2751 31.025 53.1001 30 53.1001Z" fill="white"/>
<path d="M19.375 23.1001H13.75C12.725 23.1001 11.875 22.2501 11.875 21.2251C11.875 20.2001 12.725 19.3501 13.75 19.3501H19.375C20.4 19.3501 21.25 20.2001 21.25 21.2251C21.25 22.2501 20.4 23.1001 19.375 23.1001Z" fill="white"/>
<path d="M21.25 30.6001H13.75C12.725 30.6001 11.875 29.7501 11.875 28.7251C11.875 27.7001 12.725 26.8501 13.75 26.8501H21.25C22.275 26.8501 23.125 27.7001 23.125 28.7251C23.125 29.7501 22.275 30.6001 21.25 30.6001Z" fill="white"/>
</svg>
