<svg width="60" height="60" viewBox="0 0 60 60" fill="none" xmlns="http://www.w3.org/2000/svg">
<path d="M29.9996 34.3499C28.0496 34.3499 26.1996 33.5999 24.7746 32.1999C22.9496 30.3749 22.2246 27.7499 22.8246 25.1749C23.4496 22.5499 25.5496 20.4499 28.1746 19.8249C30.7246 19.1999 33.3496 19.9249 35.1996 21.7749C37.0496 23.6249 37.7496 26.2249 37.1496 28.7999C36.5246 31.4249 34.4246 33.5248 31.7996 34.1498C31.1996 34.2748 30.5996 34.3499 29.9996 34.3499ZM29.9996 23.3499C29.6996 23.3499 29.3746 23.3999 29.0746 23.4749C27.8246 23.7749 26.7996 24.7998 26.4996 26.0498C26.1746 27.3498 26.5246 28.6249 27.4496 29.5249C28.3746 30.4499 29.6246 30.7749 30.9496 30.4749C32.1996 30.1749 33.2246 29.1498 33.5246 27.8998C33.8496 26.5998 33.4996 25.3249 32.5746 24.4249C31.8746 23.7249 30.9746 23.3499 29.9996 23.3499Z" fill="white"/>
<path d="M15.0499 44.9249C14.5999 44.9249 14.1249 44.75 13.7749 44.425C8.92487 39.925 6.1499 33.5749 6.1499 26.9749C6.1499 13.8249 16.8499 3.125 29.9999 3.125C43.1499 3.125 53.8499 13.8249 53.8499 26.9749C53.8499 33.6249 51.1749 39.775 46.3249 44.35C45.5749 45.05 44.3749 45.0251 43.6749 44.2751C42.9749 43.5251 42.9999 42.3251 43.7499 41.6251C47.8499 37.7751 50.0999 32.6 50.0999 27C50.0999 15.925 41.0749 6.90002 29.9999 6.90002C18.9249 6.90002 9.8999 15.925 9.8999 27C9.8999 32.65 12.1749 37.85 16.3249 41.7C17.0749 42.4 17.1249 43.6 16.4249 44.35C16.0499 44.725 15.5499 44.9249 15.0499 44.9249Z" fill="white"/>
<path d="M39.9998 38.2501C39.5498 38.2501 39.0748 38.0751 38.7248 37.7501C37.9748 37.0501 37.9248 35.8501 38.6498 35.1001C40.7248 32.9001 41.8748 30.0001 41.8748 27.0001C41.8748 20.4501 36.5498 15.1501 30.0248 15.1501C23.4998 15.1501 18.1748 20.4751 18.1748 27.0001C18.1748 30.0251 19.3248 32.9001 21.3998 35.1001C22.0998 35.8501 22.0748 37.0501 21.3248 37.7501C20.5748 38.4501 19.3748 38.4252 18.6748 37.6752C15.9498 34.7752 14.4248 30.9751 14.4248 27.0001C14.4248 18.4001 21.4248 11.4001 30.0248 11.4001C38.6248 11.4001 45.6248 18.4001 45.6248 27.0001C45.6248 30.9751 44.1248 34.7752 41.3748 37.6752C40.9998 38.0502 40.4998 38.2501 39.9998 38.2501Z" fill="white"/>
<path d="M33.6002 56.8751H26.4252C23.5752 56.8751 21.0502 55.2751 19.8252 52.7251C18.6002 50.1751 18.9252 47.2 20.7002 44.975L24.3002 40.5001C25.7002 38.7501 27.7752 37.75 30.0252 37.75C32.2752 37.75 34.3502 38.7501 35.7502 40.5001L39.3502 44.975C41.1252 47.2 41.4752 50.1751 40.2252 52.7251C38.9502 55.2751 36.4252 56.8751 33.6002 56.8751ZM27.2002 42.8251L23.6002 47.3C22.7252 48.4 22.5502 49.825 23.1752 51.075C23.7752 52.35 25.0002 53.1 26.4002 53.1H33.5752C34.9752 53.1 36.2002 52.35 36.8002 51.075C37.4002 49.8 37.2502 48.4 36.3752 47.3L32.7752 42.8251C31.4252 41.1251 28.5752 41.1251 27.2002 42.8251Z" fill="white"/>
</svg>
