<svg width="60" height="60" viewBox="0 0 60 60" fill="none" xmlns="http://www.w3.org/2000/svg">
<path d="M42.9502 46.875C38.6752 46.875 33.5752 45.25 33.5752 37.5V22.5C33.5752 14.75 38.6752 13.125 42.9502 13.125C47.2252 13.125 52.3252 14.75 52.3252 22.5V37.5C52.3252 45.25 47.2252 46.875 42.9502 46.875ZM42.9502 16.875C38.9002 16.875 37.3252 18.45 37.3252 22.5V37.5C37.3252 41.55 38.9002 43.125 42.9502 43.125C47.0002 43.125 48.5752 41.55 48.5752 37.5V22.5C48.5752 18.45 47.0002 16.875 42.9502 16.875Z" fill="white"/>
<path d="M17.0498 46.875C12.7748 46.875 7.6748 45.25 7.6748 37.5V22.5C7.6748 14.75 12.7748 13.125 17.0498 13.125C21.3248 13.125 26.4248 14.75 26.4248 22.5V37.5C26.4248 45.25 21.3248 46.875 17.0498 46.875ZM17.0498 16.875C12.9998 16.875 11.4248 18.45 11.4248 22.5V37.5C11.4248 41.55 12.9998 43.125 17.0498 43.125C21.0998 43.125 22.6748 41.55 22.6748 37.5V22.5C22.6748 18.45 21.0998 16.875 17.0498 16.875Z" fill="white"/>
<path d="M35.4498 31.875H24.5498C23.5248 31.875 22.6748 31.025 22.6748 30C22.6748 28.975 23.5248 28.125 24.5498 28.125H35.4498C36.4748 28.125 37.3248 28.975 37.3248 30C37.3248 31.025 36.4998 31.875 35.4498 31.875Z" fill="white"/>
<path d="M56.25 38.125C55.225 38.125 54.375 37.275 54.375 36.25V23.75C54.375 22.725 55.225 21.875 56.25 21.875C57.275 21.875 58.125 22.725 58.125 23.75V36.25C58.125 37.275 57.275 38.125 56.25 38.125Z" fill="white"/>
<path d="M3.75 38.125C2.725 38.125 1.875 37.275 1.875 36.25V23.75C1.875 22.725 2.725 21.875 3.75 21.875C4.775 21.875 5.625 22.725 5.625 23.75V36.25C5.625 37.275 4.775 38.125 3.75 38.125Z" fill="white"/>
</svg>
