<svg width="60" height="60" viewBox="0 0 60 60" fill="none" xmlns="http://www.w3.org/2000/svg">
<path d="M16.2999 40.65C15.8249 40.65 15.3499 40.475 14.9749 40.1C14.2499 39.375 14.2499 38.175 14.9749 37.45L22.5999 29.825C23.3249 29.1 24.5249 29.1 25.2499 29.825C25.9749 30.55 25.9749 31.75 25.2499 32.475L17.6249 40.1C17.2499 40.45 16.7749 40.65 16.2999 40.65Z" fill="white"/>
<path d="M24.0001 40.725C23.5251 40.725 23.0501 40.55 22.6751 40.175L15.0501 32.55C14.3251 31.825 14.3251 30.625 15.0501 29.9C15.7751 29.175 16.9751 29.175 17.7001 29.9L25.3251 37.525C26.0501 38.25 26.0501 39.45 25.3251 40.175C24.9501 40.55 24.4751 40.725 24.0001 40.725Z" fill="white"/>
<path d="M33.8502 37.5C32.4752 37.5 31.3252 36.375 31.3252 35C31.3252 33.625 32.4252 32.5 33.8002 32.5H33.8502C35.2252 32.5 36.3502 33.625 36.3502 35C36.3502 36.375 35.2502 37.5 33.8502 37.5Z" fill="white"/>
<path d="M43.6998 37.5C42.3248 37.5 41.1748 36.375 41.1748 35C41.1748 33.625 42.2748 32.5 43.6498 32.5H43.6998C45.0748 32.5 46.1998 33.625 46.1998 35C46.1998 36.375 45.0748 37.5 43.6998 37.5Z" fill="white"/>
<path d="M38.75 42.4249C37.375 42.4249 36.25 41.3249 36.25 39.9499V39.8999C36.25 38.5249 37.375 37.3999 38.75 37.3999C40.125 37.3999 41.25 38.5249 41.25 39.8999C41.25 41.2749 40.15 42.4249 38.75 42.4249Z" fill="white"/>
<path d="M38.75 32.575C37.375 32.575 36.25 31.475 36.25 30.1V30.05C36.25 28.675 37.375 27.55 38.75 27.55C40.125 27.55 41.25 28.675 41.25 30.05C41.25 31.425 40.15 32.575 38.75 32.575Z" fill="white"/>
<path d="M37.5 56.875H22.5C8.925 56.875 3.125 51.075 3.125 37.5V32.5C3.125 18.925 8.925 13.125 22.5 13.125H37.5C51.075 13.125 56.875 18.925 56.875 32.5V37.5C56.875 51.075 51.075 56.875 37.5 56.875ZM22.5 16.875C10.975 16.875 6.875 20.975 6.875 32.5V37.5C6.875 49.025 10.975 53.125 22.5 53.125H37.5C49.025 53.125 53.125 49.025 53.125 37.5V32.5C53.125 20.975 49.025 16.875 37.5 16.875H22.5Z" fill="white"/>
<path d="M32.4751 16.875H29.9751C27.5751 16.875 25.6001 14.9 25.6001 12.5C25.6001 10.1 27.5501 8.125 29.9501 8.125C30.3501 8.125 30.6251 7.85 30.6501 7.5L30.6751 4.975C30.7001 3.95 31.5251 3.125 32.5501 3.125H32.5751C33.6001 3.15 34.4501 4 34.4251 5.025L34.4001 7.55C34.3751 9.925 32.4001 11.875 30.0251 11.875C29.6251 11.875 29.3751 12.15 29.3751 12.5C29.3751 12.85 29.6501 13.125 30.0001 13.125H32.5001C33.5251 13.125 34.3751 13.975 34.3751 15C34.3751 16.025 33.5001 16.875 32.4751 16.875Z" fill="white"/>
</svg>
