<svg width="60" height="60" viewBox="0 0 60 60" fill="none" xmlns="http://www.w3.org/2000/svg">
<path d="M40 56.875H20C10.875 56.875 5.625 51.625 5.625 42.5V17.5C5.625 8.375 10.875 3.125 20 3.125H40C49.125 3.125 54.375 8.375 54.375 17.5V42.5C54.375 51.625 49.125 56.875 40 56.875ZM20 6.875C12.85 6.875 9.375 10.35 9.375 17.5V42.5C9.375 49.65 12.85 53.125 20 53.125H40C47.15 53.125 50.625 49.65 50.625 42.5V17.5C50.625 10.35 47.15 6.875 40 6.875H20Z" fill="white"/>
<path d="M22.5 27.775C22.075 27.775 21.65 27.7 21.25 27.525C20.1 27.025 19.375 25.9 19.375 24.675V5C19.375 3.975 20.225 3.125 21.25 3.125H38.75C39.775 3.125 40.625 3.975 40.625 5V24.65C40.625 25.9 39.9 27.025 38.75 27.5C37.625 28 36.3001 27.7751 35.3751 26.9251L30 22L24.6249 26.9501C24.0249 27.5001 23.275 27.775 22.5 27.775ZM30 18.0251C30.75 18.0251 31.5249 18.2999 32.1249 18.8499L36.875 23.2249V6.875H23.125V23.2249L27.8751 18.8499C28.4751 18.2999 29.25 18.0251 30 18.0251Z" fill="white"/>
<path d="M43.75 36.875H33.125C32.1 36.875 31.25 36.025 31.25 35C31.25 33.975 32.1 33.125 33.125 33.125H43.75C44.775 33.125 45.625 33.975 45.625 35C45.625 36.025 44.775 36.875 43.75 36.875Z" fill="white"/>
<path d="M43.75 46.875H22.5C21.475 46.875 20.625 46.025 20.625 45C20.625 43.975 21.475 43.125 22.5 43.125H43.75C44.775 43.125 45.625 43.975 45.625 45C45.625 46.025 44.775 46.875 43.75 46.875Z" fill="white"/>
</svg>
