<svg width="60" height="60" viewBox="0 0 60 60" fill="none" xmlns="http://www.w3.org/2000/svg">
<path d="M30.0248 42.5C27.8998 42.5 25.7498 41.95 24.0748 40.875L9.0248 31.05C6.2248 29.225 4.5498 26.15 4.5498 22.8C4.5498 19.45 6.2248 16.375 9.0248 14.55L24.0998 4.74996C27.4498 2.57496 32.6748 2.57496 35.9998 4.77496L50.9748 14.6C53.7498 16.425 55.4248 19.5 55.4248 22.825C55.4248 26.15 53.7498 29.225 50.9748 31.05L35.9998 40.875C34.3248 41.975 32.1748 42.5 30.0248 42.5ZM30.0248 6.87496C28.5998 6.87496 27.1748 7.19996 26.1498 7.89996L11.0998 17.7C9.3498 18.85 8.3248 20.7 8.3248 22.8C8.3248 24.9 9.3248 26.75 11.0998 27.9L26.1498 37.725C28.2248 39.075 31.8748 39.075 33.9498 37.725L48.9248 27.9C50.6748 26.75 51.6748 24.9 51.6748 22.8C51.6748 20.7 50.6748 18.85 48.9248 17.7L33.9498 7.87496C32.8998 7.22496 31.4748 6.87496 30.0248 6.87496Z" fill="white"/>
<path d="M30 56.875C28.9 56.875 27.775 56.725 26.875 56.4249L18.9 53.775C15.125 52.525 12.15 48.4 12.175 44.425L12.2 32.7C12.2 31.675 13.05 30.825 14.075 30.825C15.1 30.825 15.95 31.675 15.95 32.7L15.925 44.425C15.925 46.775 17.875 49.475 20.1 50.225L28.075 52.875C29.075 53.2 30.925 53.2 31.925 52.875L39.9 50.225C42.125 49.475 44.075 46.775 44.075 44.45V32.85C44.075 31.825 44.925 30.975 45.95 30.975C46.975 30.975 47.825 31.825 47.825 32.85V44.45C47.825 48.425 44.875 52.525 41.1 53.8L33.125 56.45C32.225 56.725 31.1 56.875 30 56.875Z" fill="white"/>
<path d="M53.5 39.375C52.475 39.375 51.625 38.525 51.625 37.5V22.5C51.625 21.475 52.475 20.625 53.5 20.625C54.525 20.625 55.375 21.475 55.375 22.5V37.5C55.375 38.525 54.525 39.375 53.5 39.375Z" fill="white"/>
</svg>
