<svg width="60" height="60" viewBox="0 0 60 60" fill="none" xmlns="http://www.w3.org/2000/svg">
<path d="M55 56.875H5C3.975 56.875 3.125 56.025 3.125 55C3.125 53.975 3.975 53.125 5 53.125H55C56.025 53.125 56.875 53.975 56.875 55C56.875 56.025 56.025 56.875 55 56.875Z" fill="white"/>
<path d="M52.5 56.875H7.5C6.475 56.875 5.625 56.025 5.625 55V15C5.625 7.45 9.95 3.125 17.5 3.125H42.5C50.05 3.125 54.375 7.45 54.375 15V55C54.375 56.025 53.525 56.875 52.5 56.875ZM9.375 53.125H50.625V15C50.625 9.45 48.05 6.875 42.5 6.875H17.5C11.95 6.875 9.375 9.45 9.375 15V53.125Z" fill="white"/>
<path d="M37.5 56.875H22.5C21.475 56.875 20.625 56.025 20.625 55V39.85C20.625 37.525 22.525 35.625 24.85 35.625H35.175C37.5 35.625 39.4 37.525 39.4 39.85V55C39.375 56.025 38.525 56.875 37.5 56.875ZM24.375 53.125H35.625V39.85C35.625 39.6 35.425 39.375 35.15 39.375H24.825C24.575 39.375 24.35 39.575 24.35 39.85V53.125H24.375Z" fill="white"/>
<path d="M30 29.375C28.975 29.375 28.125 28.525 28.125 27.5V15C28.125 13.975 28.975 13.125 30 13.125C31.025 13.125 31.875 13.975 31.875 15V27.5C31.875 28.525 31.025 29.375 30 29.375Z" fill="white"/>
<path d="M36.25 23.125H23.75C22.725 23.125 21.875 22.275 21.875 21.25C21.875 20.225 22.725 19.375 23.75 19.375H36.25C37.275 19.375 38.125 20.225 38.125 21.25C38.125 22.275 37.275 23.125 36.25 23.125Z" fill="white"/>
</svg>
