<svg width="60" height="60" viewBox="0 0 60 60" fill="none" xmlns="http://www.w3.org/2000/svg">
<path d="M45.25 44.375H14.75C8.94999 44.375 5.625 41.05 5.625 35.25V5C5.625 3.975 6.475 3.125 7.5 3.125H52.5C53.525 3.125 54.375 3.975 54.375 5V35.25C54.375 41.05 51.05 44.375 45.25 44.375ZM9.375 6.875V35.25C9.375 38.975 11.025 40.625 14.75 40.625H45.225C48.95 40.625 50.6 38.975 50.6 35.25V6.875H9.375Z" fill="white"/>
<path d="M55 6.875H5C3.975 6.875 3.125 6.025 3.125 5C3.125 3.975 3.975 3.125 5 3.125H55C56.025 3.125 56.875 3.975 56.875 5C56.875 6.025 56.025 6.875 55 6.875Z" fill="white"/>
<path d="M20.0007 56.875C19.3007 56.875 18.6506 56.5 18.3256 55.85C17.8506 54.925 18.2257 53.8 19.1757 53.325L28.1257 48.85V42.5C28.1257 41.475 28.9757 40.625 30.0007 40.625C31.0257 40.625 31.8757 41.475 31.8757 42.5V50C31.8757 50.7 31.4756 51.35 30.8256 51.675L20.8256 56.675C20.5756 56.8 20.2757 56.875 20.0007 56.875Z" fill="white"/>
<path d="M39.9999 56.8749C39.7249 56.8749 39.4249 56.8 39.1749 56.675L29.1749 51.675C28.2499 51.2 27.8748 50.0749 28.3248 49.1499C28.7998 48.2249 29.9249 47.85 30.8499 48.3L40.8499 53.3C41.7749 53.775 42.1499 54.8999 41.6999 55.8249C41.3499 56.4999 40.6749 56.8749 39.9999 56.8749Z" fill="white"/>
<path d="M18.7498 29.3749C18.2248 29.3749 17.6748 29.15 17.2998 28.7C16.6248 27.9 16.7498 26.725 17.5498 26.05L25.4248 19.475C26.1498 18.875 27.0748 18.625 27.9498 18.775C28.8498 18.925 29.6248 19.4749 30.0998 20.2749L32.7248 24.6499L40.0498 18.55C40.8498 17.9 42.0248 17.9999 42.6998 18.7999C43.3748 19.5999 43.2498 20.7749 42.4498 21.4499L34.5748 28.0249C33.8498 28.6249 32.9248 28.8749 32.0498 28.7249C31.1498 28.5749 30.3748 28.025 29.8998 27.225L27.2748 22.85L19.9498 28.9499C19.5998 29.2249 19.1748 29.3749 18.7498 29.3749Z" fill="white"/>
</svg>
