<svg width="60" height="60" viewBox="0 0 60 60" fill="none" xmlns="http://www.w3.org/2000/svg">
<path d="M42.4998 51.875H17.4998C6.87481 51.875 3.3998 48.7 3.1498 38.8C3.1498 38.3 3.3248 37.8 3.6748 37.45C4.0248 37.1 4.4998 36.875 5.0248 36.875C8.7998 36.875 11.8748 33.775 11.8748 30C11.8748 26.225 8.7998 23.125 5.0248 23.125C4.5248 23.125 4.0498 22.925 3.6748 22.55C3.2998 22.175 3.1248 21.7 3.1498 21.2C3.3998 11.3 6.87481 8.125 17.4998 8.125H42.4998C53.5248 8.125 56.8748 11.475 56.8748 22.5V37.5C56.8748 48.525 53.5248 51.875 42.4998 51.875ZM6.9748 40.45C7.3998 46.8 9.54981 48.125 17.4998 48.125H42.4998C51.4498 48.125 53.1248 46.425 53.1248 37.5V22.5C53.1248 13.575 51.4498 11.875 42.4998 11.875H17.4998C9.54981 11.875 7.3998 13.225 6.9748 19.55C11.8998 20.5 15.6248 24.825 15.6248 30C15.6248 35.175 11.8998 39.5 6.9748 40.45Z" fill="white"/>
<path d="M22.5 20.625C21.475 20.625 20.625 19.775 20.625 18.75V10C20.625 8.975 21.475 8.125 22.5 8.125C23.525 8.125 24.375 8.975 24.375 10V18.75C24.375 19.775 23.525 20.625 22.5 20.625Z" fill="white"/>
<path d="M22.5 51.875C21.475 51.875 20.625 51.025 20.625 50V41.25C20.625 40.225 21.475 39.375 22.5 39.375C23.525 39.375 24.375 40.225 24.375 41.25V50C24.375 51.025 23.525 51.875 22.5 51.875Z" fill="white"/>
<path d="M32.5999 39.125C31.9999 39.125 31.3999 38.925 30.8999 38.575C29.9999 37.925 29.5499 36.825 29.7499 35.725L30.2749 32.75L28.0999 30.625C27.2999 29.85 27.0249 28.7 27.3499 27.65C27.6999 26.6 28.5999 25.825 29.6999 25.675L32.6999 25.225L34.0499 22.5C34.5499 21.5 35.5499 20.875 36.6499 20.875C37.7749 20.875 38.7749 21.5 39.2499 22.5L40.5999 25.225L43.5999 25.675C44.6999 25.825 45.5999 26.6 45.9499 27.65C46.2999 28.7 45.9999 29.85 45.1999 30.625L43.0249 32.75L43.5499 35.725C43.7499 36.825 43.2999 37.925 42.3999 38.575C41.4999 39.225 40.3249 39.3 39.3499 38.8L36.6749 37.4L33.9749 38.8C33.5499 39.025 33.0749 39.125 32.5999 39.125ZM31.9249 29.125L33.1999 30.375C33.8999 31.05 34.1999 32 34.0499 32.95L33.7499 34.7L35.3249 33.875C36.1749 33.425 37.1749 33.425 38.0249 33.875L39.5999 34.7L39.2999 32.95C39.1499 31.975 39.4499 31.025 40.1499 30.375L41.4249 29.125L39.6749 28.875C38.7249 28.725 37.8999 28.125 37.4749 27.275L36.6999 25.675L35.9249 27.275C35.4999 28.125 34.6749 28.725 33.7249 28.875L31.9249 29.125Z" fill="white"/>
</svg>
