<svg width="60" height="60" viewBox="0 0 60 60" fill="none" xmlns="http://www.w3.org/2000/svg">
<path d="M44.6752 54.6749C43.9002 54.6749 43.1252 54.4749 42.4252 54.0499L32.4002 48.0999C31.3502 48.0749 30.3002 47.9999 29.3002 47.8499C28.6252 47.7499 28.0502 47.2998 27.8002 46.6498C27.5502 45.9998 27.6752 45.2998 28.1252 44.7748C29.7752 42.8498 30.6252 40.5499 30.6252 38.0999C30.6252 32.0499 25.3002 27.1248 18.7502 27.1248C16.3002 27.1248 13.9502 27.7999 11.9752 29.0999C11.4252 29.4499 10.7502 29.4999 10.1502 29.2249C9.57518 28.9499 9.1502 28.3998 9.0752 27.7498C9.0002 27.0498 8.9502 26.3499 8.9502 25.6249C8.9502 13.2249 19.7002 3.1499 32.9002 3.1499C46.1002 3.1499 56.8502 13.2249 56.8502 25.6249C56.8502 32.4249 53.7002 38.6749 48.1502 42.9499L49.0002 49.7499C49.2002 51.4499 48.4502 53.0499 47.0252 53.9749C46.3252 54.4249 45.5002 54.6749 44.6752 54.6749ZM32.8752 44.3248C33.2252 44.2998 33.5752 44.3999 33.8752 44.5999L44.3502 50.8249C44.6252 50.9999 44.8502 50.9249 45.0002 50.8249C45.1252 50.7499 45.3252 50.5499 45.2752 50.1999L44.3002 42.2998C44.2252 41.5998 44.5252 40.9249 45.0752 40.5249C50.1752 36.9499 53.1002 31.4998 53.1002 25.5748C53.1002 15.2498 44.0502 6.84985 32.9002 6.84985C22.1752 6.84985 13.3752 14.65 12.7252 24.45C14.6002 23.725 16.6252 23.3249 18.7252 23.3249C27.3502 23.3249 34.3502 29.9248 34.3502 38.0498C34.3752 40.2498 33.8502 42.3748 32.8752 44.3248Z" fill="white"/>
<path d="M11.4494 56.875C10.7994 56.875 10.1744 56.7001 9.59942 56.3251C8.47442 55.6001 7.87444 54.3501 8.02444 53.0251L8.52444 49.175C5.14944 46.425 3.14941 42.35 3.14941 38.075C3.14941 33.2 5.69944 28.65 9.97444 25.925C12.5494 24.25 15.5994 23.3501 18.7744 23.3501C27.3994 23.3501 34.3994 29.95 34.3994 38.075C34.3994 41.375 33.1994 44.625 30.9994 47.2C28.1744 50.625 23.9494 52.625 19.2994 52.775L13.1994 56.4C12.6494 56.725 12.0494 56.875 11.4494 56.875ZM18.7494 27.1001C16.2994 27.1001 13.9494 27.775 11.9744 29.075C8.77441 31.125 6.87443 34.475 6.87443 38.075C6.87443 41.55 8.57444 44.7251 11.5744 46.7751C12.1494 47.1751 12.4494 47.85 12.3744 48.55L11.8244 52.825L17.7994 49.2751C18.0994 49.1001 18.4244 49 18.7494 49C22.4244 49 25.8994 47.4251 28.0994 44.7501C29.7494 42.8001 30.6244 40.5 30.6244 38.05C30.6244 32.025 25.2994 27.1001 18.7494 27.1001Z" fill="white"/>
</svg>
