<svg width="60" height="60" viewBox="0 0 60 60" fill="none" xmlns="http://www.w3.org/2000/svg">
<path d="M37.5 56.875H22.5C8.925 56.875 3.125 51.075 3.125 37.5V22.5C3.125 8.925 8.925 3.125 22.5 3.125H37.5C51.075 3.125 56.875 8.925 56.875 22.5V37.5C56.875 51.075 51.075 56.875 37.5 56.875ZM22.5 6.875C10.975 6.875 6.875 10.975 6.875 22.5V37.5C6.875 49.025 10.975 53.125 22.5 53.125H37.5C49.025 53.125 53.125 49.025 53.125 37.5V22.5C53.125 10.975 49.025 6.875 37.5 6.875H22.5Z" fill="white"/>
<path d="M32.6198 32.8354H19V28.8145H32.5182C33.6098 28.8145 34.5068 28.6343 35.2092 28.2739C35.92 27.9136 36.4446 27.4126 36.7831 26.771C37.1301 26.1294 37.2993 25.3779 37.2908 24.5166C37.2993 23.6729 37.1301 22.917 36.7831 22.249C36.4446 21.5723 35.9284 21.0405 35.2345 20.6538C34.5491 20.2583 33.6775 20.0605 32.6198 20.0605H27.5171V43H22.8206V16H32.6198C34.6337 16 36.3389 16.3779 37.7351 17.1338C39.1313 17.8809 40.1891 18.896 40.9084 20.1792C41.6361 21.4536 42 22.8862 42 24.477C42 26.1294 41.6319 27.584 40.8957 28.8408C40.1595 30.0889 39.0933 31.0688 37.697 31.7808C36.3008 32.4839 34.6084 32.8354 32.6198 32.8354ZM33.2163 34.8394V38.8604H19V34.8394H33.2163Z" fill="white"/>
</svg>
