<svg width="60" height="60" viewBox="0 0 60 60" fill="none" xmlns="http://www.w3.org/2000/svg">
<path d="M43 56.8749C38.15 56.8749 33.6 54.2999 31.125 50.1249C29.825 48.0249 29.125 45.525 29.125 43C29.125 35.35 35.35 29.125 43 29.125C50.65 29.125 56.875 35.35 56.875 43C56.875 45.55 56.175 48.025 54.85 50.175C52.4 54.3 47.85 56.8749 43 56.8749ZM43 32.875C37.425 32.875 32.875 37.425 32.875 43C32.875 44.85 33.375 46.65 34.325 48.2C36.175 51.3 39.4 53.1249 43 53.1249C46.6 53.1249 49.825 51.2999 51.65 48.2249C52.625 46.6499 53.125 44.85 53.125 43C53.125 37.425 48.575 32.875 43 32.875Z" fill="white"/>
<path d="M41.2748 47.825C40.7998 47.825 40.3248 47.6499 39.9498 47.2749L36.9998 44.3249C36.2748 43.5999 36.2748 42.3999 36.9998 41.6749C37.7248 40.9499 38.9248 40.9499 39.6498 41.6749L41.3248 43.35L46.3998 38.65C47.1748 37.95 48.3498 38 49.0498 38.75C49.7498 39.5 49.6998 40.7 48.9498 41.4L42.5498 47.2999C42.1998 47.6749 41.7248 47.825 41.2748 47.825Z" fill="white"/>
<path d="M30 54.1251C29.225 54.1251 28.45 54.0251 27.825 53.8001C21.425 51.6251 3.125 41.0251 3.125 21.7251C3.125 12.9751 10.2 5.875 18.9 5.875C23.05 5.875 27.075 7.55007 30 10.4751C32.925 7.55007 36.95 5.875 41.1 5.875C49.8 5.875 56.875 12.9751 56.875 21.7251C56.875 26.6001 55.7 31.2751 53.375 35.6501C53.1 36.1751 52.575 36.5501 51.975 36.6251C51.375 36.7001 50.775 36.5 50.35 36.05C48.4 34 45.8 32.8501 43 32.8501C37.425 32.8501 32.875 37.4001 32.875 42.9751C32.875 45.4501 33.8 47.8501 35.475 49.7251C35.875 50.1751 36.025 50.775 35.9 51.35C35.775 51.925 35.375 52.4251 34.85 52.6751C33.85 53.1251 32.95 53.5001 32.125 53.7751C31.525 54.0251 30.775 54.1251 30 54.1251ZM18.9 9.625C12.275 9.625 6.875 15.0501 6.875 21.7251C6.875 38.8251 23.3 48.275 29.05 50.25C29.525 50.425 30.475 50.4 30.925 50.25C31 50.225 31.075 50.2001 31.15 50.1751C29.825 48.0251 29.125 45.5501 29.125 43.0001C29.125 35.3501 35.35 29.1251 43 29.1251C45.9 29.1251 48.75 30.0501 51.1 31.7501C52.45 28.5501 53.125 25.2001 53.125 21.7251C53.125 15.0501 47.725 9.625 41.1 9.625C37.35 9.625 33.75 11.4251 31.5 14.4501C30.8 15.4001 29.2 15.4001 28.5 14.4501C26.25 11.4251 22.65 9.625 18.9 9.625Z" fill="white"/>
</svg>
