<svg width="60" height="60" viewBox="0 0 60 60" fill="none" xmlns="http://www.w3.org/2000/svg">
<path d="M30.0002 35.4251C24.6752 35.4251 20.3252 31.1001 20.3252 25.7501C20.3252 20.4001 24.6752 16.1001 30.0002 16.1001C35.3252 16.1001 39.6752 20.4251 39.6752 25.7751C39.6752 31.1251 35.3252 35.4251 30.0002 35.4251ZM30.0002 19.8501C26.7502 19.8501 24.0752 22.5001 24.0752 25.7751C24.0752 29.0501 26.7252 31.7001 30.0002 31.7001C33.2752 31.7001 35.9252 29.0501 35.9252 25.7751C35.9252 22.5001 33.2502 19.8501 30.0002 19.8501Z" fill="white"/>
<path d="M30.0002 56.9C26.3002 56.9 22.5752 55.5 19.6752 52.725C12.3002 45.625 4.1502 34.3 7.2252 20.825C10.0002 8.6 20.6752 3.125 30.0002 3.125C30.0002 3.125 30.0002 3.125 30.0252 3.125C39.3502 3.125 50.0252 8.6 52.8002 20.85C55.8502 34.325 47.7002 45.625 40.3252 52.725C37.4252 55.5 33.7002 56.9 30.0002 56.9ZM30.0002 6.875C22.7252 6.875 13.3752 10.75 10.9002 21.65C8.2002 33.425 15.6002 43.575 22.3002 50C26.6252 54.175 33.4002 54.175 37.7252 50C44.4002 43.575 51.8002 33.425 49.1502 21.65C46.6502 10.75 37.2752 6.875 30.0002 6.875Z" fill="white"/>
</svg>
