<svg width="60" height="60" viewBox="0 0 60 60" fill="none" xmlns="http://www.w3.org/2000/svg">
<path d="M40.9499 56.8751H8.09981C5.72481 56.8751 3.52483 55.7752 2.09983 53.8502C0.649829 51.9002 0.224851 49.4501 0.949851 47.1251L11.4748 13.3C12.4248 10.15 15.3249 8 18.6249 8H49.3748C52.3998 8 55.1249 9.80022 56.2749 12.6002C56.8999 14.0502 57.0248 15.7003 56.6498 17.3253L48.2249 51.15C47.4249 54.525 44.4249 56.8751 40.9499 56.8751ZM18.6498 11.775C17.0248 11.775 15.5498 12.8502 15.0748 14.4252L4.54986 48.2502C4.19986 49.4252 4.39983 50.6502 5.14983 51.6502C5.84983 52.6002 6.94984 53.1501 8.12484 53.1501H40.9749C42.6999 53.1501 44.1998 51.9751 44.5998 50.3001L53.0248 16.45C53.2248 15.625 53.1749 14.8001 52.8499 14.0751C52.2499 12.6501 50.9249 11.75 49.3999 11.75H18.6498V11.775Z" fill="white"/>
<path d="M51.95 56.8749H40C38.975 56.8749 38.125 56.0249 38.125 54.9999C38.125 53.9749 38.975 53.1249 40 53.1249H51.95C52.975 53.1249 53.925 52.7 54.625 51.95C55.325 51.2 55.675 50.2 55.6 49.175L53.125 15.125C53.05 14.1 53.825 13.1999 54.85 13.1249C55.875 13.0749 56.775 13.8248 56.85 14.8498L59.325 48.9001C59.475 50.9501 58.75 53 57.35 54.5C55.975 56.025 54 56.8749 51.95 56.8749Z" fill="white"/>
<path d="M24.1994 17.8248C24.0494 17.8248 23.8994 17.7997 23.7494 17.7747C22.7494 17.5247 22.1245 16.5246 22.3745 15.4996L24.9744 4.69977C25.2244 3.69977 26.2244 3.07465 27.2494 3.32465C28.2494 3.57465 28.8745 4.57474 28.6245 5.59974L26.0244 16.3999C25.8244 17.2499 25.0494 17.8248 24.1994 17.8248Z" fill="white"/>
<path d="M40.9486 17.8498C40.8236 17.8498 40.6736 17.8498 40.5486 17.7998C39.5486 17.5748 38.8987 16.5748 39.0987 15.5748L41.4486 4.72485C41.6736 3.69985 42.6736 3.07496 43.6736 3.27496C44.6736 3.47496 45.3236 4.49969 45.1236 5.49969L42.7736 16.3499C42.5986 17.2499 41.8236 17.8498 40.9486 17.8498Z" fill="white"/>
<path d="M39.2505 31.875H19.2505C18.2255 31.875 17.3755 31.025 17.3755 30C17.3755 28.975 18.2255 28.125 19.2505 28.125H39.2505C40.2755 28.125 41.1255 28.975 41.1255 30C41.1255 31.025 40.2755 31.875 39.2505 31.875Z" fill="white"/>
<path d="M36.7505 41.875H16.7505C15.7255 41.875 14.8755 41.025 14.8755 40C14.8755 38.975 15.7255 38.125 16.7505 38.125H36.7505C37.7755 38.125 38.6255 38.975 38.6255 40C38.6255 41.025 37.7755 41.875 36.7505 41.875Z" fill="white"/>
</svg>
