<svg width="60" height="60" viewBox="0 0 60 60" fill="none" xmlns="http://www.w3.org/2000/svg">
<path d="M32.5 36.875H5C3.975 36.875 3.125 36.025 3.125 35V19.05C3.125 18.25 3.62498 17.5499 4.34998 17.2749C5.09998 16.9999 5.92502 17.225 6.42502 17.825C7.95002 19.65 10.325 20.675 12.675 20.6C14.675 20.55 16.525 19.8 17.925 18.475C18.575 17.925 19.1 17.275 19.5 16.55C20.275 15.225 20.65 13.775 20.625 12.3C20.575 9.99996 19.5751 7.89997 17.8751 6.37497C17.2751 5.84997 17.075 5.02493 17.35 4.29993C17.625 3.57493 18.325 3.07495 19.1 3.07495H37.5C38.525 3.07495 39.375 3.92495 39.375 4.94995V29.95C39.375 33.8 36.3 36.875 32.5 36.875ZM6.875 33.125H32.5C34.225 33.125 35.625 31.725 35.625 30V6.875H22.975C23.85 8.5 24.325 10.325 24.375 12.225C24.425 14.4 23.875 16.55 22.775 18.425C22.175 19.5 21.35 20.525 20.45 21.275C18.45 23.175 15.7 24.3 12.775 24.375C10.7 24.45 8.65002 23.925 6.90002 22.975V33.125H6.875Z" fill="white"/>
<path d="M47.5 51.875H45C43.975 51.875 43.125 51.025 43.125 50C43.125 48.275 41.725 46.875 40 46.875C38.275 46.875 36.875 48.275 36.875 50C36.875 51.025 36.025 51.875 35 51.875H25C23.975 51.875 23.125 51.025 23.125 50C23.125 48.275 21.725 46.875 20 46.875C18.275 46.875 16.875 48.275 16.875 50C16.875 51.025 16.025 51.875 15 51.875H12.5C7.325 51.875 3.125 47.675 3.125 42.5V35C3.125 33.975 3.975 33.125 5 33.125H32.5C34.225 33.125 35.625 31.725 35.625 30V12.5C35.625 11.475 36.475 10.625 37.5 10.625H42.1001C44.5751 10.625 46.85 11.95 48.075 14.1L52.35 21.575C52.675 22.15 52.675 22.875 52.35 23.45C52.025 24.025 51.3999 24.375 50.7249 24.375H47.5C47.15 24.375 46.875 24.65 46.875 25V32.5C46.875 32.85 47.15 33.125 47.5 33.125H55C56.025 33.125 56.875 33.975 56.875 35V42.5C56.875 47.675 52.675 51.875 47.5 51.875ZM46.6251 48.125H47.5C50.6 48.125 53.125 45.6 53.125 42.5V36.875H47.5C45.1 36.875 43.125 34.9 43.125 32.5V25C43.125 22.6 45.075 20.625 47.5 20.625L44.825 15.95C44.275 14.975 43.2251 14.375 42.1001 14.375H39.375V30C39.375 33.8 36.3 36.875 32.5 36.875H6.875V42.5C6.875 45.6 9.4 48.125 12.5 48.125H13.3749C14.1999 45.25 16.85 43.125 20 43.125C23.15 43.125 25.8001 45.25 26.6251 48.125H33.4C34.225 45.25 36.875 43.125 40.025 43.125C43.175 43.125 45.8001 45.25 46.6251 48.125Z" fill="white"/>
<path d="M20 56.875C16.2 56.875 13.125 53.8 13.125 50C13.125 46.2 16.2 43.125 20 43.125C23.8 43.125 26.875 46.2 26.875 50C26.875 53.8 23.8 56.875 20 56.875ZM20 46.875C18.275 46.875 16.875 48.275 16.875 50C16.875 51.725 18.275 53.125 20 53.125C21.725 53.125 23.125 51.725 23.125 50C23.125 48.275 21.725 46.875 20 46.875Z" fill="white"/>
<path d="M40 56.875C36.2 56.875 33.125 53.8 33.125 50C33.125 46.2 36.2 43.125 40 43.125C43.8 43.125 46.875 46.2 46.875 50C46.875 53.8 43.8 56.875 40 56.875ZM40 46.875C38.275 46.875 36.875 48.275 36.875 50C36.875 51.725 38.275 53.125 40 53.125C41.725 53.125 43.125 51.725 43.125 50C43.125 48.275 41.725 46.875 40 46.875Z" fill="white"/>
<path d="M55 36.875H47.5C45.1 36.875 43.125 34.9 43.125 32.5V25C43.125 22.6 45.1 20.625 47.5 20.625H50.7249C51.3999 20.625 52.025 20.975 52.35 21.575L56.6251 29.075C56.7751 29.35 56.875 29.675 56.875 30V35C56.875 36.025 56.025 36.875 55 36.875ZM47.5 24.375C47.15 24.375 46.875 24.65 46.875 25V32.5C46.875 32.85 47.15 33.125 47.5 33.125H53.125V30.5L49.6249 24.375H47.5Z" fill="white"/>
<path d="M12.5 24.375C5.95 24.375 0.625 19.05 0.625 12.5C0.625 8.85 2.25007 5.47495 5.07507 3.22495C7.17507 1.54994 9.825 0.625 12.5 0.625C19.05 0.625 24.375 5.95 24.375 12.5C24.375 15.9 22.9 19.15 20.325 21.4C18.15 23.325 15.375 24.375 12.5 24.375ZM12.5 4.375C10.65 4.375 8.89993 4.99993 7.42493 6.17493C5.49993 7.69993 4.375 10.025 4.375 12.5C4.375 16.975 8.025 20.625 12.5 20.625C14.45 20.625 16.3501 19.9 17.8751 18.6C19.6251 17.05 20.625 14.85 20.625 12.5C20.625 8.025 16.975 4.375 12.5 4.375Z" fill="white"/>
<path d="M9.99974 16.875C9.37474 16.875 8.7497 16.55 8.3997 15.975C7.8747 15.075 8.14972 13.925 9.04972 13.4L11.2748 12.075V9.375C11.2748 8.35 12.1248 7.5 13.1498 7.5C14.1748 7.5 15.0248 8.35 15.0248 9.375V13.125C15.0248 13.775 14.6748 14.4 14.1248 14.725L10.9998 16.6C10.6498 16.8 10.3247 16.875 9.99974 16.875Z" fill="white"/>
</svg>
