<svg width="46" height="46" viewBox="0 0 46 46" fill="none" xmlns="http://www.w3.org/2000/svg">
<path d="M17.0777 39.6174C16.7136 39.6174 16.3494 39.4832 16.0619 39.1958C15.5061 38.6399 15.5061 37.7199 16.0619 37.1641L28.5586 24.6674C29.4786 23.7474 29.4786 22.2524 28.5586 21.3324L16.0619 8.83575C15.5061 8.27992 15.5061 7.35992 16.0619 6.80408C16.6177 6.24825 17.5377 6.24825 18.0936 6.80408L30.5902 19.3007C31.5677 20.2782 32.1236 21.6007 32.1236 22.9999C32.1236 24.3991 31.5869 25.7216 30.5902 26.6991L18.0936 39.1958C17.8061 39.4641 17.4419 39.6174 17.0777 39.6174Z" fill="white"/>
</svg>
