<svg width="133" height="49" viewBox="0 0 133 49" fill="none" xmlns="http://www.w3.org/2000/svg">
<path d="M42.6363 0H6.36378C2.84917 0 0 2.53751 0 5.66767V43.3325C0 46.4626 2.84917 49 6.36378 49H42.6363C46.1509 49 49.0001 46.4626 49.0001 43.3325V5.66767C49.0001 2.53751 46.1509 0 42.6363 0Z" fill="white"/>
<mask id="mask0_383_25" style="mask-type:luminance" maskUnits="userSpaceOnUse" x="2" y="8" width="45" height="33">
<path d="M46.2337 8.25885H2.7666V40.7414H46.2337V8.25885Z" fill="white"/>
</mask>
<g mask="url(#mask0_383_25)">
<path fill-rule="evenodd" clip-rule="evenodd" d="M24.5341 -11.6423L59.2245 70.9336H-10.1562L24.5341 -11.6423ZM-3.41693 66.4549H52.485L24.5341 -0.0788364L-3.41693 66.4549Z" fill="#070C3A"/>
<mask id="mask1_383_25" style="mask-type:luminance" maskUnits="userSpaceOnUse" x="4" y="13" width="41" height="37">
<path d="M44.2603 13.7433H4.57617V49.1205H44.2603V13.7433Z" fill="white"/>
</mask>
<g mask="url(#mask1_383_25)">
<path fill-rule="evenodd" clip-rule="evenodd" d="M24.5345 19.5248L11.3703 50.8602L7.24121 49.1256L22.4698 12.8758H26.599L41.8275 49.1256L37.6985 50.8602L24.5345 19.5248Z" fill="#070C3A"/>
</g>
</g>
<path d="M87.5284 7.9337C88.1328 7.2204 89.0386 6.83865 90.2295 6.83865C91.4324 6.83865 92.3434 7.23209 92.9499 7.95034C93.5518 8.66334 93.8312 9.67004 93.8312 10.856V11.4611H91.8335V10.7685C91.8335 10.0982 91.7049 9.59994 91.4565 9.27272C91.2154 8.9553 90.8401 8.77077 90.2732 8.77077C89.7063 8.77077 89.3305 8.95537 89.0896 9.27051C88.8414 9.59509 88.713 10.0878 88.713 10.7466C88.713 12.2731 89.7853 13.1454 91.0126 14.1436C91.0792 14.1977 91.1462 14.2522 91.2135 14.3072C92.5002 15.3586 93.8531 16.5681 93.8531 18.8176C93.8531 20.0043 93.5678 21.0114 92.9572 21.7243C92.3425 22.4419 91.4208 22.835 90.2076 22.835C88.9942 22.835 88.0777 22.4419 87.4683 21.7236C86.8634 21.0105 86.584 20.0036 86.584 18.8176V17.7532H88.5599V18.9051C88.5599 19.5726 88.6982 20.0704 88.9566 20.3982C89.2086 20.7179 89.5966 20.9029 90.1639 20.9029C90.7312 20.9029 91.1191 20.7179 91.3711 20.3982C91.6294 20.0704 91.7679 19.5726 91.7679 18.9051C91.7679 17.3916 90.7043 16.5254 89.4847 15.5319C89.4163 15.4762 89.3474 15.4202 89.2783 15.3635C87.9965 14.3146 86.6497 13.1052 86.6497 10.856C86.6497 9.64892 86.9286 8.64172 87.5284 7.9337Z" fill="white"/>
<path d="M107.649 6.83865C106.435 6.83865 105.519 7.23777 104.91 7.96152C104.305 8.67992 104.026 9.69193 104.026 10.8778V18.7957C104.026 19.9817 104.305 20.9936 104.91 21.7121C105.519 22.4358 106.435 22.835 107.649 22.835C108.874 22.835 109.796 22.4362 110.408 21.7124C111.016 20.9938 111.295 19.9817 111.295 18.7957V16.7033H109.297V18.8833C109.297 19.5522 109.164 20.0558 108.907 20.3889C108.658 20.713 108.271 20.9029 107.693 20.9029C107.128 20.9029 106.74 20.7137 106.487 20.3882C106.228 20.0547 106.089 19.5506 106.089 18.8833V10.7903C106.089 10.123 106.228 9.61891 106.487 9.28533C106.74 8.96001 107.128 8.77077 107.693 8.77077C108.271 8.77077 108.658 8.96058 108.907 9.28465C109.164 9.61772 109.297 10.1215 109.297 10.7903V12.4454H111.295V10.8778C111.295 9.69194 111.016 8.6797 110.408 7.96118C109.796 7.2374 108.874 6.83865 107.649 6.83865Z" fill="white"/>
<path fill-rule="evenodd" clip-rule="evenodd" d="M84.35 8.05795C83.7465 7.35977 82.8286 6.99167 81.5873 6.99167H78.0513V22.6817H80.1364V16.6449H81.4562C82.7016 16.6449 83.6511 16.319 84.2868 15.6479C84.9206 14.9786 85.2109 13.999 85.2109 12.7588V10.9215C85.2109 9.73817 84.9491 8.751 84.35 8.05795ZM82.7344 14.3157C82.4733 14.5929 82.0645 14.7346 81.4562 14.7346H80.1364V8.92379H81.5873C82.175 8.92379 82.5482 9.08728 82.782 9.37801C83.0235 9.67789 83.1476 10.1501 83.1476 10.834V12.8682C83.1476 13.58 82.9981 14.0359 82.7344 14.3157Z" fill="white"/>
<path fill-rule="evenodd" clip-rule="evenodd" d="M75.514 15.6479C74.8782 16.319 73.9286 16.6449 72.6832 16.6449H71.3636V22.6817H69.2783V6.99167H72.8144C74.0556 6.99167 74.9736 7.35977 75.5771 8.05795C76.1761 8.751 76.438 9.73817 76.438 10.9215V12.7588C76.438 13.999 76.1479 14.9786 75.514 15.6479ZM74.0093 9.37801C73.7753 9.08728 73.402 8.92379 72.8144 8.92379H71.3636V14.7346H72.6832C73.2917 14.7346 73.7003 14.5929 73.9615 14.3157C74.2251 14.0359 74.3747 13.58 74.3747 12.8682V10.834C74.3747 10.1501 74.2505 9.67789 74.0093 9.37801Z" fill="white"/>
<path fill-rule="evenodd" clip-rule="evenodd" d="M67.7096 22.6817L64.706 6.99167H61.9209L58.9175 22.6817H60.8783L61.469 19.5976H65.0268L65.6175 22.6817H67.7096ZM61.76 17.7531L63.2174 10.1061L64.7127 17.7531H61.76Z" fill="white"/>
<path d="M102.298 6.99167H95.6191V22.6817H102.298V20.7496H97.7043V15.6825H101.445V13.7722H97.7043V8.92379H102.298V6.99167Z" fill="white"/>
<path d="M60.0987 27.2707C60.7029 26.5573 61.609 26.1757 62.7998 26.1757C64.0027 26.1757 64.9137 26.569 65.5202 27.2872C66.1221 28.0003 66.4015 29.0069 66.4015 30.193V30.7981H64.4036V30.1054C64.4036 29.4351 64.2752 28.9369 64.0267 28.6097C63.7858 28.2922 63.4104 28.1077 62.8435 28.1077C62.2766 28.1077 61.9008 28.2922 61.6598 28.6074C61.4116 28.932 61.2833 29.4248 61.2833 30.0835C61.2833 31.6101 62.3556 32.4824 63.5829 33.4806C63.6493 33.5346 63.7163 33.5892 63.7836 33.6441C65.0705 34.6956 66.4234 35.9049 66.4234 38.1545C66.4234 39.3413 66.1381 40.3482 65.5275 41.0612C64.9126 41.7789 63.9911 42.1718 62.7779 42.1718C61.5645 42.1718 60.648 41.7789 60.0387 41.0604C59.4336 40.3473 59.1543 39.3404 59.1543 38.1545V37.09H61.1302V38.2421C61.1302 38.9096 61.2686 39.4074 61.5269 39.7351C61.779 40.0547 62.1668 40.2397 62.734 40.2397C63.3015 40.2397 63.6893 40.0547 63.9414 39.7351C64.1997 39.4074 64.3381 38.9096 64.3381 38.2421C64.3381 36.7285 63.2745 35.8623 62.0549 34.8688C61.9865 34.8132 61.9177 34.7571 61.8484 34.7004C60.5668 33.6515 59.2199 32.4422 59.2199 30.193C59.2199 28.9858 59.4989 27.9787 60.0987 27.2707Z" fill="white"/>
<path fill-rule="evenodd" clip-rule="evenodd" d="M71.7468 26.1757C70.5338 26.1757 69.6018 26.5685 68.9763 27.288C68.3545 28.0032 68.0576 29.0158 68.0576 30.2148V38.1327C68.0576 39.321 68.3547 40.3333 68.9761 41.051C69.6013 41.773 70.5329 42.1718 71.7468 42.1718C72.9712 42.1718 73.9083 41.7734 74.5365 41.0514C75.161 40.3335 75.458 39.321 75.458 38.1327V30.2148C75.458 29.0158 75.1611 28.003 74.5361 27.2876C73.9078 26.5681 72.9703 26.1757 71.7468 26.1757ZM70.1209 30.1272C70.1209 29.4614 70.2643 28.9574 70.5284 28.6236C70.7867 28.2972 71.181 28.1077 71.7468 28.1077C72.3245 28.1077 72.7178 28.2977 72.973 28.6228C73.2343 28.9563 73.3727 29.4598 73.3727 30.1272V38.2203C73.3727 38.8991 73.2339 39.4022 72.9733 39.7321C72.7191 40.054 72.3261 40.2397 71.7468 40.2397C71.1794 40.2397 70.7855 40.0547 70.5281 39.7316C70.2644 39.401 70.1209 38.8977 70.1209 38.2203V30.1272Z" fill="white"/>
<path fill-rule="evenodd" clip-rule="evenodd" d="M107.929 27.288C108.554 26.5685 109.486 26.1757 110.699 26.1757C111.923 26.1757 112.86 26.5681 113.489 27.2876C114.114 28.003 114.41 29.0158 114.41 30.2148V38.1327C114.41 39.321 114.114 40.3335 113.489 41.0514C112.861 41.7734 111.924 42.1718 110.699 42.1718C109.486 42.1718 108.554 41.773 107.929 41.051C107.307 40.3333 107.01 39.321 107.01 38.1327V30.2148C107.01 29.0158 107.307 28.0032 107.929 27.288ZM109.481 28.6236C109.217 28.9574 109.074 29.4614 109.074 30.1272V38.2203C109.074 38.8977 109.217 39.401 109.481 39.7316C109.738 40.0547 110.132 40.2397 110.699 40.2397C111.279 40.2397 111.672 40.054 111.926 39.7321C112.187 39.4022 112.325 38.8991 112.325 38.2203V30.1272C112.325 29.4598 112.187 28.9563 111.925 28.6228C111.67 28.2977 111.277 28.1077 110.699 28.1077C110.134 28.1077 109.739 28.2972 109.481 28.6236Z" fill="white"/>
<path d="M129.31 26.1757C128.119 26.1757 127.213 26.5573 126.609 27.2707C126.009 27.9787 125.73 28.9858 125.73 30.193C125.73 32.4422 127.077 33.6515 128.359 34.7004C128.428 34.7571 128.497 34.8132 128.565 34.8688C129.785 35.8623 130.848 36.7285 130.848 38.2421C130.848 38.9096 130.71 39.4074 130.452 39.7351C130.2 40.0547 129.812 40.2397 129.244 40.2397C128.677 40.2397 128.289 40.0547 128.037 39.7351C127.779 39.4074 127.64 38.9096 127.64 38.2421V37.09H125.665V38.1545C125.665 39.3404 125.944 40.3473 126.549 41.0604C127.158 41.7789 128.075 42.1718 129.288 42.1718C130.501 42.1718 131.423 41.7789 132.038 41.0612C132.648 40.3482 132.934 39.3413 132.934 38.1545C132.934 35.9049 131.581 34.6956 130.294 33.6441C130.227 33.5892 130.16 33.5348 130.093 33.4808L130.093 33.4806C128.866 32.4824 127.793 31.6101 127.793 30.0835C127.793 29.4248 127.922 28.932 128.17 28.6074C128.411 28.2922 128.787 28.1077 129.354 28.1077C129.921 28.1077 130.296 28.2922 130.537 28.6097C130.785 28.9369 130.914 29.4351 130.914 30.1054V30.7981H132.912V30.193C132.912 29.0069 132.632 28.0003 132.03 27.2872C131.424 26.569 130.513 26.1757 129.31 26.1757Z" fill="white"/>
<path d="M121.986 36.372L118.77 26.3286H116.277V42.0187H118.187V30.6772L121.774 42.0187H123.874V26.3286H121.986V36.372Z" fill="white"/>
<path d="M87.7599 39.7257C87.5035 39.3928 87.3699 38.889 87.3699 38.2201V26.3286H85.3066V38.1327C85.3066 39.3176 85.58 40.3347 86.1786 41.0585C86.7817 41.7883 87.6931 42.1937 88.9084 42.1937C90.1339 42.1937 91.0507 41.7888 91.6571 41.0588C92.2584 40.3349 92.5318 39.3176 92.5318 38.1327V26.3286H90.556V38.2201C90.556 38.8888 90.4226 39.3931 90.1683 39.7264C89.9212 40.0506 89.5393 40.2397 88.974 40.2397C88.3966 40.2397 88.0093 40.0499 87.7599 39.7257Z" fill="white"/>
<path d="M105.11 26.3286H103.025V42.0187H105.11V26.3286Z" fill="white"/>
<path d="M93.874 26.3286H101.581V28.2608H98.759V42.0187H96.6957V28.2608H93.874V26.3286Z" fill="white"/>
<path d="M77.3467 26.3286H79.432V40.0865H83.8066V42.0187H77.3467V26.3286Z" fill="white"/>
</svg>
