<svg width="103" height="20" viewBox="0 0 103 20" fill="none" xmlns="http://www.w3.org/2000/svg">
<path d="M10.6522 3.05176e-05H11.6318C12.8113 0.0956016 14.0764 0.166021 15.0862 0.850094C15.6608 1.22483 15.9538 1.99064 15.7086 2.64077C15.3854 3.53736 14.4398 4.28934 13.4527 4.10952C12.8956 3.95359 12.4303 3.59143 11.989 3.23304C11.2709 2.64579 10.578 2.00322 9.72546 1.61088C9.05648 1.2789 8.27055 1.29776 7.55629 1.45243C6.28245 1.75675 5.27645 2.72376 4.63136 3.82784C3.83536 5.22617 3.42165 6.84331 3.45938 8.45165C3.45686 10.3945 4.00261 12.3574 5.10795 13.9645C6.2246 15.5892 7.95114 16.8127 9.89146 17.2139C11.2659 17.527 12.7535 17.4528 14.0449 16.8656C14.6171 16.6141 15.1515 16.2833 15.6596 15.9212C15.9299 16.0796 16.2053 16.228 16.4933 16.3512C15.2018 17.815 13.5281 18.9631 11.6507 19.5289C9.68018 20.1187 7.49969 20.0847 5.58579 19.3026C3.4971 18.4626 1.81458 16.7461 0.901622 14.7027C0.345811 13.5131 0.0829938 12.2078 0 10.9013V10.0235C0.0855112 8.80753 0.334492 7.5953 0.833717 6.47865C1.70642 4.47169 3.25062 2.78538 5.12302 1.66246C6.78543 0.645152 8.71064 0.10063 10.6522 3.05176e-05Z" fill="white"/>
<path d="M31.0991 0H31.1105C31.2702 0.0553313 31.4261 0.114432 31.5845 0.171019C31.4638 1.21977 31.367 2.27229 31.2412 3.32104C33.047 2.00822 34.9446 0.674017 37.164 0.189884C37.5878 0.0905428 38.0204 0.0477856 38.4517 3.21918e-06H39.2376C40.0638 0.0704229 40.9088 0.193656 41.6495 0.588509C42.526 1.01605 43.2113 1.78061 43.5999 2.66715C44.167 3.92087 44.2626 5.32171 44.2726 6.67854C44.2726 9.38969 44.2739 12.0996 44.2726 14.8107C44.2676 15.3766 44.2802 15.945 44.3343 16.5084C44.4084 16.9686 44.4663 17.4641 44.7694 17.8388C45.0498 18.2035 45.4861 18.4047 45.9187 18.5229C46.4821 18.675 47.0555 18.792 47.6352 18.8511C47.6465 19.0686 47.649 19.2862 47.649 19.5037H37.5765C37.5828 19.2899 37.5476 19.0674 37.6041 18.8574C38.468 18.7077 39.4061 18.6159 40.138 18.0878C40.8309 17.542 40.8661 16.5888 40.9302 15.7815C40.9717 13.8752 40.9453 11.9663 40.9528 10.0587C40.9415 8.7685 41.0044 7.46825 40.7743 6.1919C40.5982 5.22112 40.2562 4.23021 39.5382 3.52224C38.59 2.53008 37.1426 2.222 35.816 2.25846C35.1294 2.23206 34.4403 2.33894 33.7914 2.56403C32.9212 2.88092 32.1529 3.42542 31.4776 4.05039C31.3821 4.11955 31.4236 4.24656 31.4122 4.34465C31.4198 8.12719 31.4085 11.9097 31.4173 15.6935C31.4588 16.3311 31.4726 16.995 31.748 17.5835C31.9831 18.0714 32.4887 18.3556 32.9891 18.5028C33.5751 18.6675 34.175 18.7882 34.7811 18.8536C34.7836 19.0699 34.7836 19.2874 34.7836 19.5037C31.4286 19.5037 28.0711 19.5037 24.7148 19.505C24.7224 19.2874 24.7236 19.0699 24.7287 18.8523C25.3323 18.787 25.9308 18.6612 26.5131 18.4826C27.0601 18.3091 27.5832 17.9558 27.7944 17.4012C28.1277 16.4656 28.0573 15.4571 28.0975 14.4813V5.87375C28.0862 5.30411 28.0925 4.71183 27.8385 4.18745C27.4373 3.3902 26.6828 2.85577 25.9849 2.33516C25.9837 2.19055 25.9824 2.0472 25.9799 1.90384C27.6838 1.26252 29.3965 0.645092 31.0991 0Z" fill="white"/>
<path d="M55.57 3.21918e-06H56.4515C56.9947 0.0578487 57.5405 0.113177 58.0674 0.260303C59.4871 0.616174 60.776 1.49894 61.5707 2.73254C62.2699 3.79638 62.5943 5.0677 62.6547 6.33023C58.4886 6.32394 54.3225 6.334 50.1577 6.3252C50.0659 7.02814 50.0282 7.73862 49.9817 8.44659C49.7918 10.4686 50.3438 12.5662 51.5598 14.2009C52.6388 15.6784 54.2924 16.7184 56.0918 17.0466C57.2751 17.2541 58.5251 17.2465 59.6644 16.8303C60.8917 16.3977 61.8901 15.4886 62.6547 14.4562C62.8735 14.6146 63.0923 14.7743 63.3086 14.939C62.1643 16.868 60.4528 18.5003 58.3566 19.3453C55.5524 20.4896 52.1647 19.9237 49.822 18.0249C48.5544 17.0202 47.5962 15.6508 47.0102 14.1481C46.3551 12.5045 46.179 10.6912 46.3928 8.94203C46.7135 6.04099 48.2476 3.23425 50.6897 1.59073C52.1207 0.601083 53.8422 0.0968331 55.57 3.21918e-06ZM53.9642 1.02109C52.7507 1.25498 51.7875 2.17295 51.1776 3.20787C50.7664 3.93093 50.413 4.71183 50.2936 5.53926C51.2442 5.4374 52.2012 5.48016 53.1531 5.4022C54.9601 5.3368 56.7659 5.26136 58.5716 5.17208C58.2799 3.90452 57.7769 2.6093 56.7722 1.73534C56.0177 1.06887 54.9463 0.797253 53.9642 1.02109Z" fill="white"/>
<path d="M96.6105 1.60959e-05H97.3449C98.8941 0.100616 100.47 0.521875 101.742 1.4323C101.791 2.70488 101.819 3.98124 101.887 5.25383C101.569 5.32047 101.247 5.37203 100.929 5.43868C100.536 4.15226 100.06 2.81177 99.0639 1.8611C98.0063 0.852594 96.1742 0.725588 95.0475 1.68505C94.3382 2.29745 94.0226 3.2695 94.0792 4.18872C94.0716 5.17082 94.6815 6.0322 95.4046 6.64461C96.608 7.64809 98.0617 8.27306 99.4034 9.06402C100.491 9.70534 101.586 10.4347 102.293 11.5086C102.901 12.4215 103.103 13.5646 102.952 14.6435C102.815 15.9073 102.177 17.0931 101.243 17.9482C99.8586 19.2359 97.9586 19.8684 96.0899 19.9325C94.1534 19.9791 92.1728 19.4836 90.5821 18.3519C90.4802 17.2126 90.4312 16.0695 90.3231 14.9302C90.2677 14.4763 90.3029 14.0135 90.2124 13.5621C90.5532 13.4916 90.8952 13.4124 91.2448 13.3961C91.5453 14.8963 92.1728 16.3751 93.2316 17.5005C94.0339 18.3317 95.1757 18.8398 96.3377 18.8159C97.2041 18.8385 98.0831 18.5116 98.7005 17.8992C99.9039 16.7033 100.028 14.5693 98.9268 13.2678C98.3006 12.502 97.4317 11.9864 96.5703 11.5249C95.2072 10.788 93.7434 10.1895 92.5513 9.17719C91.7566 8.52078 91.1392 7.62922 90.899 6.61945C90.6374 5.48268 90.7028 4.24153 91.2222 3.18397C91.7088 2.17169 92.5614 1.37067 93.5447 0.845036C94.4854 0.331978 95.5454 0.079237 96.6105 1.60959e-05Z" fill="white"/>
<path d="M60.621 0.422529C63.6578 0.42756 66.6959 0.42756 69.734 0.422529C69.7303 0.63756 69.7303 0.852592 69.7328 1.06762C69.1669 1.10409 68.5809 1.12673 68.0503 1.35182C67.707 1.47379 67.4052 1.74164 67.3109 2.10254C67.2392 2.51374 67.297 2.93877 67.4291 3.33237C67.7195 4.23525 68.093 5.10795 68.4325 5.99197C69.6221 9.04516 70.8331 12.0883 72.0114 15.1453C73.3644 12.0078 74.6785 8.85025 76.0177 5.70652C76.1083 5.51035 75.9737 5.31544 75.9134 5.1331C75.4896 4.12837 75.2004 3.04189 74.5465 2.15285C73.9932 1.40086 73.0123 1.21979 72.1497 1.06763C72.1522 0.852599 72.1522 0.638826 72.1535 0.423794C75.2268 0.423794 78.3026 0.433854 81.3772 0.418762C81.3772 0.633794 81.3772 0.850081 81.3784 1.06637C80.7145 1.11667 80.0304 1.16194 79.418 1.44991C79.0244 1.63853 78.7125 2.03967 78.7339 2.49111C78.7515 3.08717 78.9955 3.64675 79.1992 4.19753C80.5623 7.84802 81.9606 11.4847 83.3087 15.139C83.8695 13.9909 84.3637 12.8114 84.8881 11.6457C85.7583 9.65002 86.6159 7.64557 87.3452 5.59334C87.637 4.70806 87.9413 3.81776 88.0633 2.89099C88.1425 2.39302 87.9966 1.8196 87.5615 1.52535C86.9982 1.1657 86.3103 1.1657 85.6728 1.07013C85.6753 0.853844 85.674 0.638816 85.6728 0.422525C88.1022 0.431327 90.5317 0.420011 92.9612 0.427557C92.9587 0.638816 92.9587 0.850075 92.9599 1.06133C92.2281 1.13678 91.4811 1.33169 90.9014 1.80703C90.001 2.52254 89.5458 3.61153 89.0692 4.62381C86.7693 9.72925 84.4957 14.8472 82.1907 19.9489C82.0072 19.9439 81.8248 19.9464 81.6425 19.959H81.6073C79.8971 15.5804 78.1756 11.2055 76.4717 6.82443C74.6496 11.1942 72.869 15.5829 71.0607 19.959H71.028C70.8268 19.9439 70.6256 19.9414 70.4244 19.9439C68.269 14.597 66.1187 9.24887 63.9521 3.9058C63.6339 3.16639 63.307 2.39178 62.6983 1.83848C62.135 1.31914 61.3629 1.12045 60.6172 1.06261C60.621 0.848832 60.621 0.636302 60.621 0.422529Z" fill="white"/>
<path d="M15.7614 5.87126C16.6102 5.17461 17.6502 4.69802 18.7505 4.59993C20.3462 4.42389 22.0049 5.02245 23.1303 6.16551C24.125 7.16522 24.7072 8.56607 24.6871 9.9795C24.6997 11.1968 24.2671 12.4102 23.5013 13.3546C22.6877 14.3707 21.4931 15.0799 20.2079 15.2874C18.9341 15.4987 17.581 15.2635 16.482 14.5769C15.0924 13.7382 14.1204 12.2405 13.9443 10.6271C13.7406 9.12694 14.2323 7.57017 15.2144 6.42584C14.9189 6.8974 14.7529 7.44944 14.8284 8.00903C14.9327 8.98358 15.7577 9.82736 16.7284 9.95563C17.8765 10.1556 19.0573 9.31305 19.2648 8.17376C19.3566 7.6607 19.2925 7.10866 19.0297 6.65219C18.6348 5.92159 17.8111 5.43745 16.9762 5.48901C16.5386 5.48272 16.1374 5.67006 15.7614 5.87126Z" fill="white"/>
</svg>
