<svg width="13" height="14" viewBox="0 0 13 14" fill="none" xmlns="http://www.w3.org/2000/svg">
<mask id="mask0_167_857" style="mask-type:luminance" maskUnits="userSpaceOnUse" x="0" y="1" width="13" height="12">
<path d="M9.59091 1H3.40909C1.80244 1 0.5 2.30244 0.5 3.90909V10.0909C0.5 11.6976 1.80244 13 3.40909 13H9.59091C11.1976 13 12.5 11.6976 12.5 10.0909V3.90909C12.5 2.30244 11.1976 1 9.59091 1Z" fill="white"/>
</mask>
<g mask="url(#mask0_167_857)">
<path d="M7.91251 6.72605H4.36728V5.32315H7.91251C8.11959 5.32315 8.26358 5.35925 8.33584 5.42228C8.40811 5.48532 8.45287 5.60223 8.45287 5.77301V6.27674C8.45287 6.45667 8.40811 6.57358 8.33584 6.63662C8.26358 6.69965 8.11959 6.72659 7.91251 6.72659V6.72605ZM8.15572 4.00054H2.86377V10H4.36728V8.04813H7.13811L8.45287 10H10.1365L8.68692 8.03897C9.22134 7.95977 9.46132 7.79599 9.65922 7.52608C9.85713 7.25617 9.95641 6.82464 9.95641 6.24872V5.79887C9.95641 5.4573 9.92022 5.18739 9.85713 4.98052C9.79404 4.77364 9.68622 4.5937 9.53304 4.43207C9.37126 4.27907 9.19114 4.17132 8.97489 4.09913C8.75863 4.0361 8.48846 4 8.15572 4V4.00054Z" fill="#070C3A"/>
<path d="M18.5 1C18.5 4.31371 15.8137 7.00001 12.5 7.00001C11.8263 7.00001 11.1785 6.88896 10.574 6.68419C10.5869 6.54161 10.5926 6.39583 10.5926 6.24872V5.79887C10.5926 5.41691 10.5527 5.08022 10.4657 4.79487C10.3718 4.48716 10.2109 4.22235 9.99482 3.99436L9.98282 3.98171L9.97018 3.96973C9.74 3.75201 9.47904 3.59659 9.17626 3.49551L9.16462 3.49163L9.15284 3.48819C8.86463 3.40418 8.53189 3.36364 8.15559 3.36364H7.51923V3.36417H6.98374C6.6724 2.6387 6.5 1.83949 6.5 1C6.5 -2.31371 9.18629 -5 12.5 -5C15.8137 -5 18.5 -2.31371 18.5 1Z" fill="#070C3A"/>
</g>
<path d="M9.63846 1H3.36154C1.78115 1 0.5 2.28115 0.5 3.86154V10.1385C0.5 11.7188 1.78115 13 3.36154 13H9.63846C11.2188 13 12.5 11.7188 12.5 10.1385V3.86154C12.5 2.28115 11.2188 1 9.63846 1Z" fill="transparent" stroke="#070C3A" stroke-width="0.7"/>
</svg>
