<svg width="14" height="12" viewBox="0 0 14 12" fill="none" xmlns="http://www.w3.org/2000/svg">
<path fill-rule="evenodd" clip-rule="evenodd" d="M1.17457 4.8231C4.79797 3.2499 7.20997 2.2041 8.42047 1.6974C11.8675 0.2583 12.5929 0.0099 13.0582 0C13.1617 0 13.3894 0.0207003 13.5442 0.144C13.6693 0.2484 13.7008 0.3825 13.7215 0.486C13.7422 0.5895 13.7629 0.8073 13.7422 0.972C13.555 2.9394 12.7477 7.7121 12.3337 9.9063C12.1582 10.8378 11.8162 11.1483 11.485 11.1798C10.7605 11.2419 10.2115 10.7028 9.51847 10.2483C8.42047 9.5337 7.81027 9.0882 6.74377 8.3853C5.51167 7.5771 6.30907 7.1316 7.01377 6.4071C7.19917 6.2208 10.3771 3.3228 10.4392 3.0636C10.45 3.033 10.45 2.9088 10.3771 2.8467C10.3051 2.7837 10.2016 2.8053 10.1188 2.826C10.0045 2.8467 8.26477 4.005 4.88077 6.2937C4.38397 6.6357 3.93847 6.8004 3.53437 6.7905C3.08977 6.7797 2.24107 6.5421 1.59937 6.3351C0.822665 6.0867 0.201665 5.9517 0.252965 5.517C0.284465 5.2893 0.594965 5.0616 1.17457 4.824V4.8231Z" fill="#070C3A"/>
</svg>
