<svg width="389" height="326" viewBox="0 0 389 326" fill="none" xmlns="http://www.w3.org/2000/svg">
<mask id="mask0_167_388" style="mask-type:luminance" maskUnits="userSpaceOnUse" x="0" y="0" width="460" height="326">
<path d="M0.676239 325.053L459.7 325.053L459.7 0.676147L0.676239 0.676147L0.676239 325.053Z" fill="white"/>
</mask>
<g mask="url(#mask0_167_388)">
<mask id="mask1_167_388" style="mask-type:luminance" maskUnits="userSpaceOnUse" x="13" y="-105" width="434" height="426">
<path d="M13.4276 320.406L446.95 320.406L446.95 -104.309L13.4276 -104.309L13.4276 320.406Z" fill="white"/>
</mask>
<g mask="url(#mask1_167_388)">
<path d="M370.625 317.791C370.625 317.099 370.901 316.435 371.393 315.946C371.884 315.455 372.552 315.18 373.247 315.18C373.942 315.18 374.61 315.455 375.101 315.946C375.593 316.435 375.869 317.099 375.869 317.791C375.869 318.484 375.593 319.149 375.101 319.638C374.61 320.127 373.942 320.402 373.247 320.402C372.552 320.402 371.884 320.127 371.393 319.638C370.901 319.149 370.625 318.484 370.625 317.791Z" fill="#4A8EFF"/>
<path d="M349.567 315.18C348.119 315.18 346.944 316.35 346.944 317.791C346.944 319.233 348.119 320.402 349.567 320.402C351.015 320.402 352.189 319.233 352.189 317.791C352.189 316.35 351.015 315.18 349.567 315.18Z" fill="#4A8EFF"/>
<path d="M323.264 317.792C323.264 317.276 323.418 316.77 323.706 316.342C323.994 315.912 324.403 315.577 324.883 315.38C325.362 315.182 325.889 315.131 326.398 315.232C326.906 315.332 327.374 315.58 327.74 315.946C328.108 316.311 328.356 316.776 328.457 317.283C328.56 317.789 328.507 318.314 328.308 318.791C328.11 319.268 327.774 319.676 327.343 319.963C326.912 320.249 326.405 320.403 325.886 320.403C325.191 320.403 324.523 320.128 324.031 319.638C323.541 319.149 323.264 318.484 323.264 317.792Z" fill="#0151DA"/>
<path d="M302.158 315.18C300.71 315.18 299.536 316.35 299.536 317.791C299.536 319.233 300.71 320.402 302.158 320.402C303.605 320.402 304.78 319.233 304.78 317.791C304.78 316.35 303.605 315.18 302.158 315.18Z" fill="#4A8EFF"/>
<path d="M275.859 317.791C275.859 317.099 276.136 316.435 276.628 315.946C277.119 315.455 277.786 315.18 278.482 315.18C279.177 315.18 279.843 315.455 280.335 315.946C280.827 316.435 281.104 317.099 281.104 317.791C281.104 318.484 280.827 319.149 280.335 319.638C279.843 320.127 279.177 320.402 278.482 320.402C277.786 320.402 277.119 320.127 276.628 319.638C276.136 319.149 275.859 318.484 275.859 317.791Z" fill="#4A8EFF"/>
<path d="M254.805 315.18C253.357 315.18 252.183 316.35 252.183 317.791C252.183 319.233 253.357 320.402 254.805 320.402C256.254 320.402 257.427 319.233 257.427 317.791C257.427 316.35 256.254 315.18 254.805 315.18Z" fill="#4A8EFF"/>
<path d="M231.069 315.18C229.622 315.18 228.447 316.35 228.447 317.791C228.447 319.233 229.622 320.402 231.069 320.402C232.517 320.402 233.691 319.233 233.691 317.791C233.691 316.35 232.517 315.18 231.069 315.18Z" fill="#4A8EFF"/>
<path d="M370.621 291.721C370.621 291.204 370.776 290.699 371.063 290.269C371.351 289.841 371.761 289.506 372.24 289.309C372.719 289.111 373.246 289.059 373.755 289.159C374.263 289.26 374.73 289.509 375.098 289.874C375.464 290.239 375.715 290.705 375.816 291.211C375.917 291.718 375.864 292.243 375.666 292.72C375.467 293.197 375.131 293.605 374.7 293.891C374.269 294.178 373.762 294.332 373.243 294.332C372.548 294.332 371.882 294.057 371.39 293.568C370.898 293.077 370.621 292.413 370.621 291.721Z" fill="#0151DA"/>
<path d="M349.567 289.054C348.119 289.054 346.944 290.224 346.944 291.665C346.944 293.107 348.119 294.276 349.567 294.276C351.015 294.276 352.189 293.107 352.189 291.665C352.189 290.224 351.015 289.054 349.567 289.054Z" fill="#4A8EFF"/>
<path d="M323.264 291.718C323.264 291.375 323.332 291.037 323.463 290.72C323.596 290.402 323.788 290.115 324.031 289.873C324.276 289.63 324.565 289.437 324.883 289.306C325.201 289.175 325.542 289.108 325.886 289.108C326.23 289.108 326.572 289.175 326.89 289.306C327.208 289.437 327.497 289.63 327.74 289.873C327.983 290.115 328.177 290.402 328.308 290.72C328.441 291.037 328.508 291.375 328.508 291.718C328.508 292.411 328.232 293.075 327.74 293.565C327.248 294.054 326.582 294.329 325.886 294.329C325.191 294.329 324.523 294.054 324.031 293.565C323.541 293.075 323.264 292.411 323.264 291.718Z" fill="#4A8EFF"/>
<path d="M302.158 289.054C300.71 289.054 299.536 290.224 299.536 291.665C299.536 293.107 300.71 294.276 302.158 294.276C303.605 294.276 304.78 293.107 304.78 291.665C304.78 290.224 303.605 289.054 302.158 289.054Z" fill="#4A8EFF"/>
<path d="M275.859 291.718C275.859 291.203 276.013 290.698 276.302 290.268C276.589 289.838 276.998 289.504 277.478 289.306C277.958 289.109 278.484 289.057 278.993 289.158C279.502 289.259 279.969 289.508 280.335 289.873C280.703 290.238 280.952 290.704 281.053 291.21C281.155 291.715 281.102 292.241 280.903 292.718C280.706 293.195 280.37 293.602 279.938 293.89C279.507 294.177 279 294.329 278.482 294.329C277.786 294.329 277.119 294.054 276.628 293.565C276.136 293.076 275.859 292.411 275.859 291.718Z" fill="#4A8EFF"/>
<path d="M254.805 289.054C253.357 289.054 252.183 290.224 252.183 291.665C252.183 293.107 253.357 294.276 254.805 294.276C256.254 294.276 257.427 293.107 257.427 291.665C257.427 290.224 256.254 289.054 254.805 289.054Z" fill="#4A8EFF"/>
<path d="M231.069 289.054C229.622 289.054 228.447 290.224 228.447 291.665C228.447 293.107 229.622 294.276 231.069 294.276C232.517 294.276 233.691 293.107 233.691 291.665C233.691 290.224 232.517 289.054 231.069 289.054Z" fill="#4A8EFF"/>
<path d="M370.625 265.591C370.625 264.898 370.901 264.235 371.393 263.744C371.884 263.255 372.552 262.979 373.247 262.979C373.942 262.979 374.61 263.255 375.101 263.744C375.593 264.235 375.869 264.898 375.869 265.591C375.869 266.283 375.593 266.948 375.101 267.437C374.61 267.927 373.942 268.202 373.247 268.202C372.552 268.202 371.884 267.927 371.393 267.437C370.901 266.948 370.625 266.283 370.625 265.591Z" fill="#4A8EFF"/>
<path d="M349.567 262.979C348.119 262.979 346.944 264.149 346.944 265.591C346.944 267.032 348.119 268.202 349.567 268.202C351.015 268.202 352.189 267.032 352.189 265.591C352.189 264.149 351.015 262.979 349.567 262.979Z" fill="#4A8EFF"/>
<path d="M323.268 265.59C323.268 265.073 323.421 264.569 323.709 264.14C323.998 263.71 324.407 263.376 324.887 263.178C325.365 262.981 325.893 262.929 326.402 263.029C326.91 263.13 327.377 263.379 327.744 263.744C328.11 264.11 328.36 264.574 328.461 265.082C328.562 265.588 328.511 266.113 328.312 266.59C328.114 267.067 327.777 267.474 327.346 267.762C326.916 268.048 326.409 268.201 325.89 268.201C325.545 268.201 325.205 268.134 324.887 268.002C324.569 267.871 324.278 267.679 324.035 267.437C323.792 267.194 323.598 266.906 323.467 266.59C323.336 266.273 323.268 265.933 323.268 265.59Z" fill="#4A8EFF"/>
<path d="M302.158 262.979C300.71 262.979 299.536 264.149 299.536 265.591C299.536 267.032 300.71 268.202 302.158 268.202C303.605 268.202 304.78 267.032 304.78 265.591C304.78 264.149 303.605 262.979 302.158 262.979Z" fill="#070C3A"/>
<path d="M275.859 265.591C275.859 264.898 276.136 264.235 276.628 263.744C277.119 263.255 277.786 262.979 278.482 262.979C279.177 262.979 279.843 263.255 280.335 263.744C280.827 264.235 281.104 264.898 281.104 265.591C281.104 266.283 280.827 266.948 280.335 267.437C279.843 267.927 279.177 268.202 278.482 268.202C277.786 268.202 277.119 267.927 276.628 267.437C276.136 266.948 275.859 266.283 275.859 265.591Z" fill="#4A8EFF"/>
<path d="M254.805 262.979C253.357 262.979 252.183 264.149 252.183 265.591C252.183 267.032 253.357 268.202 254.805 268.202C256.254 268.202 257.427 267.032 257.427 265.591C257.427 264.149 256.254 262.979 254.805 262.979Z" fill="#4A8EFF"/>
<path d="M231.069 262.979C229.622 262.979 228.447 264.149 228.447 265.591C228.447 267.032 229.622 268.202 231.069 268.202C232.517 268.202 233.691 267.032 233.691 265.591C233.691 264.149 232.517 262.979 231.069 262.979Z" fill="#4A8EFF"/>
<path d="M370.625 239.511C370.625 238.994 370.778 238.49 371.067 238.06C371.355 237.631 371.764 237.297 372.244 237.099C372.723 236.902 373.25 236.849 373.759 236.95C374.267 237.051 374.734 237.3 375.101 237.665C375.468 238.03 375.717 238.495 375.818 239.001C375.92 239.509 375.868 240.034 375.669 240.511C375.471 240.988 375.135 241.395 374.704 241.681C374.273 241.969 373.765 242.122 373.247 242.122C372.552 242.122 371.884 241.847 371.393 241.358C370.901 240.867 370.625 240.204 370.625 239.511Z" fill="#4A8EFF"/>
<path d="M349.57 236.849C348.122 236.849 346.948 238.017 346.948 239.46C346.948 240.902 348.122 242.07 349.57 242.07C351.019 242.07 352.193 240.902 352.193 239.46C352.193 238.017 351.019 236.849 349.57 236.849Z" fill="#4A8EFF"/>
<path d="M323.271 239.511C323.271 239.169 323.339 238.829 323.472 238.512C323.603 238.196 323.797 237.908 324.04 237.665C324.283 237.423 324.572 237.231 324.89 237.099C325.208 236.968 325.549 236.9 325.894 236.9C326.238 236.9 326.579 236.968 326.897 237.099C327.215 237.231 327.504 237.423 327.749 237.665C327.992 237.908 328.184 238.196 328.317 238.512C328.448 238.829 328.516 239.169 328.516 239.511C328.516 240.204 328.239 240.867 327.749 241.358C327.256 241.847 326.589 242.123 325.894 242.123C325.198 242.123 324.532 241.847 324.04 241.358C323.548 240.867 323.271 240.204 323.271 239.511Z" fill="#4A8EFF"/>
<path d="M302.158 236.849C300.71 236.849 299.536 238.017 299.536 239.46C299.536 240.902 300.71 242.07 302.158 242.07C303.605 242.07 304.78 240.902 304.78 239.46C304.78 238.017 303.605 236.849 302.158 236.849Z" fill="#4A8EFF"/>
<path d="M275.859 239.511C275.859 238.994 276.013 238.49 276.302 238.06C276.589 237.631 276.998 237.297 277.478 237.099C277.958 236.902 278.484 236.849 278.993 236.95C279.502 237.051 279.969 237.3 280.335 237.665C280.703 238.03 280.952 238.495 281.053 239.001C281.155 239.509 281.102 240.034 280.905 240.511C280.706 240.988 280.37 241.395 279.938 241.681C279.507 241.969 279 242.122 278.482 242.122C277.786 242.122 277.119 241.847 276.628 241.358C276.136 240.867 275.859 240.204 275.859 239.511Z" fill="#4A8EFF"/>
<path d="M254.805 236.849C253.357 236.849 252.183 238.017 252.183 239.46C252.183 240.902 253.357 242.07 254.805 242.07C256.254 242.07 257.427 240.902 257.427 239.46C257.427 238.017 256.254 236.849 254.805 236.849Z" fill="#4A8EFF"/>
<path d="M231.069 236.849C229.622 236.849 228.447 238.017 228.447 239.46C228.447 240.902 229.622 242.07 231.069 242.07C232.517 242.07 233.691 240.902 233.691 239.46C233.691 238.017 232.517 236.849 231.069 236.849Z" fill="#4A8EFF"/>
<path d="M370.621 213.383C370.621 212.69 370.898 212.027 371.39 211.536C371.882 211.047 372.548 210.771 373.243 210.771C373.938 210.771 374.606 211.047 375.098 211.536C375.589 212.027 375.865 212.69 375.865 213.383C375.865 214.075 375.589 214.74 375.098 215.229C374.606 215.719 373.938 215.994 373.243 215.994C372.548 215.994 371.882 215.719 371.39 215.229C370.898 214.74 370.621 214.075 370.621 213.383Z" fill="#4A8EFF"/>
<path d="M349.567 210.771C348.119 210.771 346.944 211.941 346.944 213.383C346.944 214.824 348.119 215.994 349.567 215.994C351.015 215.994 352.189 214.824 352.189 213.383C352.189 211.941 351.015 210.771 349.567 210.771Z" fill="#4A8EFF"/>
<path d="M323.268 213.382C323.268 212.865 323.421 212.361 323.709 211.932C323.998 211.502 324.407 211.168 324.887 210.97C325.365 210.773 325.893 210.721 326.402 210.821C326.91 210.922 327.377 211.171 327.744 211.536C328.11 211.902 328.36 212.366 328.461 212.874C328.562 213.379 328.511 213.905 328.312 214.382C328.114 214.859 327.777 215.266 327.346 215.554C326.916 215.84 326.409 215.993 325.89 215.993C325.545 215.993 325.205 215.926 324.887 215.794C324.569 215.663 324.278 215.471 324.035 215.229C323.792 214.986 323.598 214.698 323.467 214.382C323.336 214.065 323.268 213.725 323.268 213.382Z" fill="#4A8EFF"/>
<path d="M302.158 210.771C300.71 210.771 299.536 211.941 299.536 213.383C299.536 214.824 300.71 215.994 302.158 215.994C303.605 215.994 304.78 214.824 304.78 213.383C304.78 211.941 303.605 210.771 302.158 210.771Z" fill="#4A8EFF"/>
<path d="M275.859 213.383C275.859 212.69 276.136 212.027 276.628 211.536C277.119 211.047 277.786 210.771 278.482 210.771C279.177 210.771 279.844 211.047 280.335 211.536C280.827 212.027 281.104 212.69 281.104 213.383C281.104 214.075 280.827 214.74 280.335 215.229C279.844 215.719 279.177 215.994 278.482 215.994C277.786 215.994 277.119 215.719 276.628 215.229C276.136 214.74 275.859 214.075 275.859 213.383Z" fill="#4A8EFF"/>
<path d="M254.805 210.771C253.357 210.771 252.183 211.941 252.183 213.383C252.183 214.824 253.357 215.994 254.805 215.994C256.254 215.994 257.427 214.824 257.427 213.383C257.427 211.941 256.254 210.771 254.805 210.771Z" fill="#4A8EFF"/>
<path d="M231.073 210.771C229.626 210.771 228.451 211.941 228.451 213.383C228.451 214.824 229.626 215.994 231.073 215.994C232.522 215.994 233.695 214.824 233.695 213.383C233.695 211.941 232.522 210.771 231.073 210.771Z" fill="#4A8EFF"/>
<path d="M370.625 187.309C370.625 186.792 370.778 186.288 371.067 185.858C371.355 185.429 371.764 185.093 372.244 184.896C372.723 184.698 373.25 184.647 373.759 184.748C374.267 184.849 374.734 185.097 375.101 185.462C375.468 185.827 375.717 186.293 375.818 186.799C375.92 187.305 375.868 187.83 375.669 188.307C375.471 188.785 375.135 189.193 374.704 189.479C374.273 189.767 373.765 189.919 373.247 189.919C372.552 189.919 371.884 189.644 371.393 189.154C370.901 188.665 370.625 188.002 370.625 187.309Z" fill="#4A8EFF"/>
<path d="M349.567 184.641C348.119 184.641 346.944 185.811 346.944 187.252C346.944 188.694 348.119 189.863 349.567 189.863C351.015 189.863 352.189 188.694 352.189 187.252C352.189 185.811 351.015 184.641 349.567 184.641Z" fill="#4A8EFF"/>
<path d="M323.268 187.309C323.268 186.966 323.336 186.626 323.467 186.309C323.598 185.993 323.792 185.704 324.035 185.462C324.278 185.22 324.567 185.027 324.887 184.897C325.205 184.766 325.545 184.698 325.89 184.698C326.234 184.698 326.574 184.766 326.892 184.897C327.212 185.027 327.501 185.22 327.744 185.462C327.987 185.704 328.181 185.993 328.312 186.309C328.443 186.626 328.512 186.966 328.512 187.309C328.512 188.001 328.236 188.665 327.744 189.154C327.252 189.643 326.585 189.919 325.89 189.919C325.194 189.919 324.527 189.643 324.035 189.154C323.543 188.665 323.268 188.001 323.268 187.309Z" fill="#4A8EFF"/>
<path d="M302.158 184.644C300.71 184.644 299.536 185.812 299.536 187.253C299.536 188.696 300.71 189.864 302.158 189.864C303.605 189.864 304.78 188.696 304.78 187.253C304.78 185.812 303.605 184.644 302.158 184.644Z" fill="#4A8EFF"/>
<path d="M275.859 187.309C275.859 186.792 276.013 186.288 276.302 185.858C276.589 185.429 276.998 185.093 277.478 184.896C277.958 184.698 278.484 184.647 278.993 184.748C279.502 184.849 279.969 185.097 280.335 185.462C280.703 185.827 280.952 186.293 281.053 186.799C281.155 187.305 281.102 187.83 280.905 188.307C280.706 188.785 280.37 189.193 279.938 189.479C279.507 189.767 279 189.919 278.482 189.919C277.786 189.919 277.119 189.644 276.628 189.154C276.136 188.665 275.859 188.002 275.859 187.309Z" fill="#070C3A"/>
<path d="M254.805 184.641C253.357 184.641 252.183 185.811 252.183 187.252C252.183 188.694 253.357 189.863 254.805 189.863C256.254 189.863 257.427 188.694 257.427 187.252C257.427 185.811 256.254 184.641 254.805 184.641Z" fill="#4A8EFF"/>
<path d="M231.069 184.644C229.622 184.644 228.447 185.812 228.447 187.253C228.447 188.696 229.622 189.864 231.069 189.864C232.517 189.864 233.691 188.696 233.691 187.253C233.691 185.812 232.517 184.644 231.069 184.644Z" fill="#4A8EFF"/>
<path d="M370.625 161.229C370.625 160.712 370.778 160.207 371.067 159.777C371.355 159.349 371.764 159.014 372.244 158.817C372.723 158.619 373.25 158.566 373.759 158.667C374.267 158.768 374.734 159.017 375.101 159.382C375.468 159.747 375.717 160.213 375.818 160.719C375.92 161.226 375.868 161.751 375.669 162.228C375.471 162.705 375.135 163.113 374.704 163.399C374.273 163.686 373.765 163.84 373.247 163.84C372.555 163.829 371.894 163.551 371.405 163.063C370.915 162.576 370.635 161.918 370.625 161.229Z" fill="#070C3A"/>
<path d="M349.567 158.564C348.119 158.564 346.944 159.734 346.944 161.176C346.944 162.617 348.119 163.787 349.567 163.787C351.015 163.787 352.189 162.617 352.189 161.176C352.189 159.734 351.015 158.564 349.567 158.564Z" fill="#070C3A"/>
<path d="M323.268 161.229C323.268 160.712 323.421 160.207 323.709 159.777C323.998 159.349 324.407 159.014 324.887 158.817C325.365 158.619 325.893 158.566 326.402 158.667C326.91 158.768 327.377 159.017 327.744 159.382C328.11 159.747 328.36 160.213 328.461 160.719C328.562 161.226 328.511 161.751 328.312 162.228C328.114 162.705 327.777 163.113 327.346 163.399C326.914 163.686 326.409 163.84 325.89 163.84C325.194 163.84 324.527 163.565 324.035 163.075C323.543 162.585 323.268 161.921 323.268 161.229Z" fill="#4A8EFF"/>
<path d="M302.158 158.564C300.71 158.564 299.536 159.734 299.536 161.176C299.536 162.617 300.71 163.787 302.158 163.787C303.605 163.787 304.78 162.617 304.78 161.176C304.78 159.734 303.605 158.564 302.158 158.564Z" fill="#4A8EFF"/>
<path d="M275.859 161.229C275.859 160.712 276.013 160.207 276.302 159.777C276.589 159.349 276.998 159.014 277.478 158.817C277.958 158.619 278.484 158.566 278.993 158.667C279.502 158.768 279.969 159.017 280.335 159.382C280.703 159.747 280.952 160.213 281.053 160.719C281.155 161.226 281.102 161.751 280.905 162.228C280.706 162.705 280.37 163.113 279.938 163.399C279.507 163.686 279 163.84 278.482 163.84C277.789 163.829 277.128 163.551 276.639 163.063C276.15 162.576 275.869 161.918 275.859 161.229Z" fill="#4A8EFF"/>
<path d="M254.805 158.564C253.357 158.564 252.183 159.734 252.183 161.176C252.183 162.617 253.357 163.787 254.805 163.787C256.254 163.787 257.427 162.617 257.427 161.176C257.427 159.734 256.254 158.564 254.805 158.564Z" fill="#4A8EFF"/>
<path d="M231.077 158.564C229.629 158.564 228.455 159.734 228.455 161.176C228.455 162.617 229.629 163.787 231.077 163.787C232.526 163.787 233.699 162.617 233.699 161.176C233.699 159.734 232.526 158.564 231.077 158.564Z" fill="#4A8EFF"/>
<path d="M370.621 135.047C370.621 134.355 370.898 133.691 371.39 133.202C371.882 132.713 372.548 132.438 373.243 132.438C373.938 132.438 374.606 132.713 375.098 133.202C375.589 133.691 375.865 134.355 375.865 135.047C375.865 135.74 375.589 136.405 375.098 136.894C374.606 137.383 373.938 137.658 373.243 137.658C372.548 137.658 371.882 137.383 371.39 136.894C370.898 136.405 370.621 135.74 370.621 135.047Z" fill="#4A8EFF"/>
<path d="M349.567 132.438C348.119 132.438 346.944 133.606 346.944 135.047C346.944 136.49 348.119 137.658 349.567 137.658C351.015 137.658 352.189 136.49 352.189 135.047C352.189 133.606 351.015 132.438 349.567 132.438Z" fill="#4A8EFF"/>
<path d="M323.268 135.047C323.268 134.531 323.421 134.027 323.709 133.597C323.998 133.167 324.407 132.833 324.887 132.635C325.365 132.437 325.893 132.386 326.402 132.487C326.91 132.588 327.377 132.837 327.744 133.202C328.11 133.566 328.36 134.032 328.461 134.538C328.562 135.044 328.511 135.569 328.312 136.046C328.114 136.525 327.777 136.932 327.346 137.218C326.916 137.506 326.409 137.658 325.89 137.658C325.194 137.658 324.527 137.383 324.035 136.894C323.543 136.404 323.268 135.739 323.268 135.047Z" fill="#4A8EFF"/>
<path d="M302.158 132.438C300.71 132.438 299.536 133.606 299.536 135.047C299.536 136.49 300.71 137.658 302.158 137.658C303.605 137.658 304.78 136.49 304.78 135.047C304.78 133.606 303.605 132.438 302.158 132.438Z" fill="#4A8EFF"/>
<path d="M275.859 135.047C275.859 134.355 276.136 133.691 276.628 133.202C277.119 132.713 277.786 132.438 278.482 132.438C279.177 132.438 279.844 132.713 280.335 133.202C280.827 133.691 281.104 134.355 281.104 135.047C281.104 135.74 280.827 136.405 280.335 136.894C279.844 137.383 279.177 137.658 278.482 137.658C277.786 137.658 277.119 137.383 276.628 136.894C276.136 136.405 275.859 135.74 275.859 135.047Z" fill="#4A8EFF"/>
<path d="M254.805 132.438C253.357 132.438 252.183 133.606 252.183 135.047C252.183 136.49 253.357 137.658 254.805 137.658C256.254 137.658 257.427 136.49 257.427 135.047C257.427 133.606 256.254 132.438 254.805 132.438Z" fill="#4A8EFF"/>
<path d="M231.073 132.438C229.625 132.438 228.451 133.606 228.451 135.047C228.451 136.49 229.625 137.658 231.073 137.658C232.522 137.658 233.695 136.49 233.695 135.047C233.695 133.606 232.522 132.438 231.073 132.438Z" fill="#4A8EFF"/>
<path d="M207.452 315.18C206.003 315.18 204.83 316.35 204.83 317.791C204.83 319.233 206.003 320.402 207.452 320.402C208.9 320.402 210.074 319.233 210.074 317.791C210.074 316.35 208.9 315.18 207.452 315.18Z" fill="#0151DA"/>
<path d="M183.719 315.18C182.272 315.18 181.097 316.35 181.097 317.791C181.097 319.233 182.272 320.402 183.719 320.402C185.168 320.402 186.341 319.233 186.341 317.791C186.341 316.35 185.168 315.18 183.719 315.18Z" fill="#4E75CB"/>
<path d="M160.043 315.18C158.595 315.18 157.42 316.35 157.42 317.791C157.42 319.233 158.595 320.402 160.043 320.402C161.491 320.402 162.665 319.233 162.665 317.791C162.665 316.35 161.491 315.18 160.043 315.18Z" fill="#4A8EFF"/>
<path d="M136.363 315.18C134.915 315.18 133.741 316.35 133.741 317.791C133.741 319.233 134.915 320.402 136.363 320.402C137.812 320.402 138.986 319.233 138.986 317.791C138.986 316.35 137.812 315.18 136.363 315.18Z" fill="#4A8EFF"/>
<path d="M112.69 315.18C111.242 315.18 110.068 316.35 110.068 317.791C110.068 319.233 111.242 320.402 112.69 320.402C114.138 320.402 115.313 319.233 115.313 317.791C115.313 316.35 114.138 315.18 112.69 315.18Z" fill="#4A8EFF"/>
<path d="M88.9586 315.18C87.51 315.18 86.3364 316.35 86.3364 317.791C86.3364 319.233 87.51 320.402 88.9586 320.402C90.4072 320.402 91.5807 319.233 91.5807 317.791C91.5807 316.35 90.4072 315.18 88.9586 315.18Z" fill="#4A8EFF"/>
<path d="M62.6602 317.791C62.6602 317.099 62.9366 316.435 63.4287 315.946C63.9208 315.455 64.587 315.18 65.2823 315.18C65.9776 315.18 66.6452 315.455 67.1373 315.946C67.628 316.435 67.9044 317.099 67.9044 317.791C67.9044 318.484 67.628 319.149 67.1373 319.638C66.6452 320.127 65.9776 320.402 65.2823 320.402C64.587 320.402 63.9208 320.127 63.4287 319.638C62.9366 319.149 62.6602 318.484 62.6602 317.791Z" fill="#4A8EFF"/>
<path d="M41.6021 315.18C40.1535 315.18 38.98 316.35 38.98 317.791C38.98 319.233 40.1535 320.402 41.6021 320.402C43.0494 320.402 44.2243 319.233 44.2243 317.791C44.2243 316.35 43.0494 315.18 41.6021 315.18Z" fill="#070C3A"/>
<path d="M15.2993 317.792C15.2993 317.276 15.4527 316.77 15.7416 316.342C16.0291 315.912 16.4383 315.577 16.9179 315.38C17.3976 315.182 17.9242 315.131 18.4329 315.232C18.9416 315.332 19.4087 315.58 19.775 315.946C20.1427 316.311 20.3916 316.776 20.4938 317.283C20.5948 317.789 20.5422 318.314 20.3446 318.791C20.1455 319.268 19.8096 319.676 19.3784 319.963C18.9471 320.249 18.4398 320.403 17.9215 320.403C17.2262 320.403 16.5586 320.128 16.0679 319.638C15.5758 319.149 15.2993 318.484 15.2993 317.792Z" fill="#4A8EFF"/>
<path d="M207.447 289.054C206 289.054 204.825 290.224 204.825 291.665C204.825 293.107 206 294.276 207.447 294.276C208.896 294.276 210.07 293.107 210.07 291.665C210.07 290.224 208.896 289.054 207.447 289.054Z" fill="#070C3A"/>
<path d="M183.716 289.054C182.268 289.054 181.094 290.224 181.094 291.665C181.094 293.107 182.268 294.276 183.716 294.276C185.164 294.276 186.339 293.107 186.339 291.665C186.339 290.224 185.164 289.054 183.716 289.054Z" fill="#4A8EFF"/>
<path d="M160.043 289.054C158.595 289.054 157.42 290.224 157.42 291.665C157.42 293.107 158.595 294.276 160.043 294.276C161.491 294.276 162.665 293.107 162.665 291.665C162.665 290.224 161.491 289.054 160.043 289.054Z" fill="#4A8EFF"/>
<path d="M136.363 289.054C134.915 289.054 133.741 290.224 133.741 291.665C133.741 293.107 134.915 294.276 136.363 294.276C137.812 294.276 138.986 293.107 138.986 291.665C138.986 290.224 137.812 289.054 136.363 289.054Z" fill="#4A8EFF"/>
<path d="M112.69 289.054C111.242 289.054 110.068 290.224 110.068 291.665C110.068 293.107 111.242 294.276 112.69 294.276C114.138 294.276 115.313 293.107 115.313 291.665C115.313 290.224 114.138 289.054 112.69 289.054Z" fill="#4A8EFF"/>
<path d="M88.9586 289.054C87.51 289.054 86.3364 290.224 86.3364 291.665C86.3364 293.107 87.51 294.276 88.9586 294.276C90.4072 294.276 91.5807 293.107 91.5807 291.665C91.5807 290.224 90.4072 289.054 88.9586 289.054Z" fill="#4A8EFF"/>
<path d="M62.6602 291.721C62.6602 291.204 62.8136 290.699 63.1024 290.269C63.39 289.841 63.8005 289.506 64.2788 289.309C64.7584 289.111 65.2851 289.059 65.7937 289.159C66.3024 289.26 66.7696 289.509 67.1373 289.874C67.5036 290.239 67.7524 290.705 67.8547 291.211C67.9556 291.718 67.9031 292.243 67.7054 292.72C67.5064 293.197 67.1705 293.605 66.7392 293.891C66.3079 294.178 65.8007 294.332 65.2823 294.332C64.587 294.332 63.9208 294.057 63.4287 293.568C62.9366 293.077 62.6602 292.413 62.6602 291.721Z" fill="#4A8EFF"/>
<path d="M41.6021 289.054C40.1535 289.054 38.98 290.224 38.98 291.665C38.98 293.107 40.1535 294.276 41.6021 294.276C43.0494 294.276 44.2243 293.107 44.2243 291.665C44.2243 290.224 43.0494 289.054 41.6021 289.054Z" fill="#4A8EFF"/>
<path d="M15.2993 291.718C15.2993 291.026 15.5758 290.362 16.0665 289.873C16.5585 289.383 17.2262 289.108 17.9215 289.108C18.6167 289.108 19.283 289.383 19.775 289.873C20.2671 290.362 20.5436 291.026 20.5436 291.718C20.5436 292.411 20.2671 293.075 19.775 293.565C19.283 294.054 18.6167 294.329 17.9215 294.329C17.2262 294.329 16.5585 294.054 16.0665 293.565C15.5758 293.075 15.2993 292.411 15.2993 291.718Z" fill="#4A8EFF"/>
<path d="M207.447 262.979C206 262.979 204.825 264.149 204.825 265.591C204.825 267.032 206 268.202 207.447 268.202C208.896 268.202 210.07 267.032 210.07 265.591C210.07 264.149 208.896 262.979 207.447 262.979Z" fill="#4A8EFF"/>
<path d="M183.716 262.979C182.268 262.979 181.094 264.149 181.094 265.591C181.094 267.032 182.268 268.202 183.716 268.202C185.164 268.202 186.339 267.032 186.339 265.591C186.339 264.149 185.164 262.979 183.716 262.979Z" fill="#0151DA"/>
<path d="M160.043 262.979C158.595 262.979 157.42 264.149 157.42 265.591C157.42 267.032 158.595 268.202 160.043 268.202C161.491 268.202 162.665 267.032 162.665 265.591C162.665 264.149 161.491 262.979 160.043 262.979Z" fill="#4A8EFF"/>
<path d="M136.363 262.979C134.915 262.979 133.741 264.149 133.741 265.591C133.741 267.032 134.915 268.202 136.363 268.202C137.812 268.202 138.986 267.032 138.986 265.591C138.986 264.149 137.812 262.979 136.363 262.979Z" fill="#4A8EFF"/>
<path d="M112.69 262.979C111.242 262.979 110.068 264.149 110.068 265.591C110.068 267.032 111.242 268.202 112.69 268.202C114.138 268.202 115.313 267.032 115.313 265.591C115.313 264.149 114.138 262.979 112.69 262.979Z" fill="#4A8EFF"/>
<path d="M88.9586 262.979C87.51 262.979 86.3364 264.149 86.3364 265.591C86.3364 267.032 87.51 268.202 88.9586 268.202C90.4072 268.202 91.5807 267.032 91.5807 265.591C91.5807 264.149 90.4072 262.979 88.9586 262.979Z" fill="#070C3A"/>
<path d="M62.6602 265.591C62.6602 264.898 62.9366 264.235 63.4287 263.744C63.9208 263.255 64.587 262.979 65.2823 262.979C65.9776 262.979 66.6452 263.255 67.1373 263.744C67.628 264.235 67.9044 264.898 67.9044 265.591C67.9044 266.283 67.628 266.948 67.1373 267.437C66.6452 267.927 65.9776 268.202 65.2823 268.202C64.587 268.202 63.9208 267.927 63.4287 267.437C62.9366 266.948 62.6602 266.283 62.6602 265.591Z" fill="#4A8EFF"/>
<path d="M41.6021 262.979C40.1535 262.979 38.98 264.149 38.98 265.591C38.98 267.032 40.1535 268.202 41.6021 268.202C43.0494 268.202 44.2243 267.032 44.2243 265.591C44.2243 264.149 43.0494 262.979 41.6021 262.979Z" fill="#0151DA"/>
<path d="M15.2993 265.59C15.2993 265.073 15.4527 264.569 15.7416 264.14C16.0291 263.71 16.4383 263.376 16.9179 263.178C17.3976 262.981 17.9242 262.929 18.4329 263.029C18.9416 263.13 19.4087 263.379 19.775 263.744C20.1427 264.11 20.3916 264.574 20.4938 265.082C20.5948 265.588 20.5422 266.113 20.3446 266.59C20.1455 267.067 19.8096 267.474 19.3784 267.762C18.9471 268.048 18.4398 268.201 17.9215 268.201C17.5773 268.201 17.2359 268.134 16.9179 268.002C16.6 267.871 16.3111 267.679 16.0679 267.437C15.8246 267.194 15.631 266.906 15.4983 266.59C15.367 266.273 15.2993 265.933 15.2993 265.59Z" fill="#4A8EFF"/>
<path d="M207.447 236.849C206 236.849 204.825 238.017 204.825 239.46C204.825 240.902 206 242.07 207.447 242.07C208.896 242.07 210.07 240.902 210.07 239.46C210.07 238.017 208.896 236.849 207.447 236.849Z" fill="#4A8EFF"/>
<path d="M183.716 236.849C182.268 236.849 181.094 238.017 181.094 239.46C181.094 240.902 182.268 242.07 183.716 242.07C185.164 242.07 186.339 240.902 186.339 239.46C186.339 238.017 185.164 236.849 183.716 236.849Z" fill="#4A8EFF"/>
<path d="M160.043 236.849C158.595 236.849 157.42 238.017 157.42 239.46C157.42 240.902 158.595 242.07 160.043 242.07C161.491 242.07 162.665 240.902 162.665 239.46C162.665 238.017 161.491 236.849 160.043 236.849Z" fill="#4A8EFF"/>
<path d="M136.363 236.849C134.915 236.849 133.741 238.017 133.741 239.46C133.741 240.902 134.915 242.07 136.363 242.07C137.812 242.07 138.986 240.902 138.986 239.46C138.986 238.017 137.812 236.849 136.363 236.849Z" fill="#4A8EFF"/>
<path d="M112.69 236.849C111.242 236.849 110.068 238.017 110.068 239.46C110.068 240.902 111.242 242.07 112.69 242.07C114.138 242.07 115.313 240.902 115.313 239.46C115.313 238.017 114.138 236.849 112.69 236.849Z" fill="#4A8EFF"/>
<path d="M88.9586 236.849C87.51 236.849 86.3364 238.017 86.3364 239.46C86.3364 240.902 87.51 242.07 88.9586 242.07C90.4072 242.07 91.5807 240.902 91.5807 239.46C91.5807 238.017 90.4072 236.849 88.9586 236.849Z" fill="#4A8EFF"/>
<path d="M62.6602 239.511C62.6602 238.994 62.8136 238.49 63.1024 238.06C63.39 237.631 63.8005 237.297 64.2788 237.099C64.7584 236.902 65.2851 236.849 65.7937 236.95C66.3024 237.051 66.7696 237.3 67.1373 237.665C67.5036 238.03 67.7524 238.495 67.8547 239.001C67.9556 239.509 67.9031 240.034 67.7054 240.511C67.5064 240.988 67.1705 241.395 66.7392 241.681C66.3079 241.969 65.8007 242.122 65.2823 242.122C64.587 242.122 63.9208 241.847 63.4287 241.358C62.9366 240.867 62.6602 240.204 62.6602 239.511Z" fill="#4A8EFF"/>
<path d="M41.6021 236.849C40.1535 236.849 38.98 238.017 38.98 239.46C38.98 240.902 40.1535 242.07 41.6021 242.07C43.0494 242.07 44.2243 240.902 44.2243 239.46C44.2243 238.017 43.0494 236.849 41.6021 236.849Z" fill="#4A8EFF"/>
<path d="M15.2993 239.511C15.2993 238.819 15.5758 238.155 16.0679 237.665C16.5586 237.175 17.2262 236.9 17.9215 236.9C18.6167 236.9 19.2843 237.175 19.775 237.665C20.2671 238.155 20.5436 238.819 20.5436 239.511C20.5436 240.204 20.2671 240.867 19.775 241.358C19.2843 241.847 18.6167 242.123 17.9215 242.123C17.2262 242.123 16.5586 241.847 16.0679 241.358C15.5758 240.867 15.2993 240.204 15.2993 239.511Z" fill="#4A8EFF"/>
<path d="M207.452 210.771C206.005 210.771 204.83 211.941 204.83 213.383C204.83 214.824 206.005 215.994 207.452 215.994C208.9 215.994 210.074 214.824 210.074 213.383C210.074 211.941 208.9 210.771 207.452 210.771Z" fill="#4A8EFF"/>
<path d="M183.716 210.771C182.268 210.771 181.094 211.941 181.094 213.383C181.094 214.824 182.268 215.994 183.716 215.994C185.164 215.994 186.339 214.824 186.339 213.383C186.339 211.941 185.164 210.771 183.716 210.771Z" fill="#4A8EFF"/>
<path d="M160.04 210.771C158.592 210.771 157.418 211.941 157.418 213.383C157.418 214.824 158.592 215.994 160.04 215.994C161.487 215.994 162.662 214.824 162.662 213.383C162.662 211.941 161.487 210.771 160.04 210.771Z" fill="#4A8EFF"/>
<path d="M136.363 210.771C134.915 210.771 133.741 211.941 133.741 213.383C133.741 214.824 134.915 215.994 136.363 215.994C137.812 215.994 138.986 214.824 138.986 213.383C138.986 211.941 137.812 210.771 136.363 210.771Z" fill="#4A8EFF"/>
<path d="M112.69 210.771C111.242 210.771 110.068 211.941 110.068 213.383C110.068 214.824 111.242 215.994 112.69 215.994C114.138 215.994 115.313 214.824 115.313 213.383C115.313 211.941 114.138 210.771 112.69 210.771Z" fill="#4A8EFF"/>
<path d="M88.9586 210.771C87.51 210.771 86.3364 211.941 86.3364 213.383C86.3364 214.824 87.51 215.994 88.9586 215.994C90.4072 215.994 91.5807 214.824 91.5807 213.383C91.5807 211.941 90.4072 210.771 88.9586 210.771Z" fill="#4A8EFF"/>
<path d="M62.6602 213.383C62.6602 212.69 62.9366 212.027 63.4287 211.536C63.9208 211.047 64.587 210.771 65.2823 210.771C65.9776 210.771 66.6452 211.047 67.1373 211.536C67.628 212.027 67.9044 212.69 67.9044 213.383C67.9044 214.075 67.628 214.74 67.1373 215.229C66.6452 215.719 65.9776 215.994 65.2823 215.994C64.587 215.994 63.9208 215.719 63.4287 215.229C62.9366 214.74 62.6602 214.075 62.6602 213.383Z" fill="#4A8EFF"/>
<path d="M41.6021 210.771C40.1535 210.771 38.98 211.941 38.98 213.383C38.98 214.824 40.1535 215.994 41.6021 215.994C43.0494 215.994 44.2243 214.824 44.2243 213.383C44.2243 211.941 43.0494 210.771 41.6021 210.771Z" fill="#4A8EFF"/>
<path d="M15.2993 213.382C15.2993 212.865 15.4527 212.361 15.7416 211.932C16.0291 211.502 16.4383 211.168 16.9179 210.97C17.3976 210.773 17.9242 210.721 18.4329 210.821C18.9416 210.922 19.4087 211.171 19.775 211.536C20.1427 211.902 20.3916 212.366 20.4938 212.874C20.5948 213.379 20.5422 213.905 20.3446 214.382C20.1455 214.859 19.8096 215.266 19.3784 215.554C18.9471 215.84 18.4398 215.993 17.9215 215.993C17.5773 215.993 17.2359 215.926 16.9179 215.794C16.6 215.663 16.3111 215.471 16.0679 215.229C15.8246 214.986 15.631 214.698 15.4983 214.382C15.367 214.065 15.2993 213.725 15.2993 213.382Z" fill="#0151DA"/>
<path d="M207.452 184.644C206.005 184.644 204.831 185.812 204.831 187.253C204.831 188.696 206.005 189.864 207.452 189.864C208.9 189.864 210.074 188.696 210.074 187.253C210.074 185.812 208.9 184.644 207.452 184.644Z" fill="#4A8EFF"/>
<path d="M183.719 184.644C182.272 184.644 181.097 185.812 181.097 187.253C181.097 188.696 182.272 189.864 183.719 189.864C185.168 189.864 186.341 188.696 186.341 187.253C186.341 185.812 185.168 184.644 183.719 184.644Z" fill="#4A8EFF"/>
<path d="M160.043 184.644C158.595 184.644 157.42 185.812 157.42 187.253C157.42 188.696 158.595 189.864 160.043 189.864C161.491 189.864 162.665 188.696 162.665 187.253C162.665 185.812 161.491 184.644 160.043 184.644Z" fill="#4A8EFF"/>
<path d="M136.363 184.644C134.915 184.644 133.741 185.812 133.741 187.253C133.741 188.696 134.915 189.864 136.363 189.864C137.812 189.864 138.986 188.696 138.986 187.253C138.986 185.812 137.812 184.644 136.363 184.644Z" fill="#4A8EFF"/>
<path d="M112.69 184.644C111.242 184.644 110.068 185.812 110.068 187.253C110.068 188.696 111.242 189.864 112.69 189.864C114.138 189.864 115.313 188.696 115.313 187.253C115.313 185.812 114.138 184.644 112.69 184.644Z" fill="#4A8EFF"/>
<path d="M88.9586 184.644C87.51 184.644 86.3364 185.812 86.3364 187.253C86.3364 188.696 87.51 189.864 88.9586 189.864C90.4072 189.864 91.5807 188.696 91.5807 187.253C91.5807 185.812 90.4072 184.644 88.9586 184.644Z" fill="#070C3A"/>
<path d="M62.6602 187.309C62.6602 186.792 62.8136 186.288 63.1024 185.858C63.39 185.429 63.8005 185.093 64.2788 184.896C64.7584 184.698 65.2851 184.647 65.7937 184.748C66.3024 184.849 66.7696 185.097 67.1373 185.462C67.5036 185.827 67.7538 186.293 67.8547 186.799C67.9556 187.305 67.9031 187.83 67.7054 188.307C67.5064 188.785 67.1705 189.193 66.7392 189.479C66.3079 189.767 65.8007 189.919 65.2823 189.919C64.587 189.919 63.9208 189.644 63.4287 189.154C62.9366 188.665 62.6602 188.002 62.6602 187.309Z" fill="#4A8EFF"/>
<path d="M41.6021 184.644C40.1535 184.644 38.98 185.812 38.98 187.253C38.98 188.696 40.1535 189.864 41.6021 189.864C43.0494 189.864 44.2243 188.696 44.2243 187.253C44.2243 185.812 43.0494 184.644 41.6021 184.644Z" fill="#4A8EFF"/>
<path d="M15.2993 187.309C15.2993 186.616 15.5758 185.951 16.0679 185.462C16.5586 184.973 17.2262 184.698 17.9215 184.698C18.6167 184.698 19.2843 184.973 19.775 185.462C20.2671 185.951 20.5436 186.616 20.5436 187.309C20.5436 188.001 20.2671 188.665 19.775 189.154C19.2843 189.643 18.6167 189.919 17.9215 189.919C17.2262 189.919 16.5586 189.643 16.0679 189.154C15.5758 188.665 15.2993 188.001 15.2993 187.309Z" fill="#4E75CB"/>
<path d="M207.452 158.564C206.005 158.564 204.83 159.734 204.83 161.176C204.83 162.617 206.005 163.787 207.452 163.787C208.9 163.787 210.074 162.617 210.074 161.176C210.074 159.734 208.9 158.564 207.452 158.564Z" fill="#0151DA"/>
<path d="M183.719 158.564C182.272 158.564 181.097 159.734 181.097 161.176C181.097 162.617 182.272 163.787 183.719 163.787C185.168 163.787 186.341 162.617 186.341 161.176C186.341 159.734 185.168 158.564 183.719 158.564Z" fill="#4A8EFF"/>
<path d="M160.043 158.564C158.595 158.564 157.42 159.734 157.42 161.176C157.42 162.617 158.595 163.787 160.043 163.787C161.491 163.787 162.665 162.617 162.665 161.176C162.665 159.734 161.491 158.564 160.043 158.564Z" fill="#4A8EFF"/>
<path d="M136.363 158.564C134.915 158.564 133.741 159.734 133.741 161.176C133.741 162.617 134.915 163.787 136.363 163.787C137.812 163.787 138.986 162.617 138.986 161.176C138.986 159.734 137.812 158.564 136.363 158.564Z" fill="#4A8EFF"/>
<path d="M112.69 158.564C111.242 158.564 110.068 159.734 110.068 161.176C110.068 162.617 111.242 163.787 112.69 163.787C114.138 163.787 115.313 162.617 115.313 161.176C115.313 159.734 114.138 158.564 112.69 158.564Z" fill="#4A8EFF"/>
<path d="M88.9586 158.564C87.51 158.564 86.3364 159.734 86.3364 161.176C86.3364 162.617 87.51 163.787 88.9586 163.787C90.4072 163.787 91.5807 162.617 91.5807 161.176C91.5807 159.734 90.4072 158.564 88.9586 158.564Z" fill="#4A8EFF"/>
<path d="M62.6523 161.229C62.6523 160.712 62.8058 160.207 63.0933 159.777C63.3822 159.349 63.7913 159.014 64.271 158.817C64.7492 158.619 65.2773 158.566 65.7859 158.667C66.2946 158.768 66.7618 159.017 67.1281 159.382C67.4944 159.747 67.7446 160.213 67.8455 160.719C67.9464 161.226 67.8952 161.751 67.6962 162.228C67.4985 162.705 67.1626 163.113 66.7314 163.399C66.3001 163.686 65.7928 163.84 65.2745 163.84C64.582 163.829 63.9213 163.551 63.4319 163.063C62.9412 162.576 62.662 161.918 62.6523 161.229Z" fill="#4A8EFF"/>
<path d="M41.6021 158.564C40.1535 158.564 38.98 159.734 38.98 161.176C38.98 162.617 40.1535 163.787 41.6021 163.787C43.0494 163.787 44.2243 162.617 44.2243 161.176C44.2243 159.734 43.0494 158.564 41.6021 158.564Z" fill="#4A8EFF"/>
<path d="M15.2993 161.229C15.2993 160.712 15.4527 160.207 15.7416 159.777C16.0291 159.349 16.4383 159.014 16.9179 158.817C17.3976 158.619 17.9242 158.566 18.4329 158.667C18.9416 158.768 19.4087 159.017 19.775 159.382C20.1427 159.747 20.3916 160.213 20.4938 160.719C20.5948 161.226 20.5422 161.751 20.3446 162.228C20.1455 162.705 19.8096 163.113 19.3784 163.399C18.9471 163.686 18.4398 163.84 17.9215 163.84C17.2262 163.84 16.5586 163.565 16.0679 163.075C15.5758 162.585 15.2993 161.921 15.2993 161.229Z" fill="#4A8EFF"/>
<path d="M207.452 132.438C206.003 132.438 204.83 133.606 204.83 135.047C204.83 136.49 206.003 137.658 207.452 137.658C208.9 137.658 210.074 136.49 210.074 135.047C210.074 133.606 208.9 132.438 207.452 132.438Z" fill="#4A8EFF"/>
<path d="M183.719 132.438C182.272 132.438 181.097 133.606 181.097 135.047C181.097 136.49 182.272 137.658 183.719 137.658C185.168 137.658 186.341 136.49 186.341 135.047C186.341 133.606 185.168 132.438 183.719 132.438Z" fill="#4A8EFF"/>
<path d="M160.043 132.438C158.595 132.438 157.42 133.606 157.42 135.047C157.42 136.49 158.595 137.658 160.043 137.658C161.491 137.658 162.665 136.49 162.665 135.047C162.665 133.606 161.491 132.438 160.043 132.438Z" fill="#4A8EFF"/>
<path d="M136.367 132.438C134.919 132.438 133.745 133.606 133.745 135.047C133.745 136.49 134.919 137.658 136.367 137.658C137.814 137.658 138.989 136.49 138.989 135.047C138.989 133.606 137.814 132.438 136.367 132.438Z" fill="#4A8EFF"/>
<path d="M112.69 132.438C111.242 132.438 110.068 133.606 110.068 135.047C110.068 136.49 111.242 137.658 112.69 137.658C114.138 137.658 115.313 136.49 115.313 135.047C115.313 133.606 114.138 132.438 112.69 132.438Z" fill="#4A8EFF"/>
<path d="M88.9586 132.438C87.51 132.438 86.3364 133.606 86.3364 135.047C86.3364 136.49 87.51 137.658 88.9586 137.658C90.4072 137.658 91.5807 136.49 91.5807 135.047C91.5807 133.606 90.4072 132.438 88.9586 132.438Z" fill="#4A8EFF"/>
<path d="M62.6602 135.047C62.6602 134.355 62.9366 133.691 63.4287 133.202C63.9208 132.713 64.587 132.438 65.2823 132.438C65.9776 132.438 66.6452 132.713 67.1373 133.202C67.628 133.691 67.9044 134.355 67.9044 135.047C67.9044 135.74 67.628 136.405 67.1373 136.894C66.6452 137.383 65.9776 137.658 65.2823 137.658C64.587 137.658 63.9208 137.383 63.4287 136.894C62.9366 136.405 62.6602 135.74 62.6602 135.047Z" fill="#4A8EFF"/>
<path d="M41.605 132.438C40.1578 132.438 38.9829 133.606 38.9829 135.047C38.9829 136.49 40.1578 137.658 41.605 137.658C43.0536 137.658 44.2272 136.49 44.2272 135.047C44.2272 133.606 43.0536 132.438 41.605 132.438Z" fill="#4A8EFF"/>
<path d="M15.3032 135.047C15.3032 134.531 15.4567 134.027 15.7456 133.597C16.0331 133.167 16.4422 132.833 16.9218 132.635C17.4001 132.437 17.9281 132.386 18.4368 132.487C18.9455 132.588 19.4127 132.837 19.779 133.202C20.1467 133.566 20.3955 134.032 20.4964 134.538C20.5986 135.044 20.5461 135.569 20.3471 136.046C20.1494 136.525 19.8135 136.932 19.3823 137.218C18.951 137.506 18.4437 137.658 17.9254 137.658C17.2301 137.658 16.5625 137.383 16.0704 136.894C15.5797 136.404 15.3032 135.739 15.3032 135.047Z" fill="#4A8EFF"/>
<path d="M370.625 109.021C370.625 108.505 370.778 108 371.067 107.571C371.355 107.141 371.764 106.806 372.244 106.608C372.723 106.411 373.25 106.36 373.759 106.461C374.267 106.561 374.734 106.809 375.101 107.175C375.468 107.54 375.717 108.005 375.818 108.512C375.92 109.018 375.868 109.543 375.669 110.02C375.471 110.497 375.135 110.905 374.704 111.192C374.273 111.478 373.765 111.632 373.247 111.632C372.552 111.632 371.884 111.357 371.393 110.867C370.901 110.378 370.625 109.713 370.625 109.021Z" fill="#4A8EFF"/>
<path d="M346.948 109.021C346.948 108.505 347.102 108 347.391 107.571C347.678 107.141 348.087 106.806 348.567 106.608C349.047 106.411 349.573 106.36 350.082 106.461C350.591 106.561 351.058 106.809 351.424 107.175C351.792 107.54 352.04 108.005 352.143 108.512C352.244 109.018 352.191 109.543 351.994 110.02C351.794 110.497 351.459 110.905 351.027 111.192C350.596 111.478 350.089 111.632 349.57 111.632C348.875 111.632 348.208 111.357 347.717 110.867C347.225 110.378 346.948 109.713 346.948 109.021Z" fill="#4A8EFF"/>
<path d="M323.271 109.02C323.271 108.677 323.339 108.339 323.472 108.022C323.603 107.704 323.797 107.417 324.04 107.175C324.283 106.932 324.572 106.74 324.89 106.608C325.208 106.477 325.549 106.409 325.894 106.409C326.238 106.409 326.579 106.477 326.897 106.608C327.215 106.74 327.504 106.932 327.749 107.175C327.992 107.417 328.184 107.704 328.317 108.022C328.448 108.339 328.516 108.677 328.516 109.02C328.516 109.363 328.448 109.703 328.317 110.02C328.184 110.336 327.992 110.625 327.749 110.867C327.504 111.109 327.215 111.302 326.897 111.432C326.579 111.564 326.238 111.631 325.894 111.631C325.549 111.631 325.208 111.564 324.89 111.432C324.572 111.302 324.283 111.109 324.04 110.867C323.797 110.625 323.603 110.336 323.472 110.02C323.339 109.703 323.271 109.363 323.271 109.02Z" fill="#4A8EFF"/>
<path d="M299.536 109.02C299.536 108.328 299.813 107.664 300.303 107.175C300.795 106.684 301.463 106.409 302.158 106.409C302.854 106.409 303.52 106.684 304.012 107.175C304.504 107.664 304.78 108.328 304.78 109.02C304.78 109.713 304.504 110.378 304.012 110.867C303.52 111.356 302.854 111.631 302.158 111.631C301.463 111.631 300.795 111.356 300.303 110.867C299.813 110.378 299.536 109.713 299.536 109.02Z" fill="#4A8EFF"/>
<path d="M275.859 109.021C275.859 108.505 276.013 108 276.302 107.571C276.589 107.141 276.998 106.806 277.478 106.608C277.958 106.411 278.484 106.36 278.993 106.461C279.502 106.561 279.969 106.809 280.335 107.175C280.703 107.54 280.952 108.005 281.053 108.512C281.155 109.018 281.102 109.543 280.903 110.02C280.706 110.497 280.37 110.905 279.938 111.192C279.507 111.478 279 111.632 278.482 111.632C277.786 111.632 277.119 111.357 276.628 110.867C276.136 110.378 275.859 109.713 275.859 109.021Z" fill="#4A8EFF"/>
<path d="M252.183 109.021C252.183 108.505 252.337 108 252.625 107.571C252.913 107.141 253.323 106.806 253.802 106.608C254.281 106.411 254.808 106.36 255.317 106.461C255.825 106.561 256.293 106.809 256.66 107.175C257.027 107.54 257.275 108.005 257.378 108.512C257.479 109.018 257.426 109.543 257.228 110.02C257.029 110.497 256.693 110.905 256.262 111.192C255.831 111.478 255.324 111.632 254.805 111.632C254.11 111.632 253.444 111.357 252.952 110.867C252.46 110.378 252.183 109.713 252.183 109.021Z" fill="#4A8EFF"/>
<path d="M228.506 109.02C228.506 108.328 228.783 107.664 229.275 107.175C229.767 106.684 230.433 106.409 231.129 106.409C231.824 106.409 232.491 106.684 232.984 107.175C233.474 107.664 233.751 108.328 233.751 109.02C233.751 109.713 233.474 110.378 232.984 110.867C232.491 111.356 231.824 111.631 231.129 111.631C230.433 111.631 229.767 111.356 229.275 110.867C228.783 110.378 228.506 109.713 228.506 109.02Z" fill="#4A8EFF"/>
<path d="M370.625 82.8929C370.625 82.2018 370.901 81.5369 371.393 81.0476C371.884 80.5583 372.552 80.2832 373.247 80.2832C373.942 80.2832 374.61 80.5583 375.101 81.0476C375.593 81.5369 375.869 82.2018 375.869 82.8929C375.869 83.5854 375.593 84.2503 375.101 84.7396C374.61 85.2289 373.942 85.504 373.247 85.504C372.552 85.504 371.884 85.2289 371.393 84.7396C370.901 84.2503 370.625 83.5854 370.625 82.8929Z" fill="#4A8EFF"/>
<path d="M349.567 80.2832C348.119 80.2832 346.944 81.4512 346.944 82.8929C346.944 84.336 348.119 85.504 349.567 85.504C351.015 85.504 352.189 84.336 352.189 82.8929C352.189 81.4512 351.015 80.2832 349.567 80.2832Z" fill="#4A8EFF"/>
<path d="M323.268 82.8931C323.268 82.3775 323.421 81.873 323.709 81.4431C323.998 81.0132 324.407 80.6787 324.887 80.481C325.365 80.2834 325.893 80.2322 326.402 80.3331C326.91 80.434 327.377 80.6829 327.744 81.0478C328.11 81.4127 328.36 81.8785 328.461 82.3844C328.562 82.8903 328.511 83.4156 328.312 83.8925C328.114 84.3694 327.777 84.7771 327.346 85.0646C326.916 85.3521 326.409 85.5042 325.89 85.5042C325.194 85.5042 324.527 85.2291 324.035 84.7398C323.543 84.2505 323.268 83.5856 323.268 82.8931Z" fill="#4A8EFF"/>
<path d="M302.158 80.2832C300.71 80.2832 299.536 81.4512 299.536 82.8929C299.536 84.336 300.71 85.504 302.158 85.504C303.605 85.504 304.78 84.336 304.78 82.8929C304.78 81.4512 303.605 80.2832 302.158 80.2832Z" fill="#4A8EFF"/>
<path d="M275.859 82.8929C275.859 82.2018 276.136 81.5369 276.628 81.0476C277.119 80.5583 277.786 80.2832 278.482 80.2832C279.177 80.2832 279.843 80.5583 280.335 81.0476C280.827 81.5369 281.104 82.2018 281.104 82.8929C281.104 83.5854 280.827 84.2503 280.335 84.7396C279.843 85.2289 279.177 85.504 278.482 85.504C277.786 85.504 277.119 85.2289 276.628 84.7396C276.136 84.2503 275.859 83.5854 275.859 82.8929Z" fill="#4A8EFF"/>
<path d="M254.805 80.2832C253.357 80.2832 252.183 81.4512 252.183 82.8929C252.183 84.336 253.357 85.504 254.805 85.504C256.254 85.504 257.427 84.336 257.427 82.8929C257.427 81.4512 256.254 80.2832 254.805 80.2832Z" fill="#4A8EFF"/>
<path d="M231.073 80.2832C229.626 80.2832 228.451 81.4512 228.451 82.8929C228.451 84.336 229.626 85.504 231.073 85.504C232.522 85.504 233.695 84.336 233.695 82.8929C233.695 81.4512 232.522 80.2832 231.073 80.2832Z" fill="#4A8EFF"/>
<path d="M370.621 56.8154C370.621 56.2999 370.776 55.7954 371.063 55.3655C371.351 54.9356 371.761 54.6011 372.24 54.4034C372.719 54.2057 373.246 54.1546 373.755 54.2555C374.263 54.3564 374.73 54.6038 375.098 54.9701C375.464 55.3351 375.715 55.7995 375.816 56.3068C375.917 56.8127 375.864 57.3379 375.666 57.8148C375.467 58.2917 375.131 58.6995 374.7 58.987C374.269 59.2731 373.762 59.4265 373.243 59.4265C372.548 59.4265 371.882 59.1515 371.39 58.6621C370.898 58.1728 370.621 57.508 370.621 56.8154Z" fill="#4A8EFF"/>
<path d="M349.567 54.1504C348.119 54.1504 346.944 55.3198 346.944 56.7615C346.944 58.2031 348.119 59.3726 349.567 59.3726C351.015 59.3726 352.189 58.2031 352.189 56.7615C352.189 55.3198 351.015 54.1504 349.567 54.1504Z" fill="#4A8EFF"/>
<path d="M323.264 56.8152C323.264 56.1227 323.541 55.4592 324.031 54.9699C324.523 54.4792 325.191 54.2041 325.886 54.2041C326.582 54.2041 327.248 54.4792 327.74 54.9699C328.232 55.4592 328.508 56.1227 328.508 56.8152C328.508 57.158 328.441 57.498 328.308 57.8146C328.177 58.1311 327.983 58.42 327.74 58.6619C327.497 58.9038 327.208 59.0959 326.89 59.2272C326.572 59.3586 326.23 59.4263 325.886 59.4263C325.542 59.4263 325.201 59.3586 324.883 59.2272C324.565 59.0959 324.276 58.9038 324.031 58.6619C323.788 58.42 323.596 58.1311 323.463 57.8146C323.332 57.498 323.264 57.158 323.264 56.8152Z" fill="#4A8EFF"/>
<path d="M302.158 54.1504C300.71 54.1504 299.536 55.3198 299.536 56.7615C299.536 58.2031 300.71 59.3726 302.158 59.3726C303.605 59.3726 304.78 58.2031 304.78 56.7615C304.78 55.3198 303.605 54.1504 302.158 54.1504Z" fill="#4A8EFF"/>
<path d="M275.859 56.8154C275.859 56.2999 276.013 55.7954 276.302 55.3655C276.589 54.9356 276.998 54.6011 277.478 54.4034C277.958 54.2057 278.484 54.1546 278.993 54.2555C279.502 54.3564 279.969 54.6038 280.335 54.9701C280.703 55.3351 280.952 55.7995 281.053 56.3068C281.155 56.8127 281.102 57.3379 280.905 57.8148C280.706 58.2917 280.37 58.6995 279.938 58.987C279.507 59.2731 279 59.4265 278.482 59.4265C277.786 59.4265 277.119 59.1515 276.628 58.6621C276.136 58.1728 275.859 57.508 275.859 56.8154Z" fill="#4A8EFF"/>
<path d="M254.805 54.1504C253.357 54.1504 252.183 55.3198 252.183 56.7615C252.183 58.2031 253.357 59.3726 254.805 59.3726C256.254 59.3726 257.427 58.2031 257.427 56.7615C257.427 55.3198 256.254 54.1504 254.805 54.1504Z" fill="#4A8EFF"/>
<path d="M231.073 54.1504C229.626 54.1504 228.451 55.3198 228.451 56.7615C228.451 58.2031 229.626 59.3726 231.073 59.3726C232.522 59.3726 233.695 58.2031 233.695 56.7615C233.695 55.3198 232.522 54.1504 231.073 54.1504Z" fill="#4A8EFF"/>
<path d="M370.621 30.6864C370.621 29.9939 370.898 29.3304 371.39 28.8411C371.882 28.3517 372.548 28.0767 373.243 28.0767C373.938 28.0767 374.606 28.3517 375.098 28.8411C375.589 29.3304 375.865 29.9939 375.865 30.6864C375.865 31.3789 375.589 32.0438 375.098 32.5331C374.606 33.0224 373.938 33.2975 373.243 33.2975C372.548 33.2975 371.882 33.0224 371.39 32.5331C370.898 32.0438 370.621 31.3789 370.621 30.6864Z" fill="#4A8EFF"/>
<path d="M349.567 28.0767C348.119 28.0767 346.944 29.2447 346.944 30.6864C346.944 32.1295 348.119 33.2975 349.567 33.2975C351.015 33.2975 352.189 32.1295 352.189 30.6864C352.189 29.2447 351.015 28.0767 349.567 28.0767Z" fill="#4A8EFF"/>
<path d="M323.268 30.6865C323.268 30.171 323.421 29.6664 323.709 29.2365C323.998 28.8067 324.407 28.4722 324.887 28.2745C325.365 28.0768 325.893 28.0257 326.402 28.1266C326.91 28.2275 327.377 28.4763 327.744 28.8412C328.11 29.2061 328.36 29.672 328.461 30.1779C328.562 30.6838 328.511 31.209 328.312 31.6859C328.114 32.1628 327.777 32.5706 327.346 32.8581C326.916 33.1456 326.409 33.2976 325.89 33.2976C325.194 33.2976 324.527 33.0226 324.035 32.5333C323.543 32.0439 323.268 31.379 323.268 30.6865Z" fill="#4A8EFF"/>
<path d="M302.158 28.0767C300.71 28.0767 299.536 29.2447 299.536 30.6864C299.536 32.1295 300.71 33.2975 302.158 33.2975C303.605 33.2975 304.78 32.1295 304.78 30.6864C304.78 29.2447 303.605 28.0767 302.158 28.0767Z" fill="#070C3A"/>
<path d="M275.859 30.6864C275.859 29.9939 276.136 29.3304 276.628 28.8411C277.119 28.3517 277.786 28.0767 278.482 28.0767C279.177 28.0767 279.844 28.3517 280.335 28.8411C280.827 29.3304 281.104 29.9939 281.104 30.6864C281.104 31.3789 280.827 32.0438 280.335 32.5331C279.844 33.0224 279.177 33.2975 278.482 33.2975C277.786 33.2975 277.119 33.0224 276.628 32.5331C276.136 32.0438 275.859 31.3789 275.859 30.6864Z" fill="#4A8EFF"/>
<path d="M254.805 28.0767C253.357 28.0767 252.183 29.2447 252.183 30.6864C252.183 32.1295 253.357 33.2975 254.805 33.2975C256.254 33.2975 257.427 32.1295 257.427 30.6864C257.427 29.2447 256.254 28.0767 254.805 28.0767Z" fill="#4A8EFF"/>
<path d="M231.069 28.0767C229.622 28.0767 228.447 29.2447 228.447 30.6864C228.447 32.1295 229.622 33.2975 231.069 33.2975C232.517 33.2975 233.691 32.1295 233.691 30.6864C233.691 29.2447 232.517 28.0767 231.069 28.0767Z" fill="#4A8EFF"/>
<path d="M370.625 4.61401C370.625 3.9215 370.901 3.25663 371.393 2.76731C371.884 2.27799 372.552 2.00293 373.247 2.00293C373.942 2.00293 374.61 2.27799 375.101 2.76731C375.593 3.25663 375.869 3.9215 375.869 4.61401C375.869 5.30652 375.593 5.97002 375.101 6.45934C374.61 6.95004 373.942 7.22511 373.247 7.22511C372.552 7.22511 371.884 6.95004 371.393 6.45934C370.901 5.97002 370.625 5.30652 370.625 4.61401Z" fill="#4A8EFF"/>
<path d="M349.57 1.94775C348.122 1.94775 346.948 3.11716 346.948 4.55886C346.948 6.00055 348.122 7.16994 349.57 7.16994C351.019 7.16994 352.193 6.00055 352.193 4.55886C352.193 3.11716 351.019 1.94775 349.57 1.94775Z" fill="#4A8EFF"/>
<path d="M323.271 4.61432C323.271 4.09736 323.426 3.59285 323.714 3.16297C324.001 2.73447 324.412 2.39857 324.89 2.20229C325.37 2.00462 325.896 1.95209 326.405 2.053C326.914 2.1539 327.381 2.40271 327.749 2.76763C328.115 3.13254 328.365 3.59838 328.466 4.10429C328.567 4.61158 328.514 5.13544 328.317 5.61232C328.118 6.09058 327.782 6.49836 327.351 6.78448C326.919 7.07199 326.412 7.22543 325.894 7.22543C325.198 7.22543 324.532 6.95035 324.04 6.45965C323.548 5.97033 323.271 5.30684 323.271 4.61432Z" fill="#4A8EFF"/>
<path d="M302.158 1.94775C300.71 1.94775 299.536 3.11716 299.536 4.55886C299.536 6.00055 300.71 7.16994 302.158 7.16994C303.605 7.16994 304.78 6.00055 304.78 4.55886C304.78 3.11716 303.605 1.94775 302.158 1.94775Z" fill="#4A8EFF"/>
<path d="M275.859 4.61401C275.859 3.9215 276.136 3.25663 276.628 2.76731C277.119 2.27799 277.786 2.00293 278.482 2.00293C279.177 2.00293 279.844 2.27799 280.335 2.76731C280.827 3.25663 281.104 3.9215 281.104 4.61401C281.104 5.30652 280.827 5.97002 280.335 6.45934C279.844 6.95004 279.177 7.22511 278.482 7.22511C277.786 7.22511 277.119 6.95004 276.628 6.45934C276.136 5.97002 275.859 5.30652 275.859 4.61401Z" fill="#4A8EFF"/>
<path d="M254.805 1.94775C253.357 1.94775 252.183 3.11716 252.183 4.55886C252.183 6.00055 253.357 7.16994 254.805 7.16994C256.254 7.16994 257.427 6.00055 257.427 4.55886C257.427 3.11716 256.254 1.94775 254.805 1.94775Z" fill="#4A8EFF"/>
<path d="M231.07 1.94775C229.622 1.94775 228.448 3.11716 228.448 4.55886C228.448 6.00055 229.622 7.16994 231.07 7.16994C232.518 7.16994 233.693 6.00055 233.693 4.55886C233.693 3.11716 232.518 1.94775 231.07 1.94775Z" fill="#4A8EFF"/>
<path d="M204.83 109.021C204.83 108.505 204.983 108 205.272 107.571C205.559 107.141 205.969 106.806 206.448 106.608C206.928 106.411 207.455 106.36 207.963 106.461C208.472 106.561 208.939 106.809 209.305 107.175C209.673 107.54 209.922 108.005 210.024 108.512C210.125 109.018 210.072 109.543 209.875 110.02C209.676 110.497 209.34 110.905 208.909 111.192C208.477 111.478 207.97 111.632 207.452 111.632C206.756 111.632 206.089 111.357 205.598 110.867C205.106 110.378 204.83 109.713 204.83 109.021Z" fill="#4A8EFF"/>
<path d="M180.88 109.02C180.88 108.328 181.157 107.664 181.649 107.175C182.141 106.684 182.807 106.409 183.503 106.409C184.198 106.409 184.865 106.684 185.358 107.175C185.848 107.664 186.125 108.328 186.125 109.02C186.125 109.713 185.848 110.378 185.358 110.867C184.865 111.356 184.198 111.631 183.503 111.631C182.807 111.631 182.141 111.356 181.649 110.867C181.157 110.378 180.88 109.713 180.88 109.02Z" fill="#4A8EFF"/>
<path d="M157.529 109.059C157.52 108.542 157.668 108.034 157.952 107.6C158.235 107.164 158.641 106.824 159.12 106.621C159.598 106.416 160.126 106.36 160.637 106.455C161.149 106.552 161.62 106.798 161.991 107.161C162.361 107.525 162.614 107.989 162.719 108.497C162.824 109.004 162.774 109.532 162.577 110.01C162.379 110.49 162.043 110.9 161.612 111.189C161.179 111.477 160.671 111.632 160.151 111.632C159.808 111.637 159.468 111.574 159.15 111.448C158.832 111.321 158.543 111.131 158.299 110.892C158.055 110.653 157.86 110.368 157.729 110.053C157.596 109.738 157.529 109.401 157.529 109.059Z" fill="#4A8EFF"/>
<path d="M133.745 109.021C133.745 108.505 133.899 108 134.186 107.571C134.475 107.141 134.884 106.806 135.364 106.608C135.842 106.411 136.37 106.36 136.879 106.461C137.387 106.561 137.855 106.809 138.221 107.175C138.587 107.54 138.837 108.005 138.938 108.512C139.039 109.018 138.988 109.543 138.789 110.02C138.591 110.497 138.255 110.905 137.824 111.192C137.393 111.478 136.886 111.632 136.367 111.632C135.672 111.632 135.004 111.357 134.512 110.867C134.022 110.378 133.745 109.713 133.745 109.021Z" fill="#4A8EFF"/>
<path d="M110.068 109.02C110.068 108.328 110.345 107.664 110.836 107.175C111.328 106.684 111.995 106.409 112.69 106.409C113.386 106.409 114.052 106.684 114.544 107.175C115.036 107.664 115.313 108.328 115.313 109.02C115.313 109.713 115.036 110.378 114.544 110.867C114.052 111.356 113.386 111.631 112.69 111.631C111.995 111.631 111.328 111.356 110.836 110.867C110.345 110.378 110.068 109.713 110.068 109.02Z" fill="#4A8EFF"/>
<path d="M86.3877 109.02C86.3877 108.328 86.6641 107.664 87.1562 107.175C87.6483 106.684 88.3146 106.409 89.0098 106.409C89.7051 106.409 90.3728 106.684 90.8649 107.175C91.3556 107.664 91.632 108.328 91.632 109.02C91.632 109.713 91.3556 110.378 90.8649 110.867C90.3728 111.356 89.7051 111.631 89.0098 111.631C88.3146 111.631 87.6483 111.356 87.1562 110.867C86.6641 110.378 86.3877 109.713 86.3877 109.02Z" fill="#070C3A"/>
<path d="M62.6602 109.021C62.6602 108.505 62.8149 108 63.1024 107.571C63.39 107.141 63.8005 106.806 64.2788 106.608C64.7584 106.411 65.2851 106.36 65.7937 106.461C66.3024 106.561 66.7696 106.809 67.1373 107.175C67.5036 107.54 67.7538 108.005 67.8547 108.512C67.9556 109.018 67.9031 109.543 67.7054 110.02C67.5064 110.497 67.1705 110.905 66.7392 111.192C66.3079 111.478 65.8007 111.632 65.2823 111.632C64.587 111.632 63.9208 111.357 63.4287 110.867C62.9366 110.378 62.6602 109.713 62.6602 109.021Z" fill="#4A8EFF"/>
<path d="M38.9829 109.021C38.9829 108.505 39.1377 108 39.4252 107.571C39.7127 107.141 40.1233 106.806 40.6015 106.608C41.0812 106.411 41.6078 106.36 42.1165 106.461C42.6252 106.561 43.0923 106.809 43.46 107.175C43.8263 107.54 44.0765 108.005 44.1774 108.512C44.2783 109.018 44.2258 109.543 44.0282 110.02C43.8291 110.497 43.4932 110.905 43.0619 111.192C42.6307 111.478 42.1234 111.632 41.605 111.632C40.9097 111.632 40.2435 111.357 39.7514 110.867C39.2594 110.378 38.9829 109.713 38.9829 109.021Z" fill="#4A8EFF"/>
<path d="M15.3032 109.02C15.3032 108.328 15.5797 107.664 16.0704 107.175C16.5625 106.684 17.2301 106.409 17.9254 106.409C18.6207 106.409 19.2869 106.684 19.779 107.175C20.2711 107.664 20.5475 108.328 20.5475 109.02C20.5475 109.363 20.4798 109.703 20.3471 110.02C20.2158 110.336 20.0223 110.625 19.779 110.867C19.5357 111.109 19.2468 111.302 18.9289 111.432C18.611 111.564 18.2696 111.631 17.9254 111.631C17.5812 111.631 17.2398 111.564 16.9218 111.432C16.6039 111.302 16.315 111.109 16.0704 110.867C15.8271 110.625 15.635 110.336 15.5023 110.02C15.371 109.703 15.3032 109.363 15.3032 109.02Z" fill="#4A8EFF"/>
<path d="M207.447 80.2832C206 80.2832 204.825 81.4512 204.825 82.8929C204.825 84.336 206 85.504 207.447 85.504C208.896 85.504 210.07 84.336 210.07 82.8929C210.07 81.4512 208.896 80.2832 207.447 80.2832Z" fill="#4A8EFF"/>
<path d="M183.719 80.2832C182.272 80.2832 181.097 81.4512 181.097 82.8929C181.097 84.336 182.272 85.504 183.719 85.504C185.168 85.504 186.341 84.336 186.341 82.8929C186.341 81.4512 185.168 80.2832 183.719 80.2832Z" fill="#4A8EFF"/>
<path d="M160.043 80.2832C158.595 80.2832 157.42 81.4512 157.42 82.8929C157.42 84.336 158.595 85.504 160.043 85.504C161.491 85.504 162.665 84.336 162.665 82.8929C162.665 81.4512 161.491 80.2832 160.043 80.2832Z" fill="#4A8EFF"/>
<path d="M136.367 80.2832C134.919 80.2832 133.745 81.4512 133.745 82.8929C133.745 84.336 134.919 85.504 136.367 85.504C137.814 85.504 138.989 84.336 138.989 82.8929C138.989 81.4512 137.814 80.2832 136.367 80.2832Z" fill="#4A8EFF"/>
<path d="M112.69 80.2832C111.242 80.2832 110.068 81.4512 110.068 82.8929C110.068 84.336 111.242 85.504 112.69 85.504C114.138 85.504 115.313 84.336 115.313 82.8929C115.313 81.4512 114.138 80.2832 112.69 80.2832Z" fill="#070C3A"/>
<path d="M88.9586 80.2832C87.51 80.2832 86.3364 81.4512 86.3364 82.8929C86.3364 84.336 87.51 85.504 88.9586 85.504C90.4072 85.504 91.5807 84.336 91.5807 82.8929C91.5807 81.4512 90.4072 80.2832 88.9586 80.2832Z" fill="#4A8EFF"/>
<path d="M62.6602 82.8929C62.6602 82.2018 62.9366 81.5369 63.4287 81.0476C63.9208 80.5583 64.587 80.2832 65.2823 80.2832C65.9776 80.2832 66.6452 80.5583 67.1373 81.0476C67.628 81.5369 67.9044 82.2018 67.9044 82.8929C67.9044 83.5854 67.628 84.2503 67.1373 84.7396C66.6452 85.2289 65.9776 85.504 65.2823 85.504C64.587 85.504 63.9208 85.2289 63.4287 84.7396C62.9366 84.2503 62.6602 83.5854 62.6602 82.8929Z" fill="#4A8EFF"/>
<path d="M41.605 80.2832C40.1578 80.2832 38.9829 81.4512 38.9829 82.8929C38.9829 84.336 40.1578 85.504 41.605 85.504C43.0536 85.504 44.2272 84.336 44.2272 82.8929C44.2272 81.4512 43.0536 80.2832 41.605 80.2832Z" fill="#4A8EFF"/>
<path d="M15.3022 82.8504C15.2801 82.3362 15.41 81.8275 15.6768 81.3866C15.9436 80.947 16.3362 80.5946 16.8034 80.3748C17.2706 80.1564 17.7917 80.079 18.3031 80.1536C18.8146 80.2283 19.2914 80.4522 19.6757 80.7964C20.06 81.1406 20.3337 81.5898 20.4622 82.0874C20.5894 82.5864 20.5673 83.1103 20.3972 83.5968C20.2272 84.082 19.9176 84.5077 19.5057 84.8174C19.0938 85.1284 18.5989 85.3108 18.0833 85.3426C17.735 85.3634 17.3867 85.3164 17.0577 85.2017C16.7287 85.0883 16.426 84.91 16.1675 84.6778C15.909 84.4456 15.699 84.165 15.5497 83.8512C15.4018 83.5374 15.3174 83.1974 15.3022 82.8504Z" fill="#0151DA"/>
<path d="M207.452 54.1504C206.005 54.1504 204.83 55.3198 204.83 56.7615C204.83 58.2031 206.005 59.3726 207.452 59.3726C208.9 59.3726 210.074 58.2031 210.074 56.7615C210.074 55.3198 208.9 54.1504 207.452 54.1504Z" fill="#4A8EFF"/>
<path d="M183.719 54.1504C182.272 54.1504 181.097 55.3198 181.097 56.7615C181.097 58.2031 182.272 59.3726 183.719 59.3726C185.168 59.3726 186.341 58.2031 186.341 56.7615C186.341 55.3198 185.168 54.1504 183.719 54.1504Z" fill="#4A8EFF"/>
<path d="M160.043 54.1504C158.595 54.1504 157.42 55.3198 157.42 56.7615C157.42 58.2031 158.595 59.3726 160.043 59.3726C161.491 59.3726 162.665 58.2031 162.665 56.7615C162.665 55.3198 161.491 54.1504 160.043 54.1504Z" fill="#4A8EFF"/>
<path d="M136.367 54.1504C134.919 54.1504 133.745 55.3198 133.745 56.7615C133.745 58.2031 134.919 59.3726 136.367 59.3726C137.814 59.3726 138.989 58.2031 138.989 56.7615C138.989 55.3198 137.814 54.1504 136.367 54.1504Z" fill="#4A8EFF"/>
<path d="M112.69 54.1504C111.242 54.1504 110.068 55.3198 110.068 56.7615C110.068 58.2031 111.242 59.3726 112.69 59.3726C114.138 59.3726 115.313 58.2031 115.313 56.7615C115.313 55.3198 114.138 54.1504 112.69 54.1504Z" fill="#4A8EFF"/>
<path d="M88.9586 54.1504C87.51 54.1504 86.3364 55.3198 86.3364 56.7615C86.3364 58.2031 87.51 59.3726 88.9586 59.3726C90.4072 59.3726 91.5807 58.2031 91.5807 56.7615C91.5807 55.3198 90.4072 54.1504 88.9586 54.1504Z" fill="#4A8EFF"/>
<path d="M62.6602 56.8154C62.6602 56.2999 62.8149 55.7954 63.1024 55.3655C63.39 54.9356 63.8005 54.6011 64.2788 54.4034C64.7584 54.2057 65.2851 54.1546 65.7937 54.2555C66.3024 54.3564 66.7696 54.6038 67.1373 54.9701C67.5036 55.3351 67.7538 55.7995 67.8547 56.3068C67.9556 56.8127 67.9031 57.3379 67.7054 57.8148C67.5064 58.2917 67.1705 58.6995 66.7392 58.987C66.3079 59.2731 65.8007 59.4265 65.2823 59.4265C64.587 59.4265 63.9208 59.1515 63.4287 58.6621C62.9366 58.1728 62.6602 57.508 62.6602 56.8154Z" fill="#4A8EFF"/>
<path d="M41.605 54.1504C40.1578 54.1504 38.9829 55.3198 38.9829 56.7615C38.9829 58.2031 40.1578 59.3726 41.605 59.3726C43.0536 59.3726 44.2272 58.2031 44.2272 56.7615C44.2272 55.3198 43.0536 54.1504 41.605 54.1504Z" fill="#4A8EFF"/>
<path d="M15.3032 56.8152C15.3032 56.1227 15.5797 55.4592 16.0704 54.9699C16.5625 54.4792 17.2301 54.2041 17.9254 54.2041C18.6207 54.2041 19.2869 54.4792 19.779 54.9699C20.2711 55.4592 20.5475 56.1227 20.5475 56.8152C20.5475 57.158 20.4798 57.498 20.3471 57.8146C20.2158 58.1311 20.0223 58.42 19.779 58.6619C19.5357 58.9038 19.2468 59.0959 18.9289 59.2272C18.611 59.3586 18.2696 59.4263 17.9254 59.4263C17.5812 59.4263 17.2398 59.3586 16.9218 59.2272C16.6039 59.0959 16.315 58.9038 16.0704 58.6619C15.8271 58.42 15.635 58.1311 15.5023 57.8146C15.371 57.498 15.3032 57.158 15.3032 56.8152Z" fill="#4E75CB"/>
<path d="M207.452 28.0767C206.005 28.0767 204.831 29.2447 204.831 30.6864C204.831 32.1295 206.005 33.2975 207.452 33.2975C208.9 33.2975 210.074 32.1295 210.074 30.6864C210.074 29.2447 208.9 28.0767 207.452 28.0767Z" fill="#4A8EFF"/>
<path d="M183.719 28.0767C182.272 28.0767 181.097 29.2447 181.097 30.6864C181.097 32.1295 182.272 33.2975 183.719 33.2975C185.168 33.2975 186.341 32.1295 186.341 30.6864C186.341 29.2447 185.168 28.0767 183.719 28.0767Z" fill="#4A8EFF"/>
<path d="M160.043 28.0767C158.595 28.0767 157.42 29.2447 157.42 30.6864C157.42 32.1295 158.595 33.2975 160.043 33.2975C161.491 33.2975 162.665 32.1295 162.665 30.6864C162.665 29.2447 161.491 28.0767 160.043 28.0767Z" fill="#4A8EFF"/>
<path d="M136.367 28.0767C134.919 28.0767 133.745 29.2447 133.745 30.6864C133.745 32.1295 134.919 33.2975 136.367 33.2975C137.814 33.2975 138.989 32.1295 138.989 30.6864C138.989 29.2447 137.814 28.0767 136.367 28.0767Z" fill="#4A8EFF"/>
<path d="M112.69 28.0767C111.242 28.0767 110.068 29.2447 110.068 30.6864C110.068 32.1295 111.242 33.2975 112.69 33.2975C114.138 33.2975 115.313 32.1295 115.313 30.6864C115.313 29.2447 114.138 28.0767 112.69 28.0767Z" fill="#0151DA"/>
<path d="M88.9586 28.0767C87.51 28.0767 86.3364 29.2447 86.3364 30.6864C86.3364 32.1295 87.51 33.2975 88.9586 33.2975C90.4072 33.2975 91.5807 32.1295 91.5807 30.6864C91.5807 29.2447 90.4072 28.0767 88.9586 28.0767Z" fill="#4A8EFF"/>
<path d="M62.6602 30.6864C62.6602 29.9939 62.9366 29.3304 63.4287 28.8411C63.9208 28.3517 64.587 28.0767 65.2823 28.0767C65.9776 28.0767 66.6452 28.3517 67.1373 28.8411C67.628 29.3304 67.9044 29.9939 67.9044 30.6864C67.9044 31.3789 67.628 32.0438 67.1373 32.5331C66.6452 33.0224 65.9776 33.2975 65.2823 33.2975C64.587 33.2975 63.9208 33.0224 63.4287 32.5331C62.9366 32.0438 62.6602 31.3789 62.6602 30.6864Z" fill="#4A8EFF"/>
<path d="M41.605 28.0767C40.1578 28.0767 38.9829 29.2447 38.9829 30.6864C38.9829 32.1295 40.1578 33.2975 41.605 33.2975C43.0536 33.2975 44.2272 32.1295 44.2272 30.6864C44.2272 29.2447 43.0536 28.0767 41.605 28.0767Z" fill="#4A8EFF"/>
<path d="M15.3032 30.6865C15.3032 30.171 15.4567 29.6664 15.7456 29.2365C16.0331 28.8067 16.4422 28.4722 16.9218 28.2745C17.4001 28.0768 17.9281 28.0257 18.4368 28.1266C18.9455 28.2275 19.4127 28.4763 19.779 28.8412C20.1467 29.2061 20.3955 29.672 20.4964 30.1779C20.5986 30.6838 20.5461 31.209 20.3471 31.6859C20.1494 32.1628 19.8135 32.5706 19.3823 32.8581C18.951 33.1456 18.4437 33.2976 17.9254 33.2976C17.2301 33.2976 16.5625 33.0226 16.0704 32.5333C15.5797 32.0439 15.3032 31.379 15.3032 30.6865Z" fill="#4A8EFF"/>
<path d="M207.452 1.94775C206.005 1.94775 204.831 3.11716 204.831 4.55886C204.831 6.00055 206.005 7.16994 207.452 7.16994C208.9 7.16994 210.074 6.00055 210.074 4.55886C210.074 3.11716 208.9 1.94775 207.452 1.94775Z" fill="#4A8EFF"/>
<path d="M183.719 1.94775C182.272 1.94775 181.097 3.11716 181.097 4.55886C181.097 6.00055 182.272 7.16994 183.719 7.16994C185.168 7.16994 186.341 6.00055 186.341 4.55886C186.341 3.11716 185.168 1.94775 183.719 1.94775Z" fill="#4A8EFF"/>
<path d="M160.043 1.94775C158.595 1.94775 157.42 3.11716 157.42 4.55886C157.42 6.00055 158.595 7.16994 160.043 7.16994C161.491 7.16994 162.665 6.00055 162.665 4.55886C162.665 3.11716 161.491 1.94775 160.043 1.94775Z" fill="#4A8EFF"/>
<path d="M136.367 1.94775C134.919 1.94775 133.745 3.11716 133.745 4.55886C133.745 6.00055 134.919 7.16994 136.367 7.16994C137.814 7.16994 138.989 6.00055 138.989 4.55886C138.989 3.11716 137.814 1.94775 136.367 1.94775Z" fill="#4A8EFF"/>
<path d="M112.69 1.94775C111.242 1.94775 110.068 3.11716 110.068 4.55886C110.068 6.00055 111.242 7.16994 112.69 7.16994C114.138 7.16994 115.313 6.00055 115.313 4.55886C115.313 3.11716 114.138 1.94775 112.69 1.94775Z" fill="#4A8EFF"/>
<path d="M88.9586 1.94775C87.51 1.94775 86.3364 3.11716 86.3364 4.55886C86.3364 6.00055 87.51 7.16994 88.9586 7.16994C90.4072 7.16994 91.5807 6.00055 91.5807 4.55886C91.5807 3.11716 90.4072 1.94775 88.9586 1.94775Z" fill="#4A8EFF"/>
<path d="M62.6602 4.61401C62.6602 3.9215 62.9366 3.25663 63.4287 2.76731C63.9208 2.27799 64.587 2.00293 65.2823 2.00293C65.9776 2.00293 66.6452 2.27799 67.1373 2.76731C67.628 3.25663 67.9044 3.9215 67.9044 4.61401C67.9044 5.30652 67.628 5.97002 67.1373 6.45934C66.6452 6.95004 65.9776 7.22511 65.2823 7.22511C64.587 7.22511 63.9208 6.95004 63.4287 6.45934C62.9366 5.97002 62.6602 5.30652 62.6602 4.61401Z" fill="#4A8EFF"/>
<path d="M41.605 1.94775C40.1578 1.94775 38.9829 3.11716 38.9829 4.55886C38.9829 6.00055 40.1578 7.16994 41.605 7.16994C43.0536 7.16994 44.2272 6.00055 44.2272 4.55886C44.2272 3.11716 43.0536 1.94775 41.605 1.94775Z" fill="#070C3A"/>
<path d="M15.3032 4.61432C15.3032 4.09736 15.4567 3.59285 15.7456 3.16297C16.0331 2.73447 16.4422 2.39857 16.9218 2.20229C17.4001 2.00462 17.9281 1.95209 18.4368 2.053C18.9455 2.1539 19.4127 2.40271 19.779 2.76763C20.1467 3.13254 20.3955 3.59838 20.4964 4.10429C20.5986 4.61158 20.5461 5.13544 20.3471 5.61232C20.1494 6.09058 19.8135 6.49836 19.3823 6.78448C18.951 7.07199 18.4437 7.22543 17.9254 7.22543C17.2301 7.22543 16.5625 6.95035 16.0704 6.45965C15.5797 5.97033 15.3032 5.30684 15.3032 4.61432Z" fill="#4A8EFF"/>
</g>
</g>
</svg>
