<svg xmlns="http://www.w3.org/2000/svg" xmlns:xlink="http://www.w3.org/1999/xlink"><defs><clipPath id="clip0_167_896"><path fill="#fff" transform="rotate(180 9 14)" d="M0 0h18v28H0z"/></clipPath></defs><symbol id="about1" viewBox="0 0 72 72"><path d="M52.364 9.818L18 26.182v19.636c0 .125.028.242.072.357.167.727.787 1.28 1.564 1.28l7.042 2.804a1.634 1.634 0 002.776-1.168V32.727l34.364-18-11.454-4.909z" fill="#070C3A" fill-opacity=".5"/><path d="M71.062 16.534l.005-.012L36.704.16S36.512 0 36 0s-.704.159-.704.159L.933 16.522l.003.009C.806 16.585 0 17.024 0 18v36c0 .65.386 1.203.938 1.466l-.005.01L35.296 71.84l.005-.01A1.6 1.6 0 0036 72a1.6 1.6 0 00.699-.17l.005.01 34.363-16.364-.005-.01c.552-.263.938-.816.938-1.466V18c0-.358-.21-1.12-.938-1.466zM54.04 12.039L21.273 27.322v16.08l-4.91-1.964V24.545L48.66 9.476l5.38 2.563zM36 3.448l8.794 4.189-30.558 14.55L5.443 18 36 3.448zm-1.636 64.324L3.273 52.966V20.592l9.818 4.675v17.278c0 .69.429 1.272 1.03 1.514v.007l8.15 3.26c-.363-.154.237.129.638.129.905 0 1.637-.732 1.637-1.637V30.721l9.818 4.675v32.376zM36 32.552l-8.96-4.266 30.83-14.421L66.558 18 36 32.552zm32.727 20.414l-31.09 14.806V35.398l31.09-14.806v32.374z" fill="#070C3A"/></symbol><symbol id="apps1" viewBox="0 0 60 60"><path d="M44.675 54.675c-.775 0-1.55-.2-2.25-.625L32.4 48.1c-1.05-.025-2.1-.1-3.1-.25a1.9 1.9 0 01-1.5-1.2 1.83 1.83 0 01.325-1.875c1.65-1.925 2.5-4.225 2.5-6.675 0-6.05-5.325-10.975-11.875-10.975-2.45 0-4.8.675-6.775 1.975-.55.35-1.225.4-1.825.125-.575-.275-1-.825-1.075-1.475-.075-.7-.125-1.4-.125-2.125C8.95 13.225 19.7 3.15 32.9 3.15s23.95 10.075 23.95 22.475c0 6.8-3.15 13.05-8.7 17.325l.85 6.8c.2 1.7-.55 3.3-1.975 4.225-.7.45-1.525.7-2.35.7zm-11.8-10.35a1.6 1.6 0 011 .275l10.475 6.225c.275.175.5.1.65 0a.606.606 0 00.275-.625l-.975-7.9c-.075-.7.225-1.375.775-1.775 5.1-3.575 8.025-9.025 8.025-14.95C53.1 15.25 44.05 6.85 32.9 6.85c-10.725 0-19.525 7.8-20.175 17.6a16.613 16.613 0 016-1.125c8.625 0 15.625 6.6 15.625 14.725.025 2.2-.5 4.325-1.475 6.275z" fill="#fff"/><path d="M11.45 56.875c-.65 0-1.276-.175-1.85-.55a3.427 3.427 0 01-1.576-3.3l.5-3.85c-3.375-2.75-5.375-6.825-5.375-11.1 0-4.875 2.55-9.425 6.825-12.15 2.575-1.675 5.625-2.575 8.8-2.575 8.625 0 15.625 6.6 15.625 14.725 0 3.3-1.2 6.55-3.4 9.125-2.825 3.425-7.05 5.425-11.7 5.575L13.2 56.4c-.55.325-1.15.475-1.75.475zm7.3-29.775c-2.45 0-4.8.675-6.776 1.975-3.2 2.05-5.1 5.4-5.1 9 0 3.475 1.7 6.65 4.7 8.7a1.9 1.9 0 01.8 1.775l-.55 4.275 5.975-3.55c.3-.175.625-.275.95-.275 3.675 0 7.15-1.575 9.35-4.25 1.65-1.95 2.525-4.25 2.525-6.7 0-6.025-5.325-10.95-11.875-10.95z" fill="#fff"/></symbol><symbol id="apps10" viewBox="0 0 60 60"><path d="M32.5 36.875H5A1.889 1.889 0 013.125 35V19.05c0-.8.5-1.5 1.225-1.775a1.859 1.859 0 012.075.55c1.525 1.825 3.9 2.85 6.25 2.775 2-.05 3.85-.8 5.25-2.125.65-.55 1.175-1.2 1.575-1.925a8.088 8.088 0 001.125-4.25c-.05-2.3-1.05-4.4-2.75-5.925A1.87 1.87 0 0117.35 4.3a1.892 1.892 0 011.75-1.225h18.4c1.025 0 1.875.85 1.875 1.875v25c0 3.85-3.075 6.925-6.875 6.925zm-25.625-3.75H32.5c1.725 0 3.125-1.4 3.125-3.125V6.875h-12.65a11.91 11.91 0 011.4 5.35c.05 2.175-.5 4.325-1.6 6.2-.6 1.075-1.425 2.1-2.325 2.85-2 1.9-4.75 3.025-7.675 3.1-2.075.075-4.125-.45-5.875-1.4v10.15h-.025z" fill="#fff"/><path d="M47.5 51.875H45A1.889 1.889 0 0143.125 50a3.126 3.126 0 00-6.25 0c0 1.025-.85 1.875-1.875 1.875H25A1.889 1.889 0 0123.125 50a3.126 3.126 0 00-6.25 0c0 1.025-.85 1.875-1.875 1.875h-2.5c-5.175 0-9.375-4.2-9.375-9.375V35c0-1.025.85-1.875 1.875-1.875h27.5c1.725 0 3.125-1.4 3.125-3.125V12.5c0-1.025.85-1.875 1.875-1.875h4.6a6.87 6.87 0 015.975 3.475l4.275 7.475c.325.575.325 1.3 0 1.875s-.95.925-1.625.925H47.5a.619.619 0 00-.625.625v7.5c0 .35.275.625.625.625H55c1.025 0 1.875.85 1.875 1.875v7.5c0 5.175-4.2 9.375-9.375 9.375zm-.875-3.75h.875c3.1 0 5.625-2.525 5.625-5.625v-5.625H47.5c-2.4 0-4.375-1.975-4.375-4.375V25a4.38 4.38 0 014.375-4.375l-2.675-4.675a3.13 3.13 0 00-2.725-1.575h-2.725V30c0 3.8-3.075 6.875-6.875 6.875H6.875V42.5c0 3.1 2.525 5.625 5.625 5.625h.875c.825-2.875 3.475-5 6.625-5s5.8 2.125 6.625 5H33.4c.825-2.875 3.475-5 6.625-5s5.775 2.125 6.6 5z" fill="#fff"/><path d="M20 56.875A6.871 6.871 0 0113.125 50c0-3.8 3.075-6.875 6.875-6.875S26.875 46.2 26.875 50 23.8 56.875 20 56.875zm0-10a3.126 3.126 0 000 6.25 3.126 3.126 0 000-6.25zm20 10A6.871 6.871 0 0133.125 50c0-3.8 3.075-6.875 6.875-6.875S46.875 46.2 46.875 50 43.8 56.875 40 56.875zm0-10a3.126 3.126 0 000 6.25 3.126 3.126 0 000-6.25zm15-10h-7.5c-2.4 0-4.375-1.975-4.375-4.375V25c0-2.4 1.975-4.375 4.375-4.375h3.225c.675 0 1.3.35 1.625.95l4.275 7.5c.15.275.25.6.25.925v5c0 1.025-.85 1.875-1.875 1.875zm-7.5-12.5a.619.619 0 00-.625.625v7.5c0 .35.275.625.625.625h5.625V30.5l-3.5-6.125H47.5zm-35 0C5.95 24.375.625 19.05.625 12.5c0-3.65 1.625-7.025 4.45-9.275 2.1-1.675 4.75-2.6 7.425-2.6 6.55 0 11.875 5.325 11.875 11.875 0 3.4-1.475 6.65-4.05 8.9a11.79 11.79 0 01-7.825 2.975zm0-20c-1.85 0-3.6.625-5.075 1.8a8.06 8.06 0 00-3.05 6.325c0 4.475 3.65 8.125 8.125 8.125 1.95 0 3.85-.725 5.375-2.025a8.117 8.117 0 002.75-6.1c0-4.475-3.65-8.125-8.125-8.125z" fill="#fff"/><path d="M10 16.875c-.625 0-1.25-.325-1.6-.9-.525-.9-.25-2.05.65-2.575l2.225-1.325v-2.7c0-1.025.85-1.875 1.875-1.875s1.875.85 1.875 1.875v3.75c0 .65-.35 1.275-.9 1.6L11 16.6c-.35.2-.675.275-1 .275z" fill="#fff"/></symbol><symbol id="apps11" viewBox="0 0 60 60"><path d="M40 56.875H20c-9.125 0-14.375-5.25-14.375-14.375v-25c0-9.125 5.25-14.375 14.375-14.375h20c9.125 0 14.375 5.25 14.375 14.375v25c0 9.125-5.25 14.375-14.375 14.375zm-20-50c-7.15 0-10.625 3.475-10.625 10.625v25c0 7.15 3.475 10.625 10.625 10.625h20c7.15 0 10.625-3.475 10.625-10.625v-25c0-7.15-3.475-10.625-10.625-10.625H20z" fill="#fff"/><path d="M22.5 27.775c-.425 0-.85-.075-1.25-.25a3.109 3.109 0 01-1.875-2.85V5c0-1.025.85-1.875 1.875-1.875h17.5c1.025 0 1.875.85 1.875 1.875v19.65c0 1.25-.725 2.375-1.875 2.85a3.12 3.12 0 01-3.375-.575L30 22l-5.375 4.95c-.6.55-1.35.825-2.125.825zm7.5-9.75c.75 0 1.525.275 2.125.825l4.75 4.375V6.875h-13.75v16.35l4.75-4.375A3.16 3.16 0 0130 18.025zm13.75 18.85H33.125A1.889 1.889 0 0131.25 35c0-1.025.85-1.875 1.875-1.875H43.75c1.025 0 1.875.85 1.875 1.875s-.85 1.875-1.875 1.875zm0 10H22.5A1.889 1.889 0 0120.625 45c0-1.025.85-1.875 1.875-1.875h21.25c1.025 0 1.875.85 1.875 1.875s-.85 1.875-1.875 1.875z" fill="#fff"/></symbol><symbol id="apps12" viewBox="0 0 60 60"><path d="M30.025 42.5c-2.125 0-4.275-.55-5.95-1.625L9.025 31.05A9.807 9.807 0 014.55 22.8a9.807 9.807 0 014.475-8.25L24.1 4.75c3.35-2.175 8.575-2.175 11.9.025L50.975 14.6a9.833 9.833 0 014.45 8.225c0 3.325-1.675 6.4-4.45 8.225L36 40.875c-1.675 1.1-3.825 1.625-5.975 1.625zm0-35.625c-1.425 0-2.85.325-3.875 1.025L11.1 17.7c-1.75 1.15-2.775 3-2.775 5.1 0 2.1 1 3.95 2.775 5.1l15.05 9.825c2.075 1.35 5.725 1.35 7.8 0L48.925 27.9c1.75-1.15 2.75-3 2.75-5.1 0-2.1-1-3.95-2.75-5.1L33.95 7.875c-1.05-.65-2.475-1-3.925-1z" fill="#fff"/><path d="M30 56.875c-1.1 0-2.225-.15-3.125-.45l-7.975-2.65c-3.775-1.25-6.75-5.375-6.725-9.35L12.2 32.7c0-1.025.85-1.875 1.875-1.875s1.875.85 1.875 1.875l-.025 11.725c0 2.35 1.95 5.05 4.175 5.8l7.975 2.65c1 .325 2.85.325 3.85 0l7.975-2.65c2.225-.75 4.175-3.45 4.175-5.775v-11.6c0-1.025.85-1.875 1.875-1.875s1.875.85 1.875 1.875v11.6c0 3.975-2.95 8.075-6.725 9.35l-7.975 2.65c-.9.275-2.025.425-3.125.425zm23.5-17.5a1.889 1.889 0 01-1.875-1.875v-15c0-1.025.85-1.875 1.875-1.875s1.875.85 1.875 1.875v15c0 1.025-.85 1.875-1.875 1.875z" fill="#fff"/></symbol><symbol id="apps13" viewBox="0 0 60 60"><path d="M16.3 40.65c-.475 0-.95-.175-1.325-.55a1.886 1.886 0 010-2.65l7.625-7.625a1.886 1.886 0 012.65 0 1.886 1.886 0 010 2.65L17.625 40.1c-.375.35-.85.55-1.325.55z" fill="#fff"/><path d="M24 40.725c-.475 0-.95-.175-1.325-.55L15.05 32.55a1.886 1.886 0 010-2.65 1.886 1.886 0 012.65 0l7.625 7.625a1.886 1.886 0 010 2.65c-.375.375-.85.55-1.325.55zm9.85-3.225c-1.375 0-2.525-1.125-2.525-2.5s1.1-2.5 2.475-2.5h.05c1.375 0 2.5 1.125 2.5 2.5s-1.1 2.5-2.5 2.5zm9.85 0c-1.375 0-2.525-1.125-2.525-2.5s1.1-2.5 2.475-2.5h.05c1.375 0 2.5 1.125 2.5 2.5s-1.125 2.5-2.5 2.5zm-4.95 4.925c-1.375 0-2.5-1.1-2.5-2.475v-.05c0-1.375 1.125-2.5 2.5-2.5s2.5 1.125 2.5 2.5-1.1 2.525-2.5 2.525zm0-9.85c-1.375 0-2.5-1.1-2.5-2.475v-.05c0-1.375 1.125-2.5 2.5-2.5s2.5 1.125 2.5 2.5-1.1 2.525-2.5 2.525z" fill="#fff"/><path d="M37.5 56.875h-15c-13.575 0-19.375-5.8-19.375-19.375v-5c0-13.575 5.8-19.375 19.375-19.375h15c13.575 0 19.375 5.8 19.375 19.375v5c0 13.575-5.8 19.375-19.375 19.375zm-15-40c-11.525 0-15.625 4.1-15.625 15.625v5c0 11.525 4.1 15.625 15.625 15.625h15c11.525 0 15.625-4.1 15.625-15.625v-5c0-11.525-4.1-15.625-15.625-15.625h-15z" fill="#fff"/><path d="M32.475 16.875h-2.5c-2.4 0-4.375-1.975-4.375-4.375s1.95-4.375 4.35-4.375c.4 0 .675-.275.7-.625l.025-2.525a1.884 1.884 0 011.875-1.85h.025c1.025.025 1.875.875 1.85 1.9L34.4 7.55c-.025 2.375-2 4.325-4.375 4.325-.4 0-.65.275-.65.625s.275.625.625.625h2.5c1.025 0 1.875.85 1.875 1.875s-.875 1.875-1.9 1.875z" fill="#fff"/></symbol><symbol id="apps14" viewBox="0 0 60 60"><path d="M40.95 56.875H8.1a7.414 7.414 0 01-6-3.025 7.444 7.444 0 01-1.15-6.725L11.475 13.3c.95-3.15 3.85-5.3 7.15-5.3h30.75c3.025 0 5.75 1.8 6.9 4.6.625 1.45.75 3.1.375 4.725L48.225 51.15c-.8 3.375-3.8 5.725-7.275 5.725zm-22.3-45.1a3.75 3.75 0 00-3.575 2.65L4.55 48.25c-.35 1.175-.15 2.4.6 3.4.7.95 1.8 1.5 2.975 1.5h32.85A3.719 3.719 0 0044.6 50.3l8.425-33.85c.2-.825.15-1.65-.175-2.375-.6-1.425-1.925-2.325-3.45-2.325H18.65v.025z" fill="#fff"/><path d="M51.95 56.875H40A1.889 1.889 0 0138.125 55c0-1.025.85-1.875 1.875-1.875h11.95a3.634 3.634 0 002.675-1.175c.7-.75 1.05-1.75.975-2.775l-2.475-34.05a1.872 1.872 0 011.725-2c1.025-.05 1.925.7 2 1.725l2.475 34.05c.15 2.05-.575 4.1-1.975 5.6-1.375 1.525-3.35 2.375-5.4 2.375zM24.2 17.825c-.15 0-.3-.025-.45-.05-1-.25-1.625-1.25-1.375-2.275l2.6-10.8c.25-1 1.25-1.625 2.274-1.375 1 .25 1.626 1.25 1.376 2.275l-2.6 10.8c-.2.85-.976 1.425-1.826 1.425zm16.749.025c-.125 0-.275 0-.4-.05a1.914 1.914 0 01-1.45-2.225l2.35-10.85a1.894 1.894 0 012.225-1.45c1 .2 1.65 1.225 1.45 2.225l-2.35 10.85c-.175.9-.95 1.5-1.825 1.5zM39.25 31.875h-20A1.889 1.889 0 0117.375 30c0-1.025.85-1.875 1.875-1.875h20c1.026 0 1.876.85 1.876 1.875s-.85 1.875-1.875 1.875zm-2.5 10h-20A1.889 1.889 0 0114.876 40c0-1.025.85-1.875 1.874-1.875h20c1.026 0 1.876.85 1.876 1.875s-.85 1.875-1.875 1.875z" fill="#fff"/></symbol><symbol id="apps15" viewBox="0 0 60 60"><path d="M21.45 56.375c-.55 0-1.124-.1-1.65-.325a4.413 4.413 0 01-2.474-2.7l-1.1-3.3c-.5-1.5-.05-3.375 1.05-4.5l5.675-5.7c.075-.075.175-.35.175-.475V33.2l-11.4 4.925c-1.525.65-3.075.575-4.25-.2C6.3 37.15 5.6 35.75 5.6 34.125V30.9c0-2.45 1.75-5.075 3.975-5.95L23.1 19.1V12c0-3.025 2.125-6.5 4.825-7.9 1.3-.65 2.8-.65 4.075 0 2.725 1.4 4.85 4.85 4.85 7.875v7.1l13.6 5.85c2.225.95 3.925 3.5 3.925 5.975v3.225c0 1.65-.675 3.025-1.875 3.8-1.2.775-2.725.85-4.25.225l-11.4-4.925V39.4c0 .1.1.35.175.425l5.7 5.725c1.1 1.1 1.55 3.025 1.05 4.5l-1.1 3.3c-.425 1.225-1.325 2.2-2.525 2.675a4.407 4.407 0 01-3.6-.125 3.257 3.257 0 01-.375-.25l-5.825-4.9c-.2-.175-.6-.15-.775 0l-5.825 4.9c-.1.1-.225.175-.35.225-.6.35-1.275.5-1.95.5zM23.9 29.1c.576 0 1.126.15 1.6.475.876.575 1.376 1.55 1.376 2.7V39.4c0 1.075-.525 2.35-1.275 3.1l-5.675 5.7c-.1.125-.2.5-.15.65l1.1 3.325c.075.25.25.35.35.4.075.025.2.075.35.025l5.6-4.725c1.575-1.35 4.05-1.35 5.625 0l5.575 4.7c.175.025.3 0 .375-.025.1-.05.3-.15.375-.4l1.1-3.3c.05-.175-.05-.55-.15-.65L34.4 42.5c-.75-.7-1.3-2-1.3-3.1v-7.125c0-1.125.475-2.1 1.325-2.675.85-.575 1.95-.65 3-.2l12.3 5.3c.375.15.625.15.7.1.075-.05.175-.275.175-.675V30.9c0-.95-.8-2.175-1.65-2.525L35 22.35c-1.1-.475-1.875-1.675-1.875-2.875v-7.5c0-1.65-1.3-3.775-2.8-4.525-.2-.1-.45-.1-.675 0-1.45.75-2.775 2.925-2.775 4.55v7.5c0 1.175-.775 2.4-1.875 2.875L11.05 28.4c-.875.35-1.675 1.575-1.675 2.5v3.225c0 .4.1.625.175.675.075.05.325.05.7-.1l12.275-5.3c.45-.2.925-.3 1.375-.3z" fill="#fff"/></symbol><symbol id="apps16" viewBox="0 0 60 60"><path d="M42.5 51.875h-25C6.875 51.875 3.4 48.7 3.15 38.8c0-.5.175-1 .525-1.35a1.91 1.91 0 011.35-.575c3.775 0 6.85-3.1 6.85-6.875s-3.075-6.875-6.85-6.875c-.5 0-.975-.2-1.35-.575a1.75 1.75 0 01-.525-1.35C3.4 11.3 6.875 8.125 17.5 8.125h25c11.025 0 14.375 3.35 14.375 14.375v15c0 11.025-3.35 14.375-14.375 14.375zM6.975 40.45C7.4 46.8 9.55 48.125 17.5 48.125h25c8.95 0 10.625-1.7 10.625-10.625v-15c0-8.925-1.675-10.625-10.625-10.625h-25c-7.95 0-10.1 1.35-10.525 7.675 4.925.95 8.65 5.275 8.65 10.45 0 5.175-3.725 9.5-8.65 10.45z" fill="#fff"/><path d="M22.5 20.625a1.889 1.889 0 01-1.875-1.875V10c0-1.025.85-1.875 1.875-1.875s1.875.85 1.875 1.875v8.75c0 1.025-.85 1.875-1.875 1.875zm0 31.25A1.889 1.889 0 0120.625 50v-8.75c0-1.025.85-1.875 1.875-1.875s1.875.85 1.875 1.875V50c0 1.025-.85 1.875-1.875 1.875zm10.1-12.75c-.6 0-1.2-.2-1.7-.55-.9-.65-1.35-1.75-1.15-2.85l.525-2.975-2.175-2.125a2.927 2.927 0 01-.75-2.975 2.9 2.9 0 012.35-1.975l3-.45 1.35-2.725c.5-1 1.5-1.625 2.6-1.625 1.125 0 2.125.625 2.6 1.625l1.35 2.725 3 .45c1.1.15 2 .925 2.35 1.975.35 1.05.05 2.2-.75 2.975l-2.175 2.125.525 2.975c.2 1.1-.25 2.2-1.15 2.85-.9.65-2.075.725-3.05.225l-2.675-1.4-2.7 1.4a2.93 2.93 0 01-1.375.325zm-.675-10l1.275 1.25c.7.675 1 1.625.85 2.575l-.3 1.75 1.575-.825c.85-.45 1.85-.45 2.7 0l1.575.825-.3-1.75c-.15-.975.15-1.925.85-2.575l1.275-1.25-1.75-.25a2.983 2.983 0 01-2.2-1.6l-.775-1.6-.775 1.6a2.983 2.983 0 01-2.2 1.6l-1.8.25z" fill="#fff"/></symbol><symbol id="apps17" viewBox="0 0 60 60"><path d="M30 34.35a7.4 7.4 0 01-5.225-2.15c-1.825-1.825-2.55-4.45-1.95-7.025a7.277 7.277 0 015.35-5.35c2.55-.625 5.175.1 7.025 1.95 1.85 1.85 2.55 4.45 1.95 7.025a7.277 7.277 0 01-5.35 5.35c-.6.125-1.2.2-1.8.2zm0-11c-.3 0-.625.05-.925.125A3.542 3.542 0 0026.5 26.05c-.325 1.3.025 2.575.95 3.475.925.925 2.175 1.25 3.5.95a3.542 3.542 0 002.575-2.575c.325-1.3-.025-2.575-.95-3.475-.7-.7-1.6-1.075-2.575-1.075z" fill="#fff"/><path d="M15.05 44.925c-.45 0-.925-.175-1.275-.5a23.863 23.863 0 01-7.625-17.45c0-13.15 10.7-23.85 23.85-23.85 13.15 0 23.85 10.7 23.85 23.85 0 6.65-2.675 12.8-7.525 17.375-.75.7-1.95.675-2.65-.075s-.675-1.95.075-2.65C47.85 37.775 50.1 32.6 50.1 27c0-11.075-9.025-20.1-20.1-20.1C18.925 6.9 9.9 15.925 9.9 27c0 5.65 2.275 10.85 6.425 14.7.75.7.8 1.9.1 2.65a1.952 1.952 0 01-1.375.575z" fill="#fff"/><path d="M40 38.25c-.45 0-.925-.175-1.275-.5-.75-.7-.8-1.9-.075-2.65a11.81 11.81 0 003.225-8.1c0-6.55-5.325-11.85-11.85-11.85-6.525 0-11.85 5.325-11.85 11.85 0 3.025 1.15 5.9 3.225 8.1.7.75.675 1.95-.075 2.65s-1.95.675-2.65-.075c-2.725-2.9-4.25-6.7-4.25-10.675 0-8.6 7-15.6 15.6-15.6s15.6 7 15.6 15.6c0 3.975-1.5 7.775-4.25 10.675A1.952 1.952 0 0140 38.25z" fill="#fff"/><path d="M33.6 56.875h-7.175c-2.85 0-5.375-1.6-6.6-4.15a7.285 7.285 0 01.875-7.75l3.6-4.475a7.276 7.276 0 015.725-2.75c2.25 0 4.325 1 5.725 2.75l3.6 4.475c1.775 2.225 2.125 5.2.875 7.75-1.275 2.55-3.8 4.15-6.625 4.15zm-6.4-14.05L23.6 47.3c-.875 1.1-1.05 2.525-.425 3.775C23.775 52.35 25 53.1 26.4 53.1h7.175c1.4 0 2.625-.75 3.225-2.025.6-1.275.45-2.675-.425-3.775l-3.6-4.475c-1.35-1.7-4.2-1.7-5.575 0z" fill="#fff"/></symbol><symbol id="apps18" viewBox="0 0 60 60"><path d="M55 56.875H5A1.889 1.889 0 013.125 55c0-1.025.85-1.875 1.875-1.875h50c1.025 0 1.875.85 1.875 1.875s-.85 1.875-1.875 1.875z" fill="#fff"/><path d="M52.5 56.875h-45A1.889 1.889 0 015.625 55V15C5.625 7.45 9.95 3.125 17.5 3.125h25c7.55 0 11.875 4.325 11.875 11.875v40c0 1.025-.85 1.875-1.875 1.875zm-43.125-3.75h41.25V15c0-5.55-2.575-8.125-8.125-8.125h-25c-5.55 0-8.125 2.575-8.125 8.125v38.125z" fill="#fff"/><path d="M37.5 56.875h-15A1.889 1.889 0 0120.625 55V39.85c0-2.325 1.9-4.225 4.225-4.225h10.325c2.325 0 4.225 1.9 4.225 4.225V55c-.025 1.025-.875 1.875-1.9 1.875zm-13.125-3.75h11.25V39.85c0-.25-.2-.475-.475-.475H24.825c-.25 0-.475.2-.475.475v13.275h.025zM30 29.375a1.889 1.889 0 01-1.875-1.875V15c0-1.025.85-1.875 1.875-1.875s1.875.85 1.875 1.875v12.5c0 1.025-.85 1.875-1.875 1.875z" fill="#fff"/><path d="M36.25 23.125h-12.5a1.889 1.889 0 01-1.875-1.875c0-1.025.85-1.875 1.875-1.875h12.5c1.025 0 1.875.85 1.875 1.875s-.85 1.875-1.875 1.875z" fill="#fff"/></symbol><symbol id="apps2" viewBox="0 0 60 60"><path d="M45.25 44.375h-30.5c-5.8 0-9.125-3.325-9.125-9.125V5c0-1.025.85-1.875 1.875-1.875h45c1.025 0 1.875.85 1.875 1.875v30.25c0 5.8-3.325 9.125-9.125 9.125zM9.375 6.875V35.25c0 3.725 1.65 5.375 5.375 5.375h30.475c3.725 0 5.375-1.65 5.375-5.375V6.875H9.375z" fill="#fff"/><path d="M55 6.875H5A1.889 1.889 0 013.125 5c0-1.025.85-1.875 1.875-1.875h50c1.025 0 1.875.85 1.875 1.875S56.025 6.875 55 6.875zm-35 50c-.7 0-1.35-.375-1.674-1.025-.475-.925-.1-2.05.85-2.525l8.95-4.475V42.5c0-1.025.85-1.875 1.875-1.875s1.875.85 1.875 1.875V50c0 .7-.4 1.35-1.05 1.675l-10 5c-.25.125-.55.2-.825.2z" fill="#fff"/><path d="M40 56.875a1.91 1.91 0 01-.825-.2l-10-5a1.907 1.907 0 01-.85-2.525c.475-.925 1.6-1.3 2.525-.85l10 5c.925.475 1.3 1.6.85 2.525a1.925 1.925 0 01-1.7 1.05zm-21.25-27.5a1.897 1.897 0 01-1.45-.675c-.675-.8-.55-1.975.25-2.65l7.875-6.575c.725-.6 1.65-.85 2.525-.7.9.15 1.675.7 2.15 1.5l2.625 4.375 7.325-6.1c.8-.65 1.975-.55 2.65.25.675.8.55 1.975-.25 2.65l-7.875 6.575c-.725.6-1.65.85-2.525.7-.9-.15-1.675-.7-2.15-1.5l-2.625-4.375-7.325 6.1c-.35.275-.775.425-1.2.425z" fill="#fff"/></symbol><symbol id="apps3" viewBox="0 0 60 60"><path d="M30 35.425c-5.325 0-9.675-4.325-9.675-9.675 0-5.35 4.35-9.65 9.675-9.65 5.325 0 9.675 4.325 9.675 9.675 0 5.35-4.35 9.65-9.675 9.65zm0-15.575c-3.25 0-5.925 2.65-5.925 5.925A5.922 5.922 0 0030 31.7a5.922 5.922 0 005.925-5.925c0-3.275-2.675-5.925-5.925-5.925z" fill="#fff"/><path d="M30 56.9c-3.7 0-7.425-1.4-10.325-4.175-7.375-7.1-15.525-18.425-12.45-31.9C10 8.6 20.675 3.125 30 3.125h.025c9.325 0 20 5.475 22.775 17.725 3.05 13.475-5.1 24.775-12.475 31.875C37.425 55.5 33.7 56.9 30 56.9zm0-50.025c-7.275 0-16.625 3.875-19.1 14.775C8.2 33.425 15.6 43.575 22.3 50a11.064 11.064 0 0015.425 0C44.4 43.575 51.8 33.425 49.15 21.65 46.65 10.75 37.275 6.875 30 6.875z" fill="#fff"/></symbol><symbol id="apps4" viewBox="0 0 60 60"><path d="M30 55.2c-.75 0-1.5-.175-2.125-.525-4.675-2.55-12.9-5.25-18.05-5.925l-.725-.1c-3.275-.4-5.975-3.475-5.975-6.8v-30.2c0-1.975.775-3.775 2.2-5.075a6.759 6.759 0 015.225-1.75c5.5.425 13.8 3.175 18.5 6.125l.6.35c.175.1.55.1.7.025l.4-.25c4.7-2.95 13-5.75 18.525-6.225h.3c1.825-.175 3.7.475 5.1 1.775 1.425 1.3 2.2 3.1 2.2 5.075v30.175c0 3.35-2.7 6.4-6 6.8l-.825.1c-5.15.675-13.4 3.4-17.975 5.925-.6.35-1.325.5-2.075.5zM9.95 8.55c-.8 0-1.525.275-2.1.8-.625.575-.975 1.4-.975 2.3v30.2c0 1.475 1.275 2.9 2.7 3.1l.75.1c5.625.75 14.25 3.575 19.25 6.3.225.1.55.125.675.075 5-2.775 13.675-5.625 19.325-6.375l.85-.1c1.425-.175 2.7-1.625 2.7-3.1V11.675c0-.925-.35-1.725-.975-2.325-.65-.575-1.475-.85-2.4-.8h-.3c-4.775.425-12.475 3-16.675 5.625l-.4.275c-1.375.85-3.325.85-4.65.025l-.6-.35C22.85 11.5 15.15 8.95 10.25 8.55h-.3z" fill="#fff"/><path d="M30 53.1a1.889 1.889 0 01-1.875-1.875v-37.5c0-1.025.85-1.875 1.875-1.875s1.875.85 1.875 1.875v37.5c0 1.05-.85 1.875-1.875 1.875zm-10.625-30H13.75a1.889 1.889 0 01-1.875-1.875c0-1.025.85-1.875 1.875-1.875h5.625c1.025 0 1.875.85 1.875 1.875S20.4 23.1 19.375 23.1zm1.875 7.5h-7.5a1.889 1.889 0 01-1.875-1.875c0-1.025.85-1.875 1.875-1.875h7.5c1.025 0 1.875.85 1.875 1.875s-.85 1.875-1.875 1.875z" fill="#fff"/></symbol><symbol id="apps5" viewBox="0 0 60 60"><path d="M45 19.775h-.325c-4.725-.15-8.25-3.8-8.25-8.3 0-4.6 3.75-8.325 8.325-8.325 4.575 0 8.325 3.75 8.325 8.325-.025 4.525-3.55 8.175-8.05 8.325 0-.025 0-.025-.025-.025zm-.25-12.9a4.577 4.577 0 00-4.575 4.575 4.558 4.558 0 004.4 4.575c.025-.025.225-.025.45 0 2.425-.125 4.3-2.125 4.325-4.575 0-2.525-2.05-4.575-4.6-4.575zm.275 31.325c-.975 0-1.95-.075-2.925-.25a1.875 1.875 0 01-1.525-2.175 1.875 1.875 0 012.175-1.525c3.075.525 6.325-.05 8.5-1.5 1.175-.775 1.8-1.75 1.8-2.725 0-.975-.65-1.925-1.8-2.7-2.175-1.45-5.475-2.025-8.575-1.475-1.025.2-2-.5-2.175-1.525-.175-1.025.5-2 1.525-2.175 4.075-.725 8.3.05 11.3 2.05 2.2 1.475 3.475 3.575 3.475 5.825 0 2.225-1.25 4.35-3.475 5.85-2.275 1.5-5.225 2.325-8.3 2.325zm-30.1-18.425h-.05a8.31 8.31 0 01-8.05-8.3c0-4.6 3.75-8.35 8.325-8.35 4.575 0 8.325 3.75 8.325 8.325 0 4.525-3.525 8.175-8.025 8.325l-.525-1.875.175 1.875h-.175zm.25-3.75c.15 0 .275 0 .425.025 2.225-.1 4.175-2.1 4.175-4.575A4.577 4.577 0 0015.2 6.9a4.577 4.577 0 00-4.575 4.575c0 2.45 1.9 4.425 4.325 4.575.025-.025.125-.025.225-.025zM14.9 38.2c-3.075 0-6.025-.825-8.3-2.325-2.2-1.475-3.475-3.6-3.475-5.85 0-2.225 1.275-4.35 3.475-5.825 3-2 7.225-2.775 11.3-2.05a1.875 1.875 0 011.525 2.175c-.175 1.025-1.15 1.725-2.175 1.525-3.1-.55-6.375.025-8.575 1.475-1.175.775-1.8 1.725-1.8 2.7 0 .975.65 1.95 1.8 2.725 2.175 1.45 5.425 2.025 8.5 1.5 1.025-.175 2 .525 2.175 1.525.175 1.025-.5 2-1.525 2.175-.975.175-1.95.25-2.925.25zm15.1.25h-.325c-4.725-.15-8.25-3.8-8.25-8.3 0-4.6 3.75-8.325 8.325-8.325 4.575 0 8.325 3.75 8.325 8.325-.025 4.525-3.55 8.175-8.05 8.325 0-.025 0-.025-.025-.025zm-.25-12.9a4.577 4.577 0 00-4.575 4.575 4.558 4.558 0 004.4 4.575c.025-.025.225-.025.45 0 2.425-.125 4.3-2.125 4.325-4.575 0-2.5-2.05-4.575-4.6-4.575zM30 56.9c-3 0-6-.775-8.326-2.35-2.2-1.475-3.475-3.575-3.475-5.825 0-2.225 1.25-4.375 3.475-5.85 4.675-3.1 12-3.1 16.65 0 2.2 1.475 3.475 3.575 3.475 5.825 0 2.225-1.25 4.375-3.475 5.85C36 56.1 33 56.9 30 56.9zm-6.25-10.875c-1.176.775-1.8 1.75-1.8 2.725 0 .975.65 1.925 1.8 2.7 3.374 2.275 9.1 2.275 12.474 0 1.175-.775 1.8-1.75 1.8-2.725 0-.975-.65-1.925-1.8-2.7-3.35-2.275-9.075-2.25-12.475 0z" fill="#fff"/></symbol><symbol id="apps6" viewBox="0 0 60 60"><path d="M42.95 46.875c-4.275 0-9.375-1.625-9.375-9.375v-15c0-7.75 5.1-9.375 9.375-9.375s9.375 1.625 9.375 9.375v15c0 7.75-5.1 9.375-9.375 9.375zm0-30c-4.05 0-5.625 1.575-5.625 5.625v15c0 4.05 1.575 5.625 5.625 5.625s5.625-1.575 5.625-5.625v-15c0-4.05-1.575-5.625-5.625-5.625zm-25.9 30c-4.275 0-9.375-1.625-9.375-9.375v-15c0-7.75 5.1-9.375 9.375-9.375s9.375 1.625 9.375 9.375v15c0 7.75-5.1 9.375-9.375 9.375zm0-30c-4.05 0-5.625 1.575-5.625 5.625v15c0 4.05 1.575 5.625 5.625 5.625s5.625-1.575 5.625-5.625v-15c0-4.05-1.575-5.625-5.625-5.625z" fill="#fff"/><path d="M35.45 31.875h-10.9A1.889 1.889 0 0122.675 30c0-1.025.85-1.875 1.875-1.875h10.9c1.025 0 1.875.85 1.875 1.875a1.872 1.872 0 01-1.875 1.875zm20.8 6.25a1.889 1.889 0 01-1.875-1.875v-12.5c0-1.025.85-1.875 1.875-1.875s1.875.85 1.875 1.875v12.5c0 1.025-.85 1.875-1.875 1.875zm-52.5 0a1.889 1.889 0 01-1.875-1.875v-12.5c0-1.025.85-1.875 1.875-1.875s1.875.85 1.875 1.875v12.5c0 1.025-.85 1.875-1.875 1.875z" fill="#fff"/></symbol><symbol id="apps7" viewBox="0 0 60 60"><path d="M43 56.875c-4.85 0-9.4-2.575-11.875-6.75-1.3-2.1-2-4.6-2-7.125 0-7.65 6.225-13.875 13.875-13.875S56.875 35.35 56.875 43c0 2.55-.7 5.025-2.025 7.175-2.45 4.125-7 6.7-11.85 6.7zm0-24c-5.575 0-10.125 4.55-10.125 10.125 0 1.85.5 3.65 1.45 5.2 1.85 3.1 5.075 4.925 8.675 4.925 3.6 0 6.825-1.825 8.65-4.9A9.889 9.889 0 0053.125 43c0-5.575-4.55-10.125-10.125-10.125z" fill="#fff"/><path d="M41.275 47.825c-.475 0-.95-.175-1.325-.55L37 44.325a1.886 1.886 0 010-2.65 1.886 1.886 0 012.65 0l1.675 1.675 5.075-4.7c.775-.7 1.95-.65 2.65.1s.65 1.95-.1 2.65l-6.4 5.9c-.35.375-.825.525-1.275.525z" fill="#fff"/><path d="M30 54.125c-.775 0-1.55-.1-2.175-.325-6.4-2.175-24.7-12.775-24.7-32.075 0-8.75 7.075-15.85 15.775-15.85a15.77 15.77 0 0111.1 4.6 15.77 15.77 0 0111.1-4.6c8.7 0 15.775 7.1 15.775 15.85 0 4.875-1.175 9.55-3.5 13.925-.275.525-.8.9-1.4.975-.6.075-1.2-.125-1.625-.575-1.95-2.05-4.55-3.2-7.35-3.2-5.575 0-10.125 4.55-10.125 10.125 0 2.475.925 4.875 2.6 6.75.4.45.55 1.05.425 1.625a1.945 1.945 0 01-1.05 1.325c-1 .45-1.9.825-2.725 1.1-.6.25-1.35.35-2.125.35zm-11.1-44.5c-6.625 0-12.025 5.425-12.025 12.1 0 17.1 16.425 26.55 22.175 28.525.475.175 1.425.15 1.875 0l.225-.075A13.648 13.648 0 0129.125 43c0-7.65 6.225-13.875 13.875-13.875 2.9 0 5.75.925 8.1 2.625 1.35-3.2 2.025-6.55 2.025-10.025 0-6.675-5.4-12.1-12.025-12.1-3.75 0-7.35 1.8-9.6 4.825-.7.95-2.3.95-3 0a12.03 12.03 0 00-9.6-4.825z" fill="#fff"/></symbol><symbol id="apps8" viewBox="0 0 60 60"><path d="M37.5 56.875h-15c-13.575 0-19.375-5.8-19.375-19.375v-15c0-13.575 5.8-19.375 19.375-19.375h15c13.575 0 19.375 5.8 19.375 19.375v15c0 13.575-5.8 19.375-19.375 19.375zm-15-50c-11.525 0-15.625 4.1-15.625 15.625v15c0 11.525 4.1 15.625 15.625 15.625h15c11.525 0 15.625-4.1 15.625-15.625v-15c0-11.525-4.1-15.625-15.625-15.625h-15z" fill="#fff"/><path d="M32.62 32.835H19v-4.02h13.518c1.092 0 1.989-.18 2.691-.541.711-.36 1.236-.861 1.574-1.503.347-.642.516-1.393.508-2.254.008-.844-.16-1.6-.508-2.268a3.69 3.69 0 00-1.549-1.595c-.685-.396-1.556-.593-2.614-.593h-5.103V43h-4.696V16h9.799c2.014 0 3.719.378 5.115 1.134 1.396.747 2.454 1.762 3.173 3.045.728 1.275 1.092 2.707 1.092 4.298 0 1.652-.368 3.107-1.104 4.364-.736 1.248-1.803 2.228-3.199 2.94-1.396.703-3.089 1.054-5.077 1.054zm.596 2.004v4.021H19v-4.02h14.216z" fill="#fff"/></symbol><symbol id="apps9" viewBox="0 0 60 60"><path d="M45.475 44.375H18.85a8.878 8.878 0 01-6.525-2.875A8.933 8.933 0 0110 34.75l2.075-24.9c.075-.775-.2-1.525-.725-2.1a2.705 2.705 0 00-2.025-.875H5A1.889 1.889 0 013.125 5c0-1.025.85-1.875 1.875-1.875h4.35c1.825 0 3.55.775 4.775 2.1a6.523 6.523 0 011.45 2.6H46.8c2.525 0 4.85 1 6.55 2.8 1.675 1.825 2.525 4.2 2.325 6.725l-1.35 18.75c-.275 4.575-4.275 8.275-8.85 8.275zM15.7 11.55l-1.95 23.5a5.084 5.084 0 001.325 3.9c.975 1.075 2.325 1.65 3.775 1.65h26.625c2.6 0 4.95-2.2 5.15-4.8l1.35-18.75c.1-1.475-.375-2.875-1.35-3.9-.975-1.05-2.325-1.625-3.8-1.625H15.7v.025zm24.925 45.325c-2.75 0-5-2.25-5-5s2.25-5 5-5 5 2.25 5 5-2.25 5-5 5zm0-6.25c-.7 0-1.25.55-1.25 1.25s.55 1.25 1.25 1.25 1.25-.55 1.25-1.25-.55-1.25-1.25-1.25zm-20 6.25c-2.75 0-5-2.25-5-5s2.25-5 5-5 5 2.25 5 5-2.25 5-5 5zm0-6.25c-.7 0-1.25.55-1.25 1.25s.55 1.25 1.25 1.25 1.25-.55 1.25-1.25-.55-1.25-1.25-1.25z" fill="#fff"/><path d="M52.5 21.875h-30A1.889 1.889 0 0120.625 20c0-1.025.85-1.875 1.875-1.875h30c1.025 0 1.875.85 1.875 1.875s-.85 1.875-1.875 1.875z" fill="#fff"/></symbol><symbol id="button-up" viewBox="0 0 18 28"><g clip-path="url(#clip0_167_896)" fill-rule="evenodd" clip-rule="evenodd" fill="#070C3A"><path d="M18 9.12l-3.862 3.915L9 7.828l-5.138 5.207L0 9.12 9 0l9 9.12zm0 13.035l-3.862 3.914L9 20.863l-5.138 5.206L0 22.155l9-9.12 9 9.12z"/></g></symbol><symbol id="chevron-left" viewBox="0 0 46 46"><path d="M28.75 39.617c-.364 0-.728-.134-1.016-.421L15.238 26.699c-2.032-2.032-2.032-5.367 0-7.398L27.734 6.804a1.446 1.446 0 012.032 0 1.446 1.446 0 010 2.032L17.269 21.332a2.36 2.36 0 000 3.335l12.497 12.497a1.446 1.446 0 010 2.032 1.506 1.506 0 01-1.016.421z" fill="#fff"/></symbol><symbol id="chevron-right" viewBox="0 0 46 46"><path d="M17.078 39.617c-.364 0-.729-.134-1.016-.421a1.446 1.446 0 010-2.032l12.497-12.497a2.36 2.36 0 000-3.335L16.062 8.836a1.446 1.446 0 010-2.032 1.446 1.446 0 012.032 0L30.59 19.301A5.22 5.22 0 0132.124 23c0 1.4-.537 2.722-1.534 3.7L18.094 39.195a1.506 1.506 0 01-1.016.421z" fill="#fff"/></symbol><symbol id="close" viewBox="0 0 24 24"><path d="M20.746 3.329a1 1 0 00-1.415 0l-7.294 7.294-7.294-7.294a1 1 0 10-1.414 1.414l7.294 7.294-7.294 7.294a1 1 0 001.414 1.415l7.294-7.295 7.294 7.295a1 1 0 001.415-1.415l-7.295-7.294 7.295-7.294a1 1 0 000-1.414z" fill="currentColor"/></symbol><symbol id="light" viewBox="0 0 658 694"><path d="M457.5 694L21 42 0 0l658 325.5V684c0 5.523-4.477 10-10 10H457.5z" fill="#369EFF" fill-opacity=".25"/></symbol><symbol id="logo-appsec" viewBox="0 0 133 49"><path d="M42.636 0H6.364C2.849 0 0 2.538 0 5.668v37.665C0 46.463 2.85 49 6.364 49h36.272C46.151 49 49 46.463 49 43.333V5.668C49 2.538 46.15 0 42.636 0z" fill="#fff"/><mask id="mask0_383_25" style="mask-type:luminance" maskUnits="userSpaceOnUse" x="2" y="8" width="45" height="33"><path d="M46.234 8.259H2.767V40.74h43.467V8.26z" fill="#fff"/></mask><g mask="url(#mask0_383_25)"><path fill-rule="evenodd" clip-rule="evenodd" d="M24.534-11.642l34.69 82.576h-69.38l34.69-82.576zm-27.95 78.097h55.901L24.535-.08-3.418 66.455z" fill="#070C3A"/><mask id="mask1_383_25" style="mask-type:luminance" maskUnits="userSpaceOnUse" x="4" y="13" width="41" height="37"><path d="M44.26 13.743H4.576V49.12H44.26V13.743z" fill="#fff"/></mask><g mask="url(#mask1_383_25)"><path fill-rule="evenodd" clip-rule="evenodd" d="M24.535 19.525L11.37 50.86l-4.129-1.734 15.229-36.25h4.129l15.229 36.25-4.13 1.734-13.163-31.335z" fill="#070C3A"/></g></g><path d="M87.528 7.934c.605-.714 1.51-1.095 2.701-1.095 1.203 0 2.114.393 2.72 1.111.603.713.882 1.72.882 2.906v.605h-1.998v-.693c0-.67-.128-1.168-.376-1.495-.242-.318-.617-.502-1.184-.502s-.942.184-1.183.5c-.249.324-.377.817-.377 1.476 0 1.526 1.072 2.398 2.3 3.397l.2.163c1.287 1.052 2.64 2.261 2.64 4.51 0 1.187-.285 2.194-.896 2.907-.614.718-1.536 1.111-2.75 1.111-1.213 0-2.13-.393-2.739-1.111-.605-.713-.884-1.72-.884-2.906v-1.065h1.976v1.152c0 .668.138 1.165.397 1.493.252.32.64.505 1.207.505.567 0 .955-.185 1.207-.505.258-.328.397-.825.397-1.493 0-1.513-1.064-2.38-2.283-3.373l-.207-.168c-1.282-1.05-2.628-2.259-2.628-4.508 0-1.207.279-2.214.878-2.922zm20.121-1.095c-1.214 0-2.13.399-2.739 1.123-.605.718-.884 1.73-.884 2.916v7.918c0 1.186.279 2.198.884 2.916.609.724 1.525 1.123 2.739 1.123 1.225 0 2.147-.399 2.759-1.123.608-.718.887-1.73.887-2.916v-2.093h-1.998v2.18c0 .67-.133 1.173-.39 1.506-.249.324-.636.514-1.214.514-.565 0-.953-.19-1.206-.515-.259-.333-.398-.837-.398-1.505V10.79c0-.667.139-1.171.398-1.505.253-.325.641-.514 1.206-.514.578 0 .965.19 1.214.514.257.333.39.836.39 1.505v1.655h1.998v-1.567c0-1.186-.279-2.198-.887-2.917-.612-.724-1.534-1.122-2.759-1.122z" fill="#fff"/><path fill-rule="evenodd" clip-rule="evenodd" d="M84.35 8.058c-.603-.698-1.521-1.066-2.763-1.066h-3.536v15.69h2.085v-6.037h1.32c1.246 0 2.195-.326 2.83-.997.635-.67.925-1.649.925-2.89v-1.836c0-1.184-.262-2.171-.861-2.864zm-1.616 6.258c-.26.277-.67.419-1.278.419h-1.32V8.924h1.451c.588 0 .961.163 1.195.454.242.3.366.772.366 1.456v2.034c0 .712-.15 1.168-.414 1.448zm-7.22 1.332c-.636.671-1.585.997-2.83.997h-1.32v6.037h-2.086V6.992h3.536c1.242 0 2.16.368 2.763 1.066.6.693.861 1.68.861 2.864v1.837c0 1.24-.29 2.22-.924 2.889zm-1.505-6.27c-.234-.29-.607-.454-1.195-.454h-1.45v5.81h1.32c.608 0 1.016-.141 1.278-.418.263-.28.413-.736.413-1.448v-2.034c0-.684-.124-1.156-.366-1.456zM67.71 22.682l-3.004-15.69h-2.785l-3.004 15.69h1.961l.591-3.084h3.558l.59 3.084h2.093zm-5.95-4.929l1.457-7.647 1.496 7.647H61.76z" fill="#fff"/><path d="M102.298 6.992h-6.679v15.69h6.679V20.75h-4.594v-5.068h3.741v-1.91h-3.74V8.924h4.593V6.992zM60.099 27.27c.604-.713 1.51-1.094 2.7-1.094 1.204 0 2.115.393 2.721 1.111.602.713.882 1.72.882 2.906v.605h-1.998v-.693c0-.67-.129-1.168-.377-1.495-.241-.318-.617-.502-1.184-.502-.566 0-.942.184-1.183.5-.248.324-.377.817-.377 1.476 0 1.526 1.073 2.398 2.3 3.397l.2.163c1.287 1.052 2.64 2.26 2.64 4.51 0 1.187-.285 2.194-.895 2.907-.615.718-1.537 1.11-2.75 1.11s-2.13-.392-2.74-1.11c-.604-.714-.884-1.72-.884-2.907V37.09h1.976v1.152c0 .668.139 1.165.397 1.493.252.32.64.505 1.207.505.567 0 .955-.185 1.207-.505.259-.328.397-.825.397-1.493 0-1.514-1.063-2.38-2.283-3.373a83.426 83.426 0 01-.207-.169c-1.281-1.049-2.628-2.258-2.628-4.507 0-1.207.279-2.214.879-2.922z" fill="#fff"/><path fill-rule="evenodd" clip-rule="evenodd" d="M71.747 26.176c-1.213 0-2.145.393-2.77 1.112-.623.715-.92 1.728-.92 2.927v7.918c0 1.188.298 2.2.92 2.918.624.722 1.556 1.12 2.77 1.12 1.224 0 2.161-.398 2.79-1.12.624-.718.921-1.73.921-2.918v-7.918c0-1.2-.297-2.212-.922-2.927-.628-.72-1.566-1.112-2.79-1.112zm-1.626 3.951c0-.666.143-1.17.407-1.503.259-.327.653-.516 1.219-.516.578 0 .97.19 1.226.515.261.333.4.837.4 1.504v8.093c0 .68-.14 1.182-.4 1.512-.254.322-.647.508-1.226.508-.568 0-.962-.185-1.219-.508-.264-.331-.407-.834-.407-1.512v-8.093zm37.808-2.839c.625-.72 1.557-1.112 2.77-1.112 1.224 0 2.161.392 2.79 1.112.625.715.921 1.728.921 2.927v7.918c0 1.188-.296 2.2-.921 2.918-.628.722-1.565 1.12-2.79 1.12-1.213 0-2.145-.398-2.77-1.12-.622-.718-.919-1.73-.919-2.918v-7.918c0-1.2.297-2.212.919-2.927zm1.552 1.336c-.264.333-.407.837-.407 1.503v8.093c0 .678.143 1.181.407 1.512.257.323.651.508 1.218.508.58 0 .973-.186 1.227-.508.261-.33.399-.833.399-1.512v-8.093c0-.667-.138-1.17-.4-1.504-.255-.325-.648-.515-1.226-.515-.565 0-.96.19-1.218.516z" fill="#fff"/><path d="M129.31 26.176c-1.191 0-2.097.381-2.701 1.095-.6.708-.879 1.715-.879 2.922 0 2.25 1.347 3.458 2.629 4.507l.206.169c1.22.993 2.283 1.86 2.283 3.373 0 .668-.138 1.165-.396 1.493-.252.32-.64.505-1.208.505-.567 0-.955-.185-1.207-.505-.258-.328-.397-.825-.397-1.493V37.09h-1.975v1.064c0 1.186.279 2.193.884 2.906.609.719 1.526 1.112 2.739 1.112 1.213 0 2.135-.393 2.75-1.11.61-.714.896-1.72.896-2.907 0-2.25-1.353-3.46-2.64-4.51-.067-.056-.134-.11-.201-.164-1.227-.999-2.3-1.87-2.3-3.398 0-.658.129-1.151.377-1.476.241-.315.617-.5 1.184-.5s.942.185 1.183.503c.248.327.377.825.377 1.495v.693h1.998v-.605c0-1.186-.28-2.193-.882-2.906-.606-.718-1.517-1.111-2.72-1.111zm-7.324 10.196l-3.216-10.043h-2.493v15.69h1.91V30.677l3.587 11.342h2.1v-15.69h-1.888v10.043zM87.76 39.726c-.257-.333-.39-.837-.39-1.506V26.33h-2.063v11.804c0 1.185.273 2.202.872 2.925.603.73 1.514 1.136 2.73 1.136 1.225 0 2.142-.405 2.748-1.135.601-.724.875-1.741.875-2.926V26.329h-1.976V38.22c0 .669-.133 1.173-.388 1.506-.247.325-.629.514-1.194.514-.577 0-.965-.19-1.214-.514zm17.35-13.397h-2.085v15.69h2.085v-15.69zm-11.236 0h7.707v1.932h-2.822v13.758h-2.063V28.26h-2.822v-1.932zm-16.527 0h2.085v13.758h4.375v1.932h-6.46v-15.69z" fill="#fff"/></symbol><symbol id="logo-cnews" viewBox="0 0 103 20"><path d="M10.652 0h.98c1.18.096 2.444.166 3.454.85.575.375.868 1.14.623 1.79-.324.897-1.27 1.65-2.256 1.47-.557-.156-1.023-.519-1.464-.877-.718-.587-1.411-1.23-2.264-1.622-.669-.332-1.454-.313-2.169-.159-1.274.305-2.28 1.272-2.925 2.376A8.983 8.983 0 003.46 8.452c-.002 1.943.544 3.905 1.649 5.512 1.117 1.625 2.843 2.849 4.783 3.25 1.375.313 2.863.239 4.154-.348a9.148 9.148 0 001.615-.945c.27.159.545.307.833.43-1.291 1.464-2.965 2.612-4.842 3.178-1.97.59-4.151.556-6.065-.226-2.089-.84-3.771-2.557-4.684-4.6C.346 13.513.083 12.208 0 10.9v-.877c.086-1.216.334-2.429.834-3.545.872-2.007 2.417-3.694 4.289-4.817C6.785.645 8.711.101 10.653 0zM31.1 0h.01c.16.055.316.114.474.171-.12 1.049-.217 2.101-.343 3.15C33.047 2.008 34.945.674 37.164.19c.424-.1.856-.142 1.288-.19h.786c.826.07 1.67.194 2.412.589.876.427 1.561 1.192 1.95 2.078.567 1.254.663 2.655.673 4.012v8.132c-.005.566.007 1.134.061 1.697.074.46.132.956.435 1.33.28.365.717.567 1.15.685.563.152 1.137.269 1.716.328.012.218.014.435.014.653H37.577c.006-.214-.03-.437.027-.647.864-.15 1.802-.241 2.534-.77.693-.545.728-1.498.792-2.306.042-1.906.015-3.815.023-5.722-.012-1.29.051-2.59-.179-3.867-.176-.97-.518-1.962-1.236-2.67-.948-.992-2.395-1.3-3.722-1.264a5.543 5.543 0 00-2.025.306c-.87.317-1.638.861-2.313 1.486-.096.07-.054.197-.066.295.008 3.782-.003 7.565.005 11.349.042.637.056 1.301.331 1.89.235.487.74.772 1.241.919a10.99 10.99 0 001.792.35c.003.217.003.434.003.65-3.355 0-6.713 0-10.07.002.008-.218.01-.435.015-.653a9.625 9.625 0 001.784-.37c.547-.173 1.07-.526 1.281-1.08.334-.936.263-1.945.303-2.92V5.873c-.01-.57-.005-1.162-.259-1.687-.4-.797-1.155-1.331-1.853-1.852a47.185 47.185 0 00-.005-.431C27.684 1.263 29.396.645 31.1 0zm24.47 0h.882c.543.058 1.089.113 1.615.26 1.42.356 2.709 1.239 3.504 2.473.699 1.063 1.023 2.335 1.084 3.597-4.166-.006-8.333.004-12.497-.005-.092.703-.13 1.414-.176 2.122-.19 2.022.362 4.12 1.578 5.754a7.292 7.292 0 004.532 2.846c1.183.207 2.433.2 3.572-.217 1.228-.432 2.226-1.341 2.99-2.374.22.159.438.318.655.483-1.145 1.929-2.856 3.561-4.952 4.406-2.805 1.145-6.192.579-8.535-1.32-1.268-1.005-2.226-2.374-2.812-3.877-.655-1.643-.831-3.457-.617-5.206.32-2.901 1.855-5.708 4.297-7.351C52.12.6 53.842.097 55.57 0zm-1.606 1.021c-1.213.234-2.176 1.152-2.786 2.187-.412.723-.765 1.504-.884 2.331.95-.102 1.907-.059 2.86-.137a392.46 392.46 0 005.418-.23c-.292-1.267-.795-2.563-1.8-3.437a3.217 3.217 0 00-2.808-.714zM96.61 0h.735c1.55.1 3.125.522 4.397 1.432.049 1.273.077 2.55.145 3.822-.318.066-.64.118-.958.185-.393-1.287-.869-2.627-1.865-3.578-1.058-1.008-2.89-1.135-4.016-.176-.71.612-1.025 1.584-.969 2.504-.007.982.603 1.843 1.326 2.456 1.203 1.003 2.657 1.628 3.998 2.419 1.088.641 2.183 1.37 2.89 2.445.608.912.81 2.056.659 3.134-.137 1.264-.775 2.45-1.709 3.305-1.384 1.288-3.284 1.92-5.153 1.985-1.937.046-3.917-.45-5.508-1.581-.102-1.14-.15-2.282-.259-3.422-.055-.454-.02-.916-.11-1.368.34-.07.682-.15 1.032-.166.3 1.5.928 2.98 1.987 4.104.802.832 1.944 1.34 3.106 1.316.866.023 1.745-.304 2.363-.917 1.203-1.196 1.327-3.33.226-4.631-.626-.766-1.495-1.282-2.357-1.743-1.363-.737-2.827-1.335-4.019-2.348-.794-.656-1.412-1.548-1.652-2.558-.262-1.136-.196-2.377.323-3.435.487-1.012 1.34-1.813 2.323-2.339.94-.513 2-.766 3.066-.845z" fill="#fff"/><path d="M60.621.423c3.037.005 6.075.005 9.113 0-.004.215-.004.43-.001.645-.566.036-1.152.059-1.683.284-.343.122-.645.39-.74.75-.07.412-.013.837.12 1.23.29.903.663 1.776 1.002 2.66 1.19 3.053 2.401 6.096 3.58 9.153 1.352-3.137 2.666-6.295 4.006-9.438.09-.197-.044-.392-.105-.574-.423-1.005-.713-2.091-1.367-2.98-.553-.752-1.534-.933-2.396-1.085l.003-.644c3.074 0 6.15.01 9.224-.005l.001.647c-.663.05-1.348.096-1.96.384-.394.189-.706.59-.684 1.041.017.596.262 1.156.465 1.707 1.363 3.65 2.762 7.287 4.11 10.941.56-1.148 1.055-2.328 1.58-3.493.87-1.996 1.727-4 2.456-6.053.292-.885.596-1.775.718-2.702.08-.498-.066-1.071-.502-1.366-.563-.36-1.25-.36-1.888-.455.002-.216.001-.431 0-.647 2.43.008 4.859-.003 7.288.005-.002.21-.002.422-.001.633-.732.076-1.479.27-2.059.746-.9.716-1.355 1.805-1.832 2.817-2.3 5.105-4.573 10.223-6.878 15.325a5.69 5.69 0 00-.549.01h-.035c-1.71-4.379-3.431-8.753-5.135-13.135-1.822 4.37-3.603 8.759-5.411 13.135h-.033c-.201-.015-.402-.018-.604-.015-2.155-5.347-4.305-10.695-6.472-16.038-.318-.74-.645-1.514-1.254-2.068-.563-.519-1.335-.718-2.08-.775.003-.214.003-.427.003-.64zm-44.86 5.448c.85-.696 1.89-1.173 2.99-1.271 1.595-.176 3.254.422 4.38 1.566.994 1 1.576 2.4 1.556 3.813a5.326 5.326 0 01-1.186 3.376 5.368 5.368 0 01-3.293 1.932c-1.274.212-2.627-.024-3.726-.71-1.39-.839-2.362-2.336-2.538-3.95-.203-1.5.288-3.057 1.27-4.201-.295.471-.461 1.023-.386 1.583.105.975.93 1.818 1.9 1.947 1.148.2 2.33-.643 2.537-1.782.092-.513.027-1.065-.235-1.522-.395-.73-1.219-1.215-2.054-1.163-.437-.006-.839.181-1.215.382z" fill="#fff"/></symbol><symbol id="pattern1" viewBox="0 0 440 1088"><path opacity=".03" d="M440 25H115c-49.706 0-90 40.294-90 90v858c0 49.71 40.294 90 90 90h325" fill="transparent" stroke="#1F4CCA" stroke-width="50" stroke-linecap="square"/></symbol><symbol id="pattern2" viewBox="0 0 1440 1725"><path opacity=".03" d="M-23 25h635c49.706 0 90 40.294 90 90v284.5c0 49.706 40.294 90 90 90h455.06c49.7 0 90 40.294 90 90V1610c0 49.71 40.29 90 90 90H1517" fill="transparent" stroke="#1F4CCA" stroke-width="50"/></symbol><symbol id="pattern3" viewBox="0 0 765 1861"><path opacity=".03" d="M-14.94 25H650c49.706 0 90 40.294 90 90v1631c0 49.71-40.294 90-90 90H-52" fill="transparent" stroke="#1F4CCA" stroke-width="50"/></symbol><symbol id="pattern4" viewBox="0 0 292 947"><path opacity=".03" d="M25 .5V832c0 49.706 40.294 90 90 90h180" fill="transparent" stroke="#1F4CCA" stroke-width="50"/></symbol><symbol id="pattern5" viewBox="0 0 441 665"><path opacity=".03" d="M416 .5V550c0 49.706-40.294 90-90 90H-54.5" fill="transparent" stroke="#1F4CCA" stroke-width="50"/></symbol><symbol id="rutube" viewBox="0 0 13 14"><mask id="mask0_167_857" style="mask-type:luminance" maskUnits="userSpaceOnUse" x="0" y="1" width="13" height="12"><path d="M9.59 1H3.41A2.91 2.91 0 00.5 3.91v6.18A2.91 2.91 0 003.41 13h6.18a2.909 2.909 0 002.91-2.91V3.91A2.91 2.91 0 009.59 1z" fill="#fff"/></mask><g mask="url(#mask0_167_857)" fill="#070C3A"><path d="M7.913 6.726H4.367V5.323h3.546c.207 0 .35.036.423.1.072.062.117.18.117.35v.504c0 .18-.045.297-.117.36-.072.063-.216.09-.423.09v-.001zm.243-2.725H2.864V10h1.503V8.048h2.771L8.453 10h1.684l-1.45-1.961c.534-.08.774-.243.972-.513.198-.27.297-.701.297-1.277v-.45a2.85 2.85 0 00-.099-.818 1.364 1.364 0 00-.324-.549 1.465 1.465 0 00-.558-.333A2.95 2.95 0 008.155 4z"/><path d="M18.5 1a6 6 0 01-7.926 5.684c.013-.142.019-.288.019-.435v-.45c0-.382-.04-.719-.127-1.004a2 2 0 00-.471-.8l-.012-.013-.013-.012a2.101 2.101 0 00-.794-.474l-.011-.004-.012-.004a3.577 3.577 0 00-.997-.124H6.984A6 6 0 1118.5 1z"/></g><path d="M9.638 1H3.362A2.862 2.862 0 00.5 3.862v6.277A2.862 2.862 0 003.362 13h6.276a2.862 2.862 0 002.862-2.861V3.862A2.862 2.862 0 009.638 1z" fill="transparent" stroke="#070C3A" stroke-width=".7"/></symbol><symbol id="tg" viewBox="0 0 14 12"><path fill-rule="evenodd" clip-rule="evenodd" d="M1.175 4.823C4.798 3.25 7.21 2.204 8.42 1.697 11.867.258 12.593.01 13.058 0c.104 0 .331.02.486.144a.549.549 0 01.178.342c.02.104.04.321.02.486-.187 1.967-.994 6.74-1.408 8.934-.176.932-.518 1.242-.849 1.274-.724.062-1.274-.477-1.967-.932-1.098-.714-1.708-1.16-2.774-1.863-1.232-.808-.435-1.253.27-1.978.185-.186 3.363-3.084 3.425-3.343.011-.031.011-.155-.062-.217-.072-.063-.175-.042-.258-.021-.114.02-1.854 1.179-5.238 3.468-.497.342-.943.506-1.347.497-.444-.011-1.293-.249-1.935-.456C.823 6.087.202 5.952.253 5.517c.031-.228.342-.455.922-.693z" fill="#070C3A"/></symbol><symbol id="video-pattern" viewBox="0 0 389 326"><mask id="mask0_167_388" style="mask-type:luminance" maskUnits="userSpaceOnUse" x="0" y="0" width="460" height="326"><path d="M.676 325.053H459.7V.676H.676v324.377z" fill="#fff"/></mask><g mask="url(#mask0_167_388)"><mask id="mask1_167_388" style="mask-type:luminance" maskUnits="userSpaceOnUse" x="13" y="-105" width="434" height="426"><path d="M13.428 320.406H446.95v-424.715H13.428v424.715z" fill="#fff"/></mask><g mask="url(#mask1_167_388)"><path d="M370.625 317.791a2.623 2.623 0 014.476-1.845 2.601 2.601 0 010 3.692 2.629 2.629 0 01-3.708 0 2.604 2.604 0 01-.768-1.847zm-21.058-2.611a2.618 2.618 0 00-2.623 2.611 2.617 2.617 0 002.623 2.611 2.617 2.617 0 002.622-2.611 2.617 2.617 0 00-2.622-2.611z" fill="#4A8EFF"/><path d="M323.264 317.792a2.608 2.608 0 011.619-2.412 2.627 2.627 0 013.574 1.903 2.612 2.612 0 01-1.114 2.68 2.637 2.637 0 01-3.312-.325 2.61 2.61 0 01-.767-1.846z" fill="#0151DA"/><path d="M302.158 315.18a2.617 2.617 0 00-2.622 2.611 2.617 2.617 0 002.622 2.611 2.617 2.617 0 002.622-2.611 2.618 2.618 0 00-2.622-2.611zm-26.299 2.611a2.62 2.62 0 012.623-2.611 2.622 2.622 0 012.622 2.611c0 .693-.277 1.358-.769 1.847a2.628 2.628 0 01-3.707 0 2.605 2.605 0 01-.769-1.847zm-21.054-2.611a2.617 2.617 0 00-2.622 2.611 2.617 2.617 0 002.622 2.611 2.616 2.616 0 002.622-2.611 2.617 2.617 0 00-2.622-2.611zm-23.736 0a2.618 2.618 0 00-2.622 2.611 2.617 2.617 0 002.622 2.611 2.617 2.617 0 002.622-2.611 2.617 2.617 0 00-2.622-2.611z" fill="#4A8EFF"/><path d="M370.621 291.721c0-.517.155-1.022.442-1.452a2.636 2.636 0 012.692-1.11 2.614 2.614 0 012.061 2.052 2.607 2.607 0 01-1.116 2.68 2.63 2.63 0 01-3.31-.323 2.61 2.61 0 01-.769-1.847z" fill="#0151DA"/><path d="M349.567 289.054a2.618 2.618 0 00-2.623 2.611 2.617 2.617 0 002.623 2.611 2.617 2.617 0 002.622-2.611 2.617 2.617 0 00-2.622-2.611zm-26.303 2.664a2.61 2.61 0 012.622-2.61 2.607 2.607 0 012.422 1.612 2.606 2.606 0 01-.568 2.845 2.629 2.629 0 01-3.709 0 2.613 2.613 0 01-.767-1.847zm-21.106-2.664a2.617 2.617 0 00-2.622 2.611 2.617 2.617 0 002.622 2.611 2.617 2.617 0 002.622-2.611 2.618 2.618 0 00-2.622-2.611zm-26.299 2.664a2.6 2.6 0 01.443-1.45c.287-.43.696-.764 1.176-.962a2.636 2.636 0 012.857.567 2.6 2.6 0 01.568 2.845 2.604 2.604 0 01-.965 1.172 2.627 2.627 0 01-3.31-.325 2.605 2.605 0 01-.769-1.847zm-21.054-2.664a2.617 2.617 0 00-2.622 2.611 2.617 2.617 0 002.622 2.611 2.616 2.616 0 002.622-2.611 2.617 2.617 0 00-2.622-2.611zm-23.736 0a2.618 2.618 0 00-2.622 2.611 2.617 2.617 0 002.622 2.611 2.617 2.617 0 002.622-2.611 2.617 2.617 0 00-2.622-2.611zm139.556-23.463c0-.693.276-1.356.768-1.847a2.63 2.63 0 013.708 0 2.607 2.607 0 010 3.693 2.626 2.626 0 01-4.476-1.846zm-21.058-2.612a2.618 2.618 0 00-2.623 2.612 2.618 2.618 0 002.623 2.611 2.617 2.617 0 002.622-2.611 2.617 2.617 0 00-2.622-2.612zm-26.299 2.611c0-.517.153-1.021.441-1.45.289-.43.698-.764 1.178-.962a2.631 2.631 0 012.857.566 2.611 2.611 0 01.568 2.846 2.62 2.62 0 01-2.422 1.611 2.626 2.626 0 01-1.855-.764 2.618 2.618 0 01-.767-1.847z" fill="#4A8EFF"/><path d="M302.158 262.979a2.617 2.617 0 00-2.622 2.612 2.617 2.617 0 002.622 2.611 2.618 2.618 0 002.622-2.611 2.618 2.618 0 00-2.622-2.612z" fill="#070C3A"/><path d="M275.859 265.591c0-.693.277-1.356.769-1.847a2.628 2.628 0 013.707 0 2.604 2.604 0 010 3.693 2.625 2.625 0 01-4.476-1.846zm-21.054-2.612a2.617 2.617 0 00-2.622 2.612 2.617 2.617 0 002.622 2.611 2.617 2.617 0 002.622-2.611 2.617 2.617 0 00-2.622-2.612zm-23.736 0a2.618 2.618 0 00-2.622 2.612 2.618 2.618 0 002.622 2.611 2.617 2.617 0 002.622-2.611 2.617 2.617 0 00-2.622-2.612zm139.556-23.468c0-.517.153-1.021.442-1.451a2.635 2.635 0 012.692-1.11c.508.101.975.35 1.342.715a2.602 2.602 0 01-.397 4.016 2.629 2.629 0 01-3.311-.323 2.607 2.607 0 01-.768-1.847zm-21.055-2.662a2.616 2.616 0 00-2.622 2.611 2.616 2.616 0 002.622 2.61 2.616 2.616 0 002.623-2.61 2.616 2.616 0 00-2.623-2.611zm-26.299 2.662a2.618 2.618 0 012.623-2.611 2.635 2.635 0 011.855.765 2.618 2.618 0 01.767 1.846 2.615 2.615 0 01-2.622 2.612 2.63 2.63 0 01-1.854-.765 2.608 2.608 0 01-.769-1.847zm-21.113-2.662a2.616 2.616 0 00-2.622 2.611 2.616 2.616 0 002.622 2.61 2.616 2.616 0 002.622-2.61 2.617 2.617 0 00-2.622-2.611zm-26.299 2.662a2.61 2.61 0 011.619-2.412 2.623 2.623 0 013.575 1.902 2.61 2.61 0 01-.148 1.51 2.606 2.606 0 01-.967 1.17 2.627 2.627 0 01-3.31-.323 2.608 2.608 0 01-.769-1.847zm-21.054-2.662a2.616 2.616 0 00-2.622 2.611 2.616 2.616 0 002.622 2.61 2.615 2.615 0 002.622-2.61 2.615 2.615 0 00-2.622-2.611zm-23.736 0a2.617 2.617 0 00-2.622 2.611 2.616 2.616 0 002.622 2.61 2.616 2.616 0 002.622-2.61 2.616 2.616 0 00-2.622-2.611zm139.552-23.466c0-.693.277-1.356.769-1.847a2.63 2.63 0 013.708 0 2.607 2.607 0 010 3.693 2.63 2.63 0 01-3.708 0 2.604 2.604 0 01-.769-1.846zm-21.054-2.612a2.618 2.618 0 00-2.623 2.612 2.618 2.618 0 002.623 2.611 2.617 2.617 0 002.622-2.611 2.617 2.617 0 00-2.622-2.612zm-26.299 2.611c0-.517.153-1.021.441-1.45.289-.43.698-.764 1.178-.962a2.631 2.631 0 012.857.566 2.611 2.611 0 01.568 2.846 2.62 2.62 0 01-2.422 1.611 2.626 2.626 0 01-1.855-.764 2.618 2.618 0 01-.767-1.847zm-21.11-2.611a2.617 2.617 0 00-2.622 2.612 2.617 2.617 0 002.622 2.611 2.618 2.618 0 002.622-2.611 2.618 2.618 0 00-2.622-2.612zm-26.299 2.612c0-.693.277-1.356.769-1.847a2.628 2.628 0 013.707 0 2.604 2.604 0 010 3.693 2.624 2.624 0 01-3.707 0 2.604 2.604 0 01-.769-1.846zm-21.054-2.612a2.617 2.617 0 00-2.622 2.612 2.617 2.617 0 002.622 2.611 2.617 2.617 0 002.622-2.611 2.617 2.617 0 00-2.622-2.612zm-23.732 0a2.618 2.618 0 00-2.622 2.612 2.618 2.618 0 002.622 2.611 2.617 2.617 0 002.622-2.611 2.617 2.617 0 00-2.622-2.612zm139.552-23.462a2.614 2.614 0 011.619-2.413 2.627 2.627 0 013.574 1.903 2.601 2.601 0 01-1.114 2.68 2.626 2.626 0 01-3.311-.325 2.6 2.6 0 01-.768-1.845zm-21.058-2.668a2.618 2.618 0 00-2.623 2.611 2.617 2.617 0 002.623 2.611 2.617 2.617 0 002.622-2.611 2.617 2.617 0 00-2.622-2.611zm-26.299 2.668a2.608 2.608 0 011.619-2.412 2.631 2.631 0 012.857.565 2.608 2.608 0 01.768 1.847c0 .692-.276 1.356-.768 1.845a2.632 2.632 0 01-3.709 0 2.6 2.6 0 01-.767-1.845zm-21.11-2.665a2.616 2.616 0 00-2.622 2.609 2.616 2.616 0 002.622 2.611 2.617 2.617 0 002.622-2.611 2.616 2.616 0 00-2.622-2.609z" fill="#4A8EFF"/><path d="M275.859 187.309c0-.517.154-1.021.443-1.451a2.627 2.627 0 014.751.941 2.604 2.604 0 01-1.115 2.68 2.624 2.624 0 01-3.31-.325 2.6 2.6 0 01-.769-1.845z" fill="#070C3A"/><path d="M254.805 184.641a2.617 2.617 0 00-2.622 2.611 2.617 2.617 0 002.622 2.611 2.616 2.616 0 002.622-2.611 2.617 2.617 0 00-2.622-2.611zm-23.736.003a2.616 2.616 0 00-2.622 2.609 2.617 2.617 0 002.622 2.611 2.616 2.616 0 002.622-2.611 2.616 2.616 0 00-2.622-2.609z" fill="#4A8EFF"/><path d="M370.625 161.229a2.6 2.6 0 011.619-2.412 2.627 2.627 0 012.857.565 2.605 2.605 0 01-.397 4.017 2.632 2.632 0 01-1.457.441 2.667 2.667 0 01-1.842-.777 2.64 2.64 0 01-.78-1.834zm-21.058-2.665a2.618 2.618 0 00-2.623 2.612 2.618 2.618 0 002.623 2.611 2.617 2.617 0 002.622-2.611 2.617 2.617 0 00-2.622-2.612z" fill="#070C3A"/><path d="M323.268 161.229a2.608 2.608 0 011.619-2.412 2.626 2.626 0 012.857.565 2.612 2.612 0 01.568 2.846 2.629 2.629 0 01-4.277.847 2.604 2.604 0 01-.767-1.846zm-21.11-2.665a2.617 2.617 0 00-2.622 2.612 2.617 2.617 0 002.622 2.611 2.618 2.618 0 002.622-2.611 2.618 2.618 0 00-2.622-2.612zm-26.299 2.665a2.609 2.609 0 011.619-2.412 2.628 2.628 0 012.857.565 2.6 2.6 0 01.57 2.846 2.629 2.629 0 01-2.423 1.612 2.668 2.668 0 01-1.843-.777 2.644 2.644 0 01-.78-1.834zm-21.054-2.665a2.617 2.617 0 00-2.622 2.612 2.617 2.617 0 002.622 2.611 2.617 2.617 0 002.622-2.611 2.617 2.617 0 00-2.622-2.612zm-23.728 0a2.617 2.617 0 00-2.622 2.612 2.617 2.617 0 002.622 2.611 2.617 2.617 0 002.622-2.611 2.617 2.617 0 00-2.622-2.612zm139.544-23.517c0-.692.277-1.356.769-1.845a2.628 2.628 0 013.708 0 2.604 2.604 0 010 3.692 2.633 2.633 0 01-3.708 0 2.605 2.605 0 01-.769-1.847zm-21.054-2.609a2.616 2.616 0 00-2.623 2.609 2.617 2.617 0 002.623 2.611 2.616 2.616 0 002.622-2.611 2.616 2.616 0 00-2.622-2.609zm-26.299 2.609a2.604 2.604 0 011.619-2.412 2.626 2.626 0 013.574 1.903 2.598 2.598 0 01-1.115 2.68 2.631 2.631 0 01-3.311-.324 2.607 2.607 0 01-.767-1.847zm-21.11-2.609a2.616 2.616 0 00-2.622 2.609 2.616 2.616 0 002.622 2.611 2.617 2.617 0 002.622-2.611 2.616 2.616 0 00-2.622-2.609zm-26.299 2.609c0-.692.277-1.356.769-1.845a2.627 2.627 0 013.707 0 2.602 2.602 0 010 3.692 2.627 2.627 0 01-3.707 0 2.605 2.605 0 01-.769-1.847zm-21.054-2.609a2.616 2.616 0 00-2.622 2.609 2.616 2.616 0 002.622 2.611 2.615 2.615 0 002.622-2.611 2.615 2.615 0 00-2.622-2.609zm-23.732 0a2.616 2.616 0 00-2.622 2.609 2.616 2.616 0 002.622 2.611 2.615 2.615 0 002.622-2.611 2.615 2.615 0 00-2.622-2.609z" fill="#4A8EFF"/><path d="M207.452 315.18a2.617 2.617 0 00-2.622 2.611 2.616 2.616 0 002.622 2.611 2.617 2.617 0 002.622-2.611 2.617 2.617 0 00-2.622-2.611z" fill="#0151DA"/><path d="M183.719 315.18a2.618 2.618 0 00-2.622 2.611 2.617 2.617 0 002.622 2.611 2.616 2.616 0 002.622-2.611 2.617 2.617 0 00-2.622-2.611z" fill="#4E75CB"/><path d="M160.043 315.18a2.618 2.618 0 00-2.623 2.611 2.617 2.617 0 002.623 2.611 2.617 2.617 0 002.622-2.611 2.617 2.617 0 00-2.622-2.611zm-23.68 0a2.617 2.617 0 00-2.622 2.611 2.617 2.617 0 002.622 2.611 2.617 2.617 0 002.623-2.611 2.617 2.617 0 00-2.623-2.611zm-23.673 0a2.617 2.617 0 00-2.622 2.611 2.617 2.617 0 002.622 2.611 2.617 2.617 0 002.623-2.611 2.618 2.618 0 00-2.623-2.611zm-23.731 0a2.617 2.617 0 00-2.623 2.611 2.616 2.616 0 002.623 2.611 2.616 2.616 0 002.622-2.611 2.617 2.617 0 00-2.622-2.611zm-26.299 2.611a2.623 2.623 0 012.622-2.611c.696 0 1.363.275 1.855.766a2.606 2.606 0 010 3.692 2.633 2.633 0 01-3.708 0 2.604 2.604 0 01-.769-1.847z" fill="#4A8EFF"/><path d="M41.602 315.18a2.617 2.617 0 00-2.622 2.611 2.616 2.616 0 002.622 2.611 2.617 2.617 0 002.622-2.611 2.618 2.618 0 00-2.622-2.611z" fill="#070C3A"/><path d="M15.3 317.792a2.606 2.606 0 011.619-2.412 2.627 2.627 0 013.575 1.903 2.608 2.608 0 01-1.116 2.68 2.624 2.624 0 01-3.31-.325 2.604 2.604 0 01-.769-1.846z" fill="#4A8EFF"/><path d="M207.447 289.054a2.618 2.618 0 00-2.622 2.611 2.617 2.617 0 002.622 2.611 2.617 2.617 0 002.623-2.611 2.617 2.617 0 00-2.623-2.611z" fill="#070C3A"/><path d="M183.716 289.054a2.617 2.617 0 00-2.622 2.611 2.617 2.617 0 002.622 2.611 2.617 2.617 0 002.623-2.611 2.618 2.618 0 00-2.623-2.611zm-23.673 0a2.618 2.618 0 00-2.623 2.611 2.617 2.617 0 002.623 2.611 2.617 2.617 0 002.622-2.611 2.617 2.617 0 00-2.622-2.611zm-23.68 0a2.617 2.617 0 00-2.622 2.611 2.617 2.617 0 002.622 2.611 2.617 2.617 0 002.623-2.611 2.617 2.617 0 00-2.623-2.611zm-23.673 0a2.617 2.617 0 00-2.622 2.611 2.617 2.617 0 002.622 2.611 2.617 2.617 0 002.623-2.611 2.618 2.618 0 00-2.623-2.611zm-23.731 0a2.617 2.617 0 00-2.623 2.611 2.616 2.616 0 002.623 2.611 2.616 2.616 0 002.622-2.611 2.617 2.617 0 00-2.622-2.611zm-26.299 2.667a2.603 2.603 0 011.619-2.412 2.636 2.636 0 011.515-.15 2.62 2.62 0 012.061 2.052 2.61 2.61 0 01-2.573 3.121 2.63 2.63 0 01-1.853-.764 2.61 2.61 0 01-.769-1.847zm-21.058-2.667a2.617 2.617 0 00-2.622 2.611 2.616 2.616 0 002.622 2.611 2.617 2.617 0 002.622-2.611 2.618 2.618 0 00-2.622-2.611zM15.3 291.718c0-.692.276-1.356.767-1.845a2.63 2.63 0 013.708 0 2.601 2.601 0 010 3.692 2.63 2.63 0 01-3.708 0 2.61 2.61 0 01-.768-1.847zm192.147-28.739a2.618 2.618 0 00-2.622 2.612 2.618 2.618 0 002.622 2.611 2.617 2.617 0 002.623-2.611 2.618 2.618 0 00-2.623-2.612z" fill="#4A8EFF"/><path d="M183.716 262.979a2.617 2.617 0 00-2.622 2.612 2.617 2.617 0 002.622 2.611 2.618 2.618 0 002.623-2.611 2.618 2.618 0 00-2.623-2.612z" fill="#0151DA"/><path d="M160.043 262.979a2.618 2.618 0 00-2.623 2.612 2.618 2.618 0 002.623 2.611 2.617 2.617 0 002.622-2.611 2.617 2.617 0 00-2.622-2.612zm-23.68 0a2.617 2.617 0 00-2.622 2.612 2.617 2.617 0 002.622 2.611 2.617 2.617 0 002.623-2.611 2.618 2.618 0 00-2.623-2.612zm-23.673 0a2.617 2.617 0 00-2.622 2.612 2.617 2.617 0 002.622 2.611 2.618 2.618 0 002.623-2.611 2.618 2.618 0 00-2.623-2.612z" fill="#4A8EFF"/><path d="M88.959 262.979a2.617 2.617 0 00-2.623 2.612 2.617 2.617 0 002.623 2.611 2.617 2.617 0 002.622-2.611 2.617 2.617 0 00-2.622-2.612z" fill="#070C3A"/><path d="M62.66 265.591c0-.693.277-1.356.769-1.847a2.63 2.63 0 013.708 0 2.608 2.608 0 010 3.693 2.63 2.63 0 01-3.708 0 2.603 2.603 0 01-.769-1.846z" fill="#4A8EFF"/><path d="M41.602 262.979a2.617 2.617 0 00-2.622 2.612 2.617 2.617 0 002.622 2.611 2.618 2.618 0 002.622-2.611 2.618 2.618 0 00-2.622-2.612z" fill="#0151DA"/><path d="M15.3 265.59a2.612 2.612 0 011.619-2.412 2.626 2.626 0 013.576 1.904 2.608 2.608 0 01-1.117 2.68 2.638 2.638 0 01-3.31-.325 2.646 2.646 0 01-.57-.847 2.614 2.614 0 01-.199-1zm192.147-28.741a2.617 2.617 0 00-2.622 2.611 2.616 2.616 0 002.622 2.61 2.616 2.616 0 002.623-2.61 2.616 2.616 0 00-2.623-2.611zm-23.731 0a2.616 2.616 0 00-2.622 2.611 2.616 2.616 0 002.622 2.61 2.617 2.617 0 002.623-2.61 2.617 2.617 0 00-2.623-2.611zm-23.673 0a2.617 2.617 0 00-2.623 2.611 2.617 2.617 0 002.623 2.61 2.616 2.616 0 002.622-2.61 2.616 2.616 0 00-2.622-2.611zm-23.68 0a2.616 2.616 0 00-2.622 2.611 2.616 2.616 0 002.622 2.61 2.616 2.616 0 002.623-2.61 2.616 2.616 0 00-2.623-2.611zm-23.673 0a2.616 2.616 0 00-2.622 2.611 2.616 2.616 0 002.622 2.61 2.617 2.617 0 002.623-2.61 2.617 2.617 0 00-2.623-2.611zm-23.731 0a2.616 2.616 0 00-2.623 2.611 2.616 2.616 0 002.623 2.61 2.615 2.615 0 002.622-2.61 2.616 2.616 0 00-2.622-2.611zm-26.299 2.662a2.6 2.6 0 01.442-1.451 2.624 2.624 0 012.692-1.11 2.617 2.617 0 012.061 2.051 2.608 2.608 0 01-1.115 2.68 2.63 2.63 0 01-3.31-.323 2.608 2.608 0 01-.77-1.847zm-21.058-2.662a2.616 2.616 0 00-2.622 2.611 2.615 2.615 0 002.622 2.61 2.616 2.616 0 002.622-2.61 2.617 2.617 0 00-2.622-2.611zM15.3 239.511c0-.692.276-1.356.768-1.846a2.624 2.624 0 013.707 0 2.605 2.605 0 010 3.693 2.628 2.628 0 01-3.707 0 2.608 2.608 0 01-.769-1.847zm192.152-28.74a2.618 2.618 0 00-2.622 2.612 2.618 2.618 0 002.622 2.611 2.617 2.617 0 002.622-2.611 2.617 2.617 0 00-2.622-2.612zm-23.736 0a2.617 2.617 0 00-2.622 2.612 2.617 2.617 0 002.622 2.611 2.618 2.618 0 002.623-2.611 2.618 2.618 0 00-2.623-2.612zm-23.676 0a2.617 2.617 0 00-2.622 2.612 2.617 2.617 0 002.622 2.611 2.618 2.618 0 002.622-2.611 2.618 2.618 0 00-2.622-2.612zm-23.677 0a2.617 2.617 0 00-2.622 2.612 2.617 2.617 0 002.622 2.611 2.617 2.617 0 002.623-2.611 2.618 2.618 0 00-2.623-2.612zm-23.673 0a2.617 2.617 0 00-2.622 2.612 2.617 2.617 0 002.622 2.611 2.618 2.618 0 002.623-2.611 2.618 2.618 0 00-2.623-2.612zm-23.731 0a2.617 2.617 0 00-2.623 2.612 2.617 2.617 0 002.623 2.611 2.617 2.617 0 002.622-2.611 2.617 2.617 0 00-2.622-2.612zm-26.299 2.612c0-.693.277-1.356.769-1.847a2.63 2.63 0 013.708 0 2.608 2.608 0 010 3.693 2.63 2.63 0 01-3.708 0 2.603 2.603 0 01-.769-1.846zm-21.058-2.612a2.617 2.617 0 00-2.622 2.612 2.617 2.617 0 002.622 2.611 2.618 2.618 0 002.622-2.611 2.618 2.618 0 00-2.622-2.612z" fill="#4A8EFF"/><path d="M15.3 213.382a2.612 2.612 0 011.619-2.412 2.626 2.626 0 013.576 1.904 2.609 2.609 0 01-2.573 3.119 2.618 2.618 0 01-1.854-.764 2.646 2.646 0 01-.57-.847 2.614 2.614 0 01-.199-1z" fill="#0151DA"/><path d="M207.452 184.644a2.615 2.615 0 00-2.621 2.609 2.616 2.616 0 002.621 2.611 2.616 2.616 0 002.622-2.611 2.616 2.616 0 00-2.622-2.609zm-23.733 0a2.616 2.616 0 00-2.622 2.609 2.617 2.617 0 002.622 2.611 2.615 2.615 0 002.622-2.611 2.615 2.615 0 00-2.622-2.609zm-23.676 0a2.616 2.616 0 00-2.623 2.609 2.617 2.617 0 002.623 2.611 2.616 2.616 0 002.622-2.611 2.616 2.616 0 00-2.622-2.609zm-23.68 0a2.616 2.616 0 00-2.622 2.609 2.616 2.616 0 002.622 2.611 2.616 2.616 0 002.623-2.611 2.616 2.616 0 00-2.623-2.609zm-23.673 0a2.616 2.616 0 00-2.622 2.609 2.616 2.616 0 002.622 2.611 2.617 2.617 0 002.623-2.611 2.616 2.616 0 00-2.623-2.609z" fill="#4A8EFF"/><path d="M88.959 184.644a2.615 2.615 0 00-2.623 2.609 2.616 2.616 0 002.623 2.611 2.616 2.616 0 002.622-2.611 2.615 2.615 0 00-2.622-2.609z" fill="#070C3A"/><path d="M62.66 187.309a2.62 2.62 0 013.133-2.561 2.61 2.61 0 011.912 3.559 2.622 2.622 0 01-2.423 1.612 2.626 2.626 0 01-1.853-.765 2.6 2.6 0 01-.769-1.845zm-21.058-2.665a2.615 2.615 0 00-2.622 2.609 2.616 2.616 0 002.622 2.611 2.617 2.617 0 002.622-2.611 2.616 2.616 0 00-2.622-2.609z" fill="#4A8EFF"/><path d="M15.3 187.309c0-.693.276-1.358.768-1.847a2.627 2.627 0 013.707 0 2.604 2.604 0 010 3.692 2.628 2.628 0 01-3.707 0 2.601 2.601 0 01-.769-1.845z" fill="#4E75CB"/><path d="M207.452 158.564a2.618 2.618 0 00-2.622 2.612 2.618 2.618 0 002.622 2.611 2.617 2.617 0 002.622-2.611 2.617 2.617 0 00-2.622-2.612z" fill="#0151DA"/><path d="M183.719 158.564a2.618 2.618 0 00-2.622 2.612 2.618 2.618 0 002.622 2.611 2.617 2.617 0 002.622-2.611 2.617 2.617 0 00-2.622-2.612zm-23.676 0a2.618 2.618 0 00-2.623 2.612 2.618 2.618 0 002.623 2.611 2.617 2.617 0 002.622-2.611 2.617 2.617 0 00-2.622-2.612zm-23.68 0a2.617 2.617 0 00-2.622 2.612 2.617 2.617 0 002.622 2.611 2.617 2.617 0 002.623-2.611 2.618 2.618 0 00-2.623-2.612zm-23.673 0a2.617 2.617 0 00-2.622 2.612 2.617 2.617 0 002.622 2.611 2.618 2.618 0 002.623-2.611 2.618 2.618 0 00-2.623-2.612zm-23.731 0a2.617 2.617 0 00-2.623 2.612 2.617 2.617 0 002.623 2.611 2.617 2.617 0 002.622-2.611 2.617 2.617 0 00-2.622-2.612zm-26.307 2.665c0-.517.154-1.022.441-1.452a2.625 2.625 0 011.178-.96 2.627 2.627 0 012.857.565 2.61 2.61 0 01.568 2.846 2.6 2.6 0 01-.965 1.171 2.632 2.632 0 01-1.456.441 2.668 2.668 0 01-1.843-.777 2.635 2.635 0 01-.78-1.834zm-21.05-2.665a2.617 2.617 0 00-2.622 2.612 2.617 2.617 0 002.622 2.611 2.618 2.618 0 002.622-2.611 2.618 2.618 0 00-2.622-2.612zM15.3 161.229a2.602 2.602 0 011.618-2.412 2.628 2.628 0 012.857.565c.368.365.617.831.719 1.337a2.61 2.61 0 01-2.572 3.121 2.624 2.624 0 01-1.854-.765 2.605 2.605 0 01-.769-1.846zm192.152-28.791a2.615 2.615 0 00-2.622 2.609 2.615 2.615 0 002.622 2.611 2.616 2.616 0 002.622-2.611 2.616 2.616 0 00-2.622-2.609zm-23.733 0a2.616 2.616 0 00-2.622 2.609 2.617 2.617 0 002.622 2.611 2.615 2.615 0 002.622-2.611 2.615 2.615 0 00-2.622-2.609zm-23.676 0a2.616 2.616 0 00-2.623 2.609 2.617 2.617 0 002.623 2.611 2.616 2.616 0 002.622-2.611 2.616 2.616 0 00-2.622-2.609zm-23.676 0a2.616 2.616 0 00-2.622 2.609 2.616 2.616 0 002.622 2.611 2.617 2.617 0 002.622-2.611 2.616 2.616 0 00-2.622-2.609zm-23.677 0a2.616 2.616 0 00-2.622 2.609 2.616 2.616 0 002.622 2.611 2.617 2.617 0 002.623-2.611 2.616 2.616 0 00-2.623-2.609zm-23.731 0a2.615 2.615 0 00-2.623 2.609 2.616 2.616 0 002.623 2.611 2.616 2.616 0 002.622-2.611 2.615 2.615 0 00-2.622-2.609zm-26.299 2.609c0-.692.277-1.356.769-1.845a2.63 2.63 0 013.708 0 2.606 2.606 0 010 3.692 2.633 2.633 0 01-3.708 0 2.604 2.604 0 01-.769-1.847zm-21.055-2.609a2.616 2.616 0 00-2.622 2.609 2.617 2.617 0 002.622 2.611 2.616 2.616 0 002.622-2.611 2.615 2.615 0 00-2.622-2.609zm-26.302 2.609a2.612 2.612 0 011.619-2.412 2.626 2.626 0 013.574 1.903 2.58 2.58 0 01-.149 1.508 2.623 2.623 0 01-2.422 1.612 2.612 2.612 0 01-2.622-2.611zm355.322-26.026a2.616 2.616 0 013.134-2.56 2.615 2.615 0 012.059 2.051 2.612 2.612 0 01-1.114 2.68 2.626 2.626 0 01-3.311-.325 2.603 2.603 0 01-.768-1.846zm-23.677 0c0-.516.154-1.021.443-1.45.287-.43.696-.765 1.176-.963a2.635 2.635 0 012.857.567c.368.365.616.83.719 1.337a2.613 2.613 0 01-.149 1.508 2.623 2.623 0 01-2.424 1.612 2.623 2.623 0 01-1.853-.765 2.604 2.604 0 01-.769-1.846zm-23.677-.001c0-.343.068-.681.201-.998a2.623 2.623 0 013.425-1.414 2.618 2.618 0 011.619 2.412c0 .343-.068.683-.199 1a2.64 2.64 0 01-.568.847 2.631 2.631 0 01-2.859.565 2.601 2.601 0 01-1.418-1.412 2.585 2.585 0 01-.201-1zm-23.735 0c0-.692.277-1.356.767-1.845a2.627 2.627 0 013.709 0 2.601 2.601 0 010 3.692 2.629 2.629 0 01-3.709 0 2.611 2.611 0 01-.767-1.847zm-23.677.001c0-.516.154-1.021.443-1.45.287-.43.696-.765 1.176-.963a2.635 2.635 0 012.857.567 2.595 2.595 0 01.568 2.845 2.599 2.599 0 01-.965 1.172 2.624 2.624 0 01-3.31-.325 2.604 2.604 0 01-.769-1.846zm-23.676 0a2.622 2.622 0 013.134-2.56 2.618 2.618 0 012.061 2.051 2.605 2.605 0 01-1.116 2.68 2.625 2.625 0 01-3.31-.325 2.604 2.604 0 01-.769-1.846zm-23.677-.001a2.623 2.623 0 012.623-2.611c.695 0 1.362.275 1.855.766a2.609 2.609 0 010 3.692 2.635 2.635 0 01-3.709 0 2.605 2.605 0 01-.769-1.847zm142.119-26.127c0-.691.276-1.356.768-1.845a2.628 2.628 0 013.708 0 2.604 2.604 0 010 3.692 2.628 2.628 0 01-3.708 0 2.605 2.605 0 01-.768-1.847zm-21.058-2.61a2.617 2.617 0 00-2.623 2.61 2.617 2.617 0 002.623 2.611 2.616 2.616 0 002.622-2.611 2.616 2.616 0 00-2.622-2.61zm-26.299 2.61a2.605 2.605 0 011.619-2.412 2.63 2.63 0 012.857.567 2.611 2.611 0 01.568 2.844 2.617 2.617 0 01-2.422 1.612 2.63 2.63 0 01-1.855-.764 2.604 2.604 0 01-.767-1.847zm-21.11-2.61a2.616 2.616 0 00-2.622 2.61 2.616 2.616 0 002.622 2.611 2.617 2.617 0 002.622-2.611 2.616 2.616 0 00-2.622-2.61zm-26.299 2.61c0-.691.277-1.356.769-1.845a2.626 2.626 0 013.707 0 2.604 2.604 0 010 3.692 2.628 2.628 0 01-3.707 0 2.606 2.606 0 01-.769-1.847zm-21.054-2.61a2.616 2.616 0 00-2.622 2.61 2.616 2.616 0 002.622 2.611 2.615 2.615 0 002.622-2.611 2.615 2.615 0 00-2.622-2.61zm-23.732 0a2.616 2.616 0 00-2.622 2.61 2.617 2.617 0 002.622 2.611 2.615 2.615 0 002.622-2.611 2.615 2.615 0 00-2.622-2.61zm139.548-23.468a2.613 2.613 0 011.619-2.412 2.63 2.63 0 013.576 1.904 2.605 2.605 0 01-1.116 2.68 2.635 2.635 0 01-3.31-.325 2.605 2.605 0 01-.769-1.847zm-21.054-2.665a2.618 2.618 0 00-2.623 2.611 2.618 2.618 0 002.623 2.612 2.617 2.617 0 002.622-2.611 2.617 2.617 0 00-2.622-2.612zm-26.303 2.665c0-.692.277-1.356.767-1.845a2.628 2.628 0 013.709 0 2.601 2.601 0 010 3.692 2.625 2.625 0 01-2.857.565 2.655 2.655 0 01-.852-.565 2.616 2.616 0 01-.767-1.847zm-21.106-2.665a2.617 2.617 0 00-2.622 2.611 2.617 2.617 0 002.622 2.612 2.618 2.618 0 002.622-2.611 2.618 2.618 0 00-2.622-2.612zm-26.299 2.665a2.6 2.6 0 01.443-1.45c.287-.43.696-.764 1.176-.962a2.63 2.63 0 012.857.567 2.604 2.604 0 01-.397 4.017 2.634 2.634 0 01-3.31-.325 2.605 2.605 0 01-.769-1.847zm-21.054-2.665a2.617 2.617 0 00-2.622 2.611 2.617 2.617 0 002.622 2.612 2.616 2.616 0 002.622-2.611 2.616 2.616 0 00-2.622-2.612zm-23.732 0a2.618 2.618 0 00-2.622 2.611 2.618 2.618 0 002.622 2.612 2.616 2.616 0 002.622-2.611 2.616 2.616 0 00-2.622-2.612zm139.548-23.464c0-.692.277-1.356.769-1.845a2.627 2.627 0 013.708 0 2.605 2.605 0 010 3.692 2.632 2.632 0 01-3.708 0 2.606 2.606 0 01-.769-1.847zm-21.054-2.609a2.617 2.617 0 00-2.623 2.61 2.617 2.617 0 002.623 2.61 2.616 2.616 0 002.622-2.61 2.616 2.616 0 00-2.622-2.61zm-26.299 2.609a2.605 2.605 0 011.619-2.412 2.63 2.63 0 012.857.567c.366.365.616.831.717 1.337.101.506.05 1.031-.149 1.508a2.618 2.618 0 01-2.422 1.612 2.63 2.63 0 01-1.855-.765 2.604 2.604 0 01-.767-1.847z" fill="#4A8EFF"/><path d="M302.158 28.077a2.616 2.616 0 00-2.622 2.61 2.616 2.616 0 002.622 2.61 2.617 2.617 0 002.622-2.61 2.616 2.616 0 00-2.622-2.61z" fill="#070C3A"/><path d="M275.859 30.686c0-.692.277-1.356.769-1.845a2.626 2.626 0 014.476 1.845c0 .693-.277 1.358-.769 1.847a2.626 2.626 0 01-4.476-1.847zm-21.054-2.609a2.616 2.616 0 00-2.622 2.61 2.616 2.616 0 002.622 2.61 2.615 2.615 0 002.622-2.61 2.615 2.615 0 00-2.622-2.61zm-23.736 0a2.616 2.616 0 00-2.622 2.61 2.617 2.617 0 002.622 2.61 2.616 2.616 0 002.622-2.61 2.616 2.616 0 00-2.622-2.61zM370.625 4.614c0-.692.276-1.357.768-1.847a2.628 2.628 0 013.708 0 2.605 2.605 0 010 3.692 2.624 2.624 0 01-3.708 0 2.602 2.602 0 01-.768-1.845zM349.57 1.948a2.617 2.617 0 00-2.622 2.61 2.617 2.617 0 002.622 2.612 2.617 2.617 0 002.623-2.611 2.617 2.617 0 00-2.623-2.611zm-26.299 2.666a2.607 2.607 0 011.619-2.412 2.631 2.631 0 012.859.566c.366.365.616.83.717 1.336a2.612 2.612 0 01-2.572 3.121 2.624 2.624 0 01-2.623-2.61zm-21.113-2.666a2.617 2.617 0 00-2.622 2.61 2.617 2.617 0 002.622 2.612 2.617 2.617 0 002.622-2.611 2.618 2.618 0 00-2.622-2.611zm-26.299 2.666c0-.692.277-1.357.769-1.847a2.626 2.626 0 014.476 1.847 2.621 2.621 0 01-2.622 2.611 2.622 2.622 0 01-2.623-2.611zm-21.054-2.666a2.617 2.617 0 00-2.622 2.61 2.617 2.617 0 002.622 2.612 2.616 2.616 0 002.622-2.611 2.616 2.616 0 00-2.622-2.611zm-23.735 0a2.617 2.617 0 00-2.622 2.61 2.617 2.617 0 002.622 2.612 2.618 2.618 0 002.623-2.611 2.618 2.618 0 00-2.623-2.611zm-26.24 107.073a2.614 2.614 0 013.133-2.56c.509.1.976.348 1.342.714a2.604 2.604 0 01-.396 4.017c-.432.286-.939.44-1.457.44a2.624 2.624 0 01-1.854-.765 2.603 2.603 0 01-.768-1.846zm-23.95-.001a2.623 2.623 0 012.623-2.611c.695 0 1.362.275 1.855.766a2.609 2.609 0 010 3.692 2.635 2.635 0 01-3.709 0 2.605 2.605 0 01-.769-1.847zm-23.351.039a2.583 2.583 0 01.423-1.459 2.629 2.629 0 014.039-.439c.37.364.623.828.728 1.336a2.594 2.594 0 01-.142 1.513 2.625 2.625 0 01-2.426 1.622 2.591 2.591 0 01-2.422-1.579 2.55 2.55 0 01-.2-.994zm-23.784-.038a2.61 2.61 0 011.619-2.413 2.634 2.634 0 012.857.567 2.608 2.608 0 01.568 2.845 2.612 2.612 0 01-.965 1.172 2.637 2.637 0 01-3.312-.325 2.61 2.61 0 01-.767-1.846zm-23.677-.001c0-.692.277-1.356.768-1.845a2.624 2.624 0 014.477 1.845c0 .693-.277 1.358-.769 1.847a2.629 2.629 0 01-3.708 0 2.608 2.608 0 01-.768-1.847z" fill="#4A8EFF"/><path d="M86.388 109.02c0-.692.276-1.356.768-1.845a2.626 2.626 0 013.709 0 2.606 2.606 0 010 3.692 2.633 2.633 0 01-3.709 0 2.604 2.604 0 01-.768-1.847z" fill="#070C3A"/><path d="M62.66 109.021a2.622 2.622 0 013.133-2.56 2.62 2.62 0 012.062 2.051 2.608 2.608 0 01-1.116 2.68 2.626 2.626 0 01-3.31-.325 2.603 2.603 0 01-.769-1.846zm-23.677 0a2.621 2.621 0 013.134-2.56 2.62 2.62 0 012.06 2.051 2.609 2.609 0 01-1.115 2.68 2.626 2.626 0 01-3.31-.325 2.604 2.604 0 01-.77-1.846zm-23.68-.001c0-.692.277-1.356.767-1.845a2.626 2.626 0 013.709 0 2.601 2.601 0 01-.85 4.257 2.617 2.617 0 01-2.007 0 2.625 2.625 0 01-.852-.565 2.614 2.614 0 01-.767-1.847zm192.144-28.737a2.616 2.616 0 00-2.622 2.61 2.617 2.617 0 002.622 2.611 2.616 2.616 0 002.623-2.611 2.616 2.616 0 00-2.623-2.61zm-23.728 0a2.616 2.616 0 00-2.622 2.61 2.617 2.617 0 002.622 2.611 2.615 2.615 0 002.622-2.611 2.615 2.615 0 00-2.622-2.61zm-23.676 0a2.617 2.617 0 00-2.623 2.61 2.617 2.617 0 002.623 2.611 2.616 2.616 0 002.622-2.611 2.616 2.616 0 00-2.622-2.61zm-23.676 0a2.616 2.616 0 00-2.622 2.61 2.616 2.616 0 002.622 2.611 2.617 2.617 0 002.622-2.611 2.616 2.616 0 00-2.622-2.61z" fill="#4A8EFF"/><path d="M112.69 80.283a2.616 2.616 0 00-2.622 2.61 2.616 2.616 0 002.622 2.611 2.617 2.617 0 002.623-2.611 2.617 2.617 0 00-2.623-2.61z" fill="#070C3A"/><path d="M88.959 80.283a2.615 2.615 0 00-2.623 2.61 2.616 2.616 0 002.623 2.611 2.616 2.616 0 002.622-2.611 2.615 2.615 0 00-2.622-2.61zm-26.299 2.61c0-.691.277-1.356.769-1.845a2.629 2.629 0 013.708 0 2.608 2.608 0 010 3.692 2.632 2.632 0 01-3.708 0 2.605 2.605 0 01-.769-1.847zm-21.055-2.61a2.616 2.616 0 00-2.622 2.61 2.617 2.617 0 002.622 2.611 2.616 2.616 0 002.622-2.611 2.615 2.615 0 00-2.622-2.61z" fill="#4A8EFF"/><path d="M15.302 82.85a2.61 2.61 0 011.501-2.475 2.625 2.625 0 013.659 1.713 2.613 2.613 0 01-2.379 3.255 2.636 2.636 0 01-1.915-.665 2.616 2.616 0 01-.865-1.827z" fill="#0151DA"/><path d="M207.452 54.15a2.618 2.618 0 00-2.622 2.611 2.618 2.618 0 002.622 2.612 2.617 2.617 0 002.622-2.611 2.617 2.617 0 00-2.622-2.612zm-23.733 0a2.618 2.618 0 00-2.622 2.611 2.618 2.618 0 002.622 2.612 2.616 2.616 0 002.622-2.611 2.616 2.616 0 00-2.622-2.612zm-23.676 0a2.618 2.618 0 00-2.623 2.611 2.618 2.618 0 002.623 2.612 2.617 2.617 0 002.622-2.611 2.617 2.617 0 00-2.622-2.612zm-23.676 0a2.617 2.617 0 00-2.622 2.611 2.617 2.617 0 002.622 2.612 2.618 2.618 0 002.622-2.611 2.618 2.618 0 00-2.622-2.612zm-23.677 0a2.617 2.617 0 00-2.622 2.611 2.617 2.617 0 002.622 2.612 2.618 2.618 0 002.623-2.611 2.618 2.618 0 00-2.623-2.612zm-23.731 0a2.617 2.617 0 00-2.623 2.611 2.617 2.617 0 002.623 2.612 2.617 2.617 0 002.622-2.611 2.617 2.617 0 00-2.622-2.612zM62.66 56.815a2.61 2.61 0 011.619-2.412 2.63 2.63 0 012.858.567 2.604 2.604 0 01-.398 4.017 2.628 2.628 0 01-3.31-.325 2.605 2.605 0 01-.769-1.847zM41.605 54.15a2.617 2.617 0 00-2.622 2.611 2.618 2.618 0 002.622 2.612 2.617 2.617 0 002.622-2.611 2.617 2.617 0 00-2.622-2.612z" fill="#4A8EFF"/><path d="M15.303 56.815c0-.692.277-1.356.767-1.845a2.627 2.627 0 013.709 0 2.602 2.602 0 01-.85 4.257 2.629 2.629 0 01-3.427-1.412 2.61 2.61 0 01-.199-1z" fill="#4E75CB"/><path d="M207.452 28.077a2.615 2.615 0 00-2.621 2.61 2.616 2.616 0 002.621 2.61 2.616 2.616 0 002.622-2.61 2.616 2.616 0 00-2.622-2.61zm-23.733 0a2.616 2.616 0 00-2.622 2.61 2.617 2.617 0 002.622 2.61 2.615 2.615 0 002.622-2.61 2.615 2.615 0 00-2.622-2.61zm-23.676 0a2.617 2.617 0 00-2.623 2.61 2.617 2.617 0 002.623 2.61 2.616 2.616 0 002.622-2.61 2.616 2.616 0 00-2.622-2.61zm-23.676 0a2.616 2.616 0 00-2.622 2.61 2.616 2.616 0 002.622 2.61 2.617 2.617 0 002.622-2.61 2.616 2.616 0 00-2.622-2.61z" fill="#4A8EFF"/><path d="M112.69 28.077a2.616 2.616 0 00-2.622 2.61 2.616 2.616 0 002.622 2.61 2.617 2.617 0 002.623-2.61 2.617 2.617 0 00-2.623-2.61z" fill="#0151DA"/><path d="M88.959 28.077a2.615 2.615 0 00-2.623 2.61 2.616 2.616 0 002.623 2.61 2.616 2.616 0 002.622-2.61 2.615 2.615 0 00-2.622-2.61zM62.66 30.686c0-.692.277-1.356.769-1.845a2.628 2.628 0 013.708 0 2.606 2.606 0 010 3.692 2.632 2.632 0 01-3.708 0 2.605 2.605 0 01-.769-1.847zm-21.055-2.609a2.616 2.616 0 00-2.622 2.61 2.617 2.617 0 002.622 2.61 2.616 2.616 0 002.622-2.61 2.615 2.615 0 00-2.622-2.61zm-26.302 2.609a2.611 2.611 0 011.619-2.412 2.63 2.63 0 012.857.567 2.599 2.599 0 01.568 2.845 2.612 2.612 0 01-2.422 1.612 2.632 2.632 0 01-1.855-.765 2.61 2.61 0 01-.767-1.847zM207.452 1.948a2.617 2.617 0 00-2.621 2.61 2.617 2.617 0 002.621 2.612 2.617 2.617 0 002.622-2.611 2.617 2.617 0 00-2.622-2.611zm-23.733 0a2.618 2.618 0 00-2.622 2.61 2.617 2.617 0 002.622 2.612 2.616 2.616 0 002.622-2.611 2.616 2.616 0 00-2.622-2.611zm-23.676 0a2.618 2.618 0 00-2.623 2.61 2.618 2.618 0 002.623 2.612 2.617 2.617 0 002.622-2.611 2.617 2.617 0 00-2.622-2.611zm-23.676 0a2.617 2.617 0 00-2.622 2.61 2.617 2.617 0 002.622 2.612 2.617 2.617 0 002.622-2.611 2.618 2.618 0 00-2.622-2.611zm-23.677 0a2.617 2.617 0 00-2.622 2.61 2.617 2.617 0 002.622 2.612 2.618 2.618 0 002.623-2.611 2.618 2.618 0 00-2.623-2.611zm-23.731 0a2.617 2.617 0 00-2.623 2.61A2.617 2.617 0 0088.96 7.17a2.617 2.617 0 002.622-2.611 2.617 2.617 0 00-2.622-2.611zM62.66 4.614c0-.692.277-1.357.769-1.847a2.629 2.629 0 013.708 0 2.606 2.606 0 010 3.692 2.627 2.627 0 01-3.708 0 2.602 2.602 0 01-.769-1.845z" fill="#4A8EFF"/><path d="M41.605 1.948a2.617 2.617 0 00-2.622 2.61 2.617 2.617 0 002.622 2.612 2.617 2.617 0 002.622-2.611 2.617 2.617 0 00-2.622-2.611z" fill="#070C3A"/><path d="M15.303 4.614a2.607 2.607 0 011.619-2.412 2.63 2.63 0 012.857.566 2.599 2.599 0 01.568 2.844 2.627 2.627 0 01-4.277.847 2.606 2.606 0 01-.767-1.845z" fill="#4A8EFF"/></g></g></symbol></svg>