<svg xmlns="http://www.w3.org/2000/svg" xmlns:xlink="http://www.w3.org/1999/xlink"><symbol id="about1" viewBox="0 0 72 72"><path d="M52.364 9.818L18 26.182v19.636c0 .125.028.242.072.357.167.727.787 1.28 1.564 1.28l7.042 2.804a1.634 1.634 0 002.776-1.168V32.727l34.364-18-11.454-4.909z" fill="#070C3A" fill-opacity=".5"/><path d="M71.062 16.534l.005-.012L36.704.16S36.512 0 36 0s-.704.159-.704.159L.933 16.522l.003.009C.806 16.585 0 17.024 0 18v36c0 .65.386 1.203.938 1.466l-.005.01L35.296 71.84l.005-.01A1.6 1.6 0 0036 72a1.6 1.6 0 00.699-.17l.005.01 34.363-16.364-.005-.01c.552-.263.938-.816.938-1.466V18c0-.358-.21-1.12-.938-1.466zM54.04 12.039L21.273 27.322v16.08l-4.91-1.964V24.545L48.66 9.476l5.38 2.563zM36 3.448l8.794 4.189-30.558 14.55L5.443 18 36 3.448zm-1.636 64.324L3.273 52.966V20.592l9.818 4.675v17.278c0 .69.429 1.272 1.03 1.514v.007l8.15 3.26c-.363-.154.237.129.638.129.905 0 1.637-.732 1.637-1.637V30.721l9.818 4.675v32.376zM36 32.552l-8.96-4.266 30.83-14.421L66.558 18 36 32.552zm32.727 20.414l-31.09 14.806V35.398l31.09-14.806v32.374z" fill="#070C3A"/></symbol><symbol id="button-up" viewBox="0 0 512 512"><path fill="#fff" d="M132.928 277.919l40.634 40.634 82.43-82.43 82.446 82.43 40.634-40.634-123.08-123.08z"/><path fill="#fff" d="M255.992 0C114.606.015.015 114.606 0 256.008.015 397.394 114.606 511.984 255.992 512 397.394 511.984 511.985 397.394 512 256.008 511.985 114.606 397.394.015 255.992 0zm152.593 408.585c-39.118 39.079-92.938 63.189-152.593 63.205-59.647-.016-113.467-24.126-152.577-63.205-39.087-39.111-63.197-92.93-63.205-152.577.008-59.655 24.118-113.483 63.205-152.593 39.11-39.087 92.93-63.197 152.577-63.205 59.655.008 113.476 24.118 152.593 63.205 39.079 39.11 63.197 92.938 63.205 152.593-.008 59.647-24.118 113.466-63.205 152.577z"/></symbol><symbol id="logo-appsec" viewBox="0 0 133 49"><path d="M42.636 0H6.364C2.849 0 0 2.538 0 5.668v37.665C0 46.463 2.85 49 6.364 49h36.272C46.151 49 49 46.463 49 43.333V5.668C49 2.538 46.15 0 42.636 0z" fill="#fff"/><mask id="mask0_383_25" style="mask-type:luminance" maskUnits="userSpaceOnUse" x="2" y="8" width="45" height="33"><path d="M46.234 8.259H2.767V40.74h43.467V8.26z" fill="#fff"/></mask><g mask="url(#mask0_383_25)"><path fill-rule="evenodd" clip-rule="evenodd" d="M24.534-11.642l34.69 82.576h-69.38l34.69-82.576zm-27.95 78.097h55.901L24.535-.08-3.418 66.455z" fill="#070C3A"/><mask id="mask1_383_25" style="mask-type:luminance" maskUnits="userSpaceOnUse" x="4" y="13" width="41" height="37"><path d="M44.26 13.743H4.576V49.12H44.26V13.743z" fill="#fff"/></mask><g mask="url(#mask1_383_25)"><path fill-rule="evenodd" clip-rule="evenodd" d="M24.535 19.525L11.37 50.86l-4.129-1.734 15.229-36.25h4.129l15.229 36.25-4.13 1.734-13.163-31.335z" fill="#070C3A"/></g></g><path d="M87.528 7.934c.605-.714 1.51-1.095 2.701-1.095 1.203 0 2.114.393 2.72 1.111.603.713.882 1.72.882 2.906v.605h-1.998v-.693c0-.67-.128-1.168-.376-1.495-.242-.318-.617-.502-1.184-.502s-.942.184-1.183.5c-.249.324-.377.817-.377 1.476 0 1.526 1.072 2.398 2.3 3.397l.2.163c1.287 1.052 2.64 2.261 2.64 4.51 0 1.187-.285 2.194-.896 2.907-.614.718-1.536 1.111-2.75 1.111-1.213 0-2.13-.393-2.739-1.111-.605-.713-.884-1.72-.884-2.906v-1.065h1.976v1.152c0 .668.138 1.165.397 1.493.252.32.64.505 1.207.505.567 0 .955-.185 1.207-.505.258-.328.397-.825.397-1.493 0-1.513-1.064-2.38-2.283-3.373l-.207-.168c-1.282-1.05-2.628-2.259-2.628-4.508 0-1.207.279-2.214.878-2.922zm20.121-1.095c-1.214 0-2.13.399-2.739 1.123-.605.718-.884 1.73-.884 2.916v7.918c0 1.186.279 2.198.884 2.916.609.724 1.525 1.123 2.739 1.123 1.225 0 2.147-.399 2.759-1.123.608-.718.887-1.73.887-2.916v-2.093h-1.998v2.18c0 .67-.133 1.173-.39 1.506-.249.324-.636.514-1.214.514-.565 0-.953-.19-1.206-.515-.259-.333-.398-.837-.398-1.505V10.79c0-.667.139-1.171.398-1.505.253-.325.641-.514 1.206-.514.578 0 .965.19 1.214.514.257.333.39.836.39 1.505v1.655h1.998v-1.567c0-1.186-.279-2.198-.887-2.917-.612-.724-1.534-1.122-2.759-1.122z" fill="#fff"/><path fill-rule="evenodd" clip-rule="evenodd" d="M84.35 8.058c-.603-.698-1.521-1.066-2.763-1.066h-3.536v15.69h2.085v-6.037h1.32c1.246 0 2.195-.326 2.83-.997.635-.67.925-1.649.925-2.89v-1.836c0-1.184-.262-2.171-.861-2.864zm-1.616 6.258c-.26.277-.67.419-1.278.419h-1.32V8.924h1.451c.588 0 .961.163 1.195.454.242.3.366.772.366 1.456v2.034c0 .712-.15 1.168-.414 1.448zm-7.22 1.332c-.636.671-1.585.997-2.83.997h-1.32v6.037h-2.086V6.992h3.536c1.242 0 2.16.368 2.763 1.066.6.693.861 1.68.861 2.864v1.837c0 1.24-.29 2.22-.924 2.889zm-1.505-6.27c-.234-.29-.607-.454-1.195-.454h-1.45v5.81h1.32c.608 0 1.016-.141 1.278-.418.263-.28.413-.736.413-1.448v-2.034c0-.684-.124-1.156-.366-1.456zM67.71 22.682l-3.004-15.69h-2.785l-3.004 15.69h1.961l.591-3.084h3.558l.59 3.084h2.093zm-5.95-4.929l1.457-7.647 1.496 7.647H61.76z" fill="#fff"/><path d="M102.298 6.992h-6.679v15.69h6.679V20.75h-4.594v-5.068h3.741v-1.91h-3.74V8.924h4.593V6.992zM60.099 27.27c.604-.713 1.51-1.094 2.7-1.094 1.204 0 2.115.393 2.721 1.111.602.713.882 1.72.882 2.906v.605h-1.998v-.693c0-.67-.129-1.168-.377-1.495-.241-.318-.617-.502-1.184-.502-.566 0-.942.184-1.183.5-.248.324-.377.817-.377 1.476 0 1.526 1.073 2.398 2.3 3.397l.2.163c1.287 1.052 2.64 2.26 2.64 4.51 0 1.187-.285 2.194-.895 2.907-.615.718-1.537 1.11-2.75 1.11s-2.13-.392-2.74-1.11c-.604-.714-.884-1.72-.884-2.907V37.09h1.976v1.152c0 .668.139 1.165.397 1.493.252.32.64.505 1.207.505.567 0 .955-.185 1.207-.505.259-.328.397-.825.397-1.493 0-1.514-1.063-2.38-2.283-3.373a83.426 83.426 0 01-.207-.169c-1.281-1.049-2.628-2.258-2.628-4.507 0-1.207.279-2.214.879-2.922z" fill="#fff"/><path fill-rule="evenodd" clip-rule="evenodd" d="M71.747 26.176c-1.213 0-2.145.393-2.77 1.112-.623.715-.92 1.728-.92 2.927v7.918c0 1.188.298 2.2.92 2.918.624.722 1.556 1.12 2.77 1.12 1.224 0 2.161-.398 2.79-1.12.624-.718.921-1.73.921-2.918v-7.918c0-1.2-.297-2.212-.922-2.927-.628-.72-1.566-1.112-2.79-1.112zm-1.626 3.951c0-.666.143-1.17.407-1.503.259-.327.653-.516 1.219-.516.578 0 .97.19 1.226.515.261.333.4.837.4 1.504v8.093c0 .68-.14 1.182-.4 1.512-.254.322-.647.508-1.226.508-.568 0-.962-.185-1.219-.508-.264-.331-.407-.834-.407-1.512v-8.093zm37.808-2.839c.625-.72 1.557-1.112 2.77-1.112 1.224 0 2.161.392 2.79 1.112.625.715.921 1.728.921 2.927v7.918c0 1.188-.296 2.2-.921 2.918-.628.722-1.565 1.12-2.79 1.12-1.213 0-2.145-.398-2.77-1.12-.622-.718-.919-1.73-.919-2.918v-7.918c0-1.2.297-2.212.919-2.927zm1.552 1.336c-.264.333-.407.837-.407 1.503v8.093c0 .678.143 1.181.407 1.512.257.323.651.508 1.218.508.58 0 .973-.186 1.227-.508.261-.33.399-.833.399-1.512v-8.093c0-.667-.138-1.17-.4-1.504-.255-.325-.648-.515-1.226-.515-.565 0-.96.19-1.218.516z" fill="#fff"/><path d="M129.31 26.176c-1.191 0-2.097.381-2.701 1.095-.6.708-.879 1.715-.879 2.922 0 2.25 1.347 3.458 2.629 4.507l.206.169c1.22.993 2.283 1.86 2.283 3.373 0 .668-.138 1.165-.396 1.493-.252.32-.64.505-1.208.505-.567 0-.955-.185-1.207-.505-.258-.328-.397-.825-.397-1.493V37.09h-1.975v1.064c0 1.186.279 2.193.884 2.906.609.719 1.526 1.112 2.739 1.112 1.213 0 2.135-.393 2.75-1.11.61-.714.896-1.72.896-2.907 0-2.25-1.353-3.46-2.64-4.51-.067-.056-.134-.11-.201-.164-1.227-.999-2.3-1.87-2.3-3.398 0-.658.129-1.151.377-1.476.241-.315.617-.5 1.184-.5s.942.185 1.183.503c.248.327.377.825.377 1.495v.693h1.998v-.605c0-1.186-.28-2.193-.882-2.906-.606-.718-1.517-1.111-2.72-1.111zm-7.324 10.196l-3.216-10.043h-2.493v15.69h1.91V30.677l3.587 11.342h2.1v-15.69h-1.888v10.043zM87.76 39.726c-.257-.333-.39-.837-.39-1.506V26.33h-2.063v11.804c0 1.185.273 2.202.872 2.925.603.73 1.514 1.136 2.73 1.136 1.225 0 2.142-.405 2.748-1.135.601-.724.875-1.741.875-2.926V26.329h-1.976V38.22c0 .669-.133 1.173-.388 1.506-.247.325-.629.514-1.194.514-.577 0-.965-.19-1.214-.514zm17.35-13.397h-2.085v15.69h2.085v-15.69zm-11.236 0h7.707v1.932h-2.822v13.758h-2.063V28.26h-2.822v-1.932zm-16.527 0h2.085v13.758h4.375v1.932h-6.46v-15.69z" fill="#fff"/></symbol><symbol id="logo-cnews" viewBox="0 0 103 20"><path d="M10.652 0h.98c1.18.096 2.444.166 3.454.85.575.375.868 1.14.623 1.79-.324.897-1.27 1.65-2.256 1.47-.557-.156-1.023-.519-1.464-.877-.718-.587-1.411-1.23-2.264-1.622-.669-.332-1.454-.313-2.169-.159-1.274.305-2.28 1.272-2.925 2.376A8.983 8.983 0 003.46 8.452c-.002 1.943.544 3.905 1.649 5.512 1.117 1.625 2.843 2.849 4.783 3.25 1.375.313 2.863.239 4.154-.348a9.148 9.148 0 001.615-.945c.27.159.545.307.833.43-1.291 1.464-2.965 2.612-4.842 3.178-1.97.59-4.151.556-6.065-.226-2.089-.84-3.771-2.557-4.684-4.6C.346 13.513.083 12.208 0 10.9v-.877c.086-1.216.334-2.429.834-3.545.872-2.007 2.417-3.694 4.289-4.817C6.785.645 8.711.101 10.653 0zM31.1 0h.01c.16.055.316.114.474.171-.12 1.049-.217 2.101-.343 3.15C33.047 2.008 34.945.674 37.164.19c.424-.1.856-.142 1.288-.19h.786c.826.07 1.67.194 2.412.589.876.427 1.561 1.192 1.95 2.078.567 1.254.663 2.655.673 4.012v8.132c-.005.566.007 1.134.061 1.697.074.46.132.956.435 1.33.28.365.717.567 1.15.685.563.152 1.137.269 1.716.328.012.218.014.435.014.653H37.577c.006-.214-.03-.437.027-.647.864-.15 1.802-.241 2.534-.77.693-.545.728-1.498.792-2.306.042-1.906.015-3.815.023-5.722-.012-1.29.051-2.59-.179-3.867-.176-.97-.518-1.962-1.236-2.67-.948-.992-2.395-1.3-3.722-1.264a5.543 5.543 0 00-2.025.306c-.87.317-1.638.861-2.313 1.486-.096.07-.054.197-.066.295.008 3.782-.003 7.565.005 11.349.042.637.056 1.301.331 1.89.235.487.74.772 1.241.919a10.99 10.99 0 001.792.35c.003.217.003.434.003.65-3.355 0-6.713 0-10.07.002.008-.218.01-.435.015-.653a9.625 9.625 0 001.784-.37c.547-.173 1.07-.526 1.281-1.08.334-.936.263-1.945.303-2.92V5.873c-.01-.57-.005-1.162-.259-1.687-.4-.797-1.155-1.331-1.853-1.852a47.185 47.185 0 00-.005-.431C27.684 1.263 29.396.645 31.1 0zm24.47 0h.882c.543.058 1.089.113 1.615.26 1.42.356 2.709 1.239 3.504 2.473.699 1.063 1.023 2.335 1.084 3.597-4.166-.006-8.333.004-12.497-.005-.092.703-.13 1.414-.176 2.122-.19 2.022.362 4.12 1.578 5.754a7.292 7.292 0 004.532 2.846c1.183.207 2.433.2 3.572-.217 1.228-.432 2.226-1.341 2.99-2.374.22.159.438.318.655.483-1.145 1.929-2.856 3.561-4.952 4.406-2.805 1.145-6.192.579-8.535-1.32-1.268-1.005-2.226-2.374-2.812-3.877-.655-1.643-.831-3.457-.617-5.206.32-2.901 1.855-5.708 4.297-7.351C52.12.6 53.842.097 55.57 0zm-1.606 1.021c-1.213.234-2.176 1.152-2.786 2.187-.412.723-.765 1.504-.884 2.331.95-.102 1.907-.059 2.86-.137a392.46 392.46 0 005.418-.23c-.292-1.267-.795-2.563-1.8-3.437a3.217 3.217 0 00-2.808-.714zM96.61 0h.735c1.55.1 3.125.522 4.397 1.432.049 1.273.077 2.55.145 3.822-.318.066-.64.118-.958.185-.393-1.287-.869-2.627-1.865-3.578-1.058-1.008-2.89-1.135-4.016-.176-.71.612-1.025 1.584-.969 2.504-.007.982.603 1.843 1.326 2.456 1.203 1.003 2.657 1.628 3.998 2.419 1.088.641 2.183 1.37 2.89 2.445.608.912.81 2.056.659 3.134-.137 1.264-.775 2.45-1.709 3.305-1.384 1.288-3.284 1.92-5.153 1.985-1.937.046-3.917-.45-5.508-1.581-.102-1.14-.15-2.282-.259-3.422-.055-.454-.02-.916-.11-1.368.34-.07.682-.15 1.032-.166.3 1.5.928 2.98 1.987 4.104.802.832 1.944 1.34 3.106 1.316.866.023 1.745-.304 2.363-.917 1.203-1.196 1.327-3.33.226-4.631-.626-.766-1.495-1.282-2.357-1.743-1.363-.737-2.827-1.335-4.019-2.348-.794-.656-1.412-1.548-1.652-2.558-.262-1.136-.196-2.377.323-3.435.487-1.012 1.34-1.813 2.323-2.339.94-.513 2-.766 3.066-.845z" fill="#fff"/><path d="M60.621.423c3.037.005 6.075.005 9.113 0-.004.215-.004.43-.001.645-.566.036-1.152.059-1.683.284-.343.122-.645.39-.74.75-.07.412-.013.837.12 1.23.29.903.663 1.776 1.002 2.66 1.19 3.053 2.401 6.096 3.58 9.153 1.352-3.137 2.666-6.295 4.006-9.438.09-.197-.044-.392-.105-.574-.423-1.005-.713-2.091-1.367-2.98-.553-.752-1.534-.933-2.396-1.085l.003-.644c3.074 0 6.15.01 9.224-.005l.001.647c-.663.05-1.348.096-1.96.384-.394.189-.706.59-.684 1.041.017.596.262 1.156.465 1.707 1.363 3.65 2.762 7.287 4.11 10.941.56-1.148 1.055-2.328 1.58-3.493.87-1.996 1.727-4 2.456-6.053.292-.885.596-1.775.718-2.702.08-.498-.066-1.071-.502-1.366-.563-.36-1.25-.36-1.888-.455.002-.216.001-.431 0-.647 2.43.008 4.859-.003 7.288.005-.002.21-.002.422-.001.633-.732.076-1.479.27-2.059.746-.9.716-1.355 1.805-1.832 2.817-2.3 5.105-4.573 10.223-6.878 15.325a5.69 5.69 0 00-.549.01h-.035c-1.71-4.379-3.431-8.753-5.135-13.135-1.822 4.37-3.603 8.759-5.411 13.135h-.033c-.201-.015-.402-.018-.604-.015-2.155-5.347-4.305-10.695-6.472-16.038-.318-.74-.645-1.514-1.254-2.068-.563-.519-1.335-.718-2.08-.775.003-.214.003-.427.003-.64zm-44.86 5.448c.85-.696 1.89-1.173 2.99-1.271 1.595-.176 3.254.422 4.38 1.566.994 1 1.576 2.4 1.556 3.813a5.326 5.326 0 01-1.186 3.376 5.368 5.368 0 01-3.293 1.932c-1.274.212-2.627-.024-3.726-.71-1.39-.839-2.362-2.336-2.538-3.95-.203-1.5.288-3.057 1.27-4.201-.295.471-.461 1.023-.386 1.583.105.975.93 1.818 1.9 1.947 1.148.2 2.33-.643 2.537-1.782.092-.513.027-1.065-.235-1.522-.395-.73-1.219-1.215-2.054-1.163-.437-.006-.839.181-1.215.382z" fill="#fff"/></symbol></svg>